G04 #@! TF.GenerationSoftware,KiCad,Pcbnew,7.0.6*
G04 #@! TF.CreationDate,2023-07-11T17:22:40+08:00*
G04 #@! TF.ProjectId,m5-pantilt,6d352d70-616e-4746-996c-742e6b696361,1*
G04 #@! TF.SameCoordinates,PX5f5e100PY5f5e100*
G04 #@! TF.FileFunction,Copper,L1,Top*
G04 #@! TF.FilePolarity,Positive*
%FSLAX46Y46*%
G04 Gerber Fmt 4.6, Leading zero omitted, Abs format (unit mm)*
G04 Created by KiCad (PCBNEW 7.0.6) date 2023-07-11 17:22:40*
%MOMM*%
%LPD*%
G01*
G04 APERTURE LIST*
G04 Aperture macros list*
%AMRoundRect*
0 Rectangle with rounded corners*
0 $1 Rounding radius*
0 $2 $3 $4 $5 $6 $7 $8 $9 X,Y pos of 4 corners*
0 Add a 4 corners polygon primitive as box body*
4,1,4,$2,$3,$4,$5,$6,$7,$8,$9,$2,$3,0*
0 Add four circle primitives for the rounded corners*
1,1,$1+$1,$2,$3*
1,1,$1+$1,$4,$5*
1,1,$1+$1,$6,$7*
1,1,$1+$1,$8,$9*
0 Add four rect primitives between the rounded corners*
20,1,$1+$1,$2,$3,$4,$5,0*
20,1,$1+$1,$4,$5,$6,$7,0*
20,1,$1+$1,$6,$7,$8,$9,0*
20,1,$1+$1,$8,$9,$2,$3,0*%
G04 Aperture macros list end*
G04 #@! TA.AperFunction,ComponentPad*
%ADD10R,1.700000X1.700000*%
G04 #@! TD*
G04 #@! TA.AperFunction,ComponentPad*
%ADD11O,1.700000X1.700000*%
G04 #@! TD*
G04 #@! TA.AperFunction,ComponentPad*
%ADD12RoundRect,0.250000X0.350000X0.625000X-0.350000X0.625000X-0.350000X-0.625000X0.350000X-0.625000X0*%
G04 #@! TD*
G04 #@! TA.AperFunction,ComponentPad*
%ADD13O,1.200000X1.750000*%
G04 #@! TD*
G04 #@! TA.AperFunction,SMDPad,CuDef*
%ADD14R,0.800100X0.254000*%
G04 #@! TD*
G04 #@! TA.AperFunction,ComponentPad*
%ADD15RoundRect,0.250000X-0.350000X-0.625000X0.350000X-0.625000X0.350000X0.625000X-0.350000X0.625000X0*%
G04 #@! TD*
G04 #@! TA.AperFunction,SMDPad,CuDef*
%ADD16RoundRect,0.237500X0.287500X0.237500X-0.287500X0.237500X-0.287500X-0.237500X0.287500X-0.237500X0*%
G04 #@! TD*
G04 #@! TA.AperFunction,ComponentPad*
%ADD17RoundRect,0.250000X-0.750000X0.600000X-0.750000X-0.600000X0.750000X-0.600000X0.750000X0.600000X0*%
G04 #@! TD*
G04 #@! TA.AperFunction,ComponentPad*
%ADD18O,2.000000X1.700000*%
G04 #@! TD*
G04 #@! TA.AperFunction,SMDPad,CuDef*
%ADD19RoundRect,0.237500X-0.287500X-0.237500X0.287500X-0.237500X0.287500X0.237500X-0.287500X0.237500X0*%
G04 #@! TD*
G04 #@! TA.AperFunction,SMDPad,CuDef*
%ADD20RoundRect,0.250001X0.624999X-0.462499X0.624999X0.462499X-0.624999X0.462499X-0.624999X-0.462499X0*%
G04 #@! TD*
G04 #@! TA.AperFunction,SMDPad,CuDef*
%ADD21RoundRect,0.250001X-0.624999X0.462499X-0.624999X-0.462499X0.624999X-0.462499X0.624999X0.462499X0*%
G04 #@! TD*
G04 #@! TA.AperFunction,SMDPad,CuDef*
%ADD22R,0.900000X0.800000*%
G04 #@! TD*
G04 #@! TA.AperFunction,SMDPad,CuDef*
%ADD23RoundRect,0.237500X0.237500X-0.287500X0.237500X0.287500X-0.237500X0.287500X-0.237500X-0.287500X0*%
G04 #@! TD*
G04 #@! TA.AperFunction,ComponentPad*
%ADD24O,2.500000X1.500000*%
G04 #@! TD*
G04 #@! TA.AperFunction,ComponentPad*
%ADD25R,2.500000X1.500000*%
G04 #@! TD*
G04 #@! TA.AperFunction,ComponentPad*
%ADD26O,3.500000X2.200000*%
G04 #@! TD*
G04 #@! TA.AperFunction,ViaPad*
%ADD27C,0.600000*%
G04 #@! TD*
G04 #@! TA.AperFunction,Conductor*
%ADD28C,0.200000*%
G04 #@! TD*
G04 #@! TA.AperFunction,Conductor*
%ADD29C,1.000000*%
G04 #@! TD*
G04 #@! TA.AperFunction,Conductor*
%ADD30C,1.600000*%
G04 #@! TD*
G04 #@! TA.AperFunction,Conductor*
%ADD31C,0.400000*%
G04 #@! TD*
G04 #@! TA.AperFunction,Conductor*
%ADD32C,1.200000*%
G04 #@! TD*
G04 APERTURE END LIST*
D10*
X37846000Y16764000D03*
D11*
X37846000Y19304000D03*
X40386000Y16764000D03*
X40386000Y19304000D03*
X42926000Y16764000D03*
X42926000Y19304000D03*
X42926000Y26924000D03*
X42926000Y24384000D03*
X40386000Y26924000D03*
X40386000Y24384000D03*
X37846000Y26924000D03*
D10*
X37846000Y24384000D03*
D12*
X33000000Y45000000D03*
D13*
X31000000Y45000000D03*
X29000000Y45000000D03*
X27000000Y45000000D03*
D14*
X16948250Y24021801D03*
X16948250Y23521800D03*
X16948250Y23021800D03*
X16948250Y22521799D03*
X20059750Y22521799D03*
X20059750Y23021800D03*
X20059750Y23521800D03*
X20059750Y24021801D03*
D15*
X40060000Y10600000D03*
D13*
X42060000Y10600000D03*
D12*
X20000000Y45000000D03*
D13*
X18000000Y45000000D03*
X16000000Y45000000D03*
X14000000Y45000000D03*
D16*
X24268400Y20878800D03*
X22518400Y20878800D03*
X24268400Y19354800D03*
X22518400Y19354800D03*
D17*
X13700000Y7800000D03*
D18*
X13700000Y5300000D03*
D19*
X22531000Y31750000D03*
X24281000Y31750000D03*
D16*
X24281000Y22504400D03*
X22531000Y22504400D03*
D20*
X34544000Y25617500D03*
X34544000Y22642500D03*
D21*
X32258000Y25617500D03*
X32258000Y22642500D03*
X32004000Y17083100D03*
X32004000Y14108100D03*
D22*
X33800000Y4050000D03*
X33800000Y5950000D03*
X31800000Y5000000D03*
D23*
X35636200Y4128800D03*
X35636200Y5878800D03*
D19*
X14775000Y27150000D03*
X16525000Y27150000D03*
D16*
X16625000Y18900000D03*
X14875000Y18900000D03*
X16625000Y14850000D03*
X14875000Y14850000D03*
X16625000Y17300000D03*
X14875000Y17300000D03*
X16625000Y13250000D03*
X14875000Y13250000D03*
D19*
X22425000Y13100000D03*
X24175000Y13100000D03*
X22525000Y27200000D03*
X24275000Y27200000D03*
D16*
X24275000Y29050000D03*
X22525000Y29050000D03*
X24175000Y14800000D03*
X22425000Y14800000D03*
D21*
X34544000Y17018000D03*
X34544000Y14043000D03*
D24*
X45800000Y35000000D03*
X45800000Y37000000D03*
D25*
X45800000Y39000000D03*
D26*
X45800000Y32900000D03*
X45800000Y41100000D03*
D27*
X46228000Y16764000D03*
X15600000Y7200000D03*
X12000000Y7500000D03*
X24700000Y25600000D03*
X35900000Y15200000D03*
X36000000Y1000000D03*
X21600000Y30400000D03*
X7823200Y10998200D03*
X21000000Y25095200D03*
X18387800Y23521800D03*
X21234400Y21640800D03*
X1000000Y39000000D03*
X29921200Y6299200D03*
X6150000Y18600000D03*
X11000000Y1000000D03*
X49000000Y37000000D03*
X17500000Y34400000D03*
X16350000Y43300000D03*
X39725600Y12242800D03*
X39344600Y8915400D03*
X49000000Y11000000D03*
X25750000Y12500000D03*
X32100000Y43250000D03*
X31000000Y1000000D03*
X42700000Y22800000D03*
X30429200Y28676600D03*
X14000000Y49000000D03*
X43332400Y37846000D03*
X19200000Y41300000D03*
X24000000Y49000000D03*
X6248400Y24434800D03*
X18338800Y28702000D03*
X29000000Y49000000D03*
X36050000Y23850000D03*
X19000000Y49000000D03*
X37795200Y6934200D03*
X42000000Y1500000D03*
X11150000Y38050000D03*
X33700000Y21200000D03*
X27650000Y40500000D03*
X11300000Y15900000D03*
X11328400Y11023600D03*
X1500000Y5000000D03*
X9144000Y33909000D03*
X48500000Y5500000D03*
X1500000Y45000000D03*
X12852400Y20066000D03*
X9400000Y28750000D03*
X39000000Y49000000D03*
X27500000Y18415000D03*
X49000000Y32000000D03*
X10900000Y33650000D03*
X1000000Y29000000D03*
X24900000Y38800000D03*
X12100000Y41500000D03*
X36677600Y12293600D03*
X8000000Y1500000D03*
X13400000Y14100000D03*
X26000000Y1000000D03*
X49000000Y16000000D03*
X9600000Y23700000D03*
X27686000Y31242000D03*
X19650000Y36700000D03*
X27584400Y4114800D03*
X11100000Y27700000D03*
X1000000Y11000000D03*
X9000000Y5400000D03*
X29800000Y43600000D03*
X8000000Y48500000D03*
X9200000Y21400000D03*
X49000000Y21000000D03*
X19200000Y38750000D03*
X30400000Y19400000D03*
X43840400Y29921200D03*
X25400000Y23650000D03*
X45872400Y11988800D03*
X42000000Y48500000D03*
X21000000Y1000000D03*
X10922000Y35687000D03*
X12065000Y39243000D03*
X30378400Y15290800D03*
X27635200Y35001200D03*
X4622800Y11023600D03*
X30000000Y11850000D03*
X6250000Y12450000D03*
X1000000Y34000000D03*
X27600000Y25950000D03*
X16000000Y1000000D03*
X1000000Y18550000D03*
X25019000Y33782000D03*
X1000000Y14000000D03*
X30276800Y23266400D03*
X34000000Y49000000D03*
X49000000Y26000000D03*
X13100000Y33200000D03*
X23950000Y9400000D03*
X22150000Y23800000D03*
X1000000Y24000000D03*
X25250000Y41950000D03*
X17250000Y28600000D03*
X46228000Y22860000D03*
X7772400Y38938200D03*
X48500000Y44500000D03*
X30276800Y36372800D03*
X27600000Y16200000D03*
X10150000Y5800000D03*
X10900000Y6300000D03*
X11300000Y30100000D03*
X13600000Y27050000D03*
X11499998Y25800000D03*
X14896874Y38970125D03*
X13999996Y38650000D03*
X10887845Y26414586D03*
X26750000Y20400000D03*
X25950000Y19200000D03*
X6150000Y17300000D03*
X12550000Y16478399D03*
X6150000Y19850000D03*
X11600000Y19900000D03*
X25550000Y21500000D03*
X25230813Y15419187D03*
D28*
X18387800Y23521800D02*
X16948250Y23521800D01*
X16100000Y22289601D02*
X16100000Y21700000D01*
X17548300Y22521799D02*
X18548301Y23521800D01*
X16948250Y22521799D02*
X17548300Y22521799D01*
X16340199Y22529800D02*
X16100000Y22289601D01*
X16948250Y22521799D02*
X16348200Y22521799D01*
D29*
X28956000Y17653000D02*
X28956000Y25748798D01*
X28930600Y17627600D02*
X28930600Y13880600D01*
X28956000Y20066000D02*
X31292800Y22402800D01*
X31292800Y22402800D02*
X39344600Y22402800D01*
X28956000Y31750000D02*
X28956000Y30734000D01*
X28950000Y12500000D02*
X30218599Y13768599D01*
X28956000Y30734000D02*
X28956000Y41081000D01*
X39344600Y22402800D02*
X40386000Y23444200D01*
X19330003Y35049999D02*
X25656001Y35049999D01*
X16130002Y8150000D02*
X24600000Y8150000D01*
X15119999Y8200001D02*
X16080001Y8200001D01*
X24600000Y8150000D02*
X28950000Y12500000D01*
X28956000Y41081000D02*
X31000000Y43125000D01*
X28956000Y25748798D02*
X28956000Y30734000D01*
X28956000Y17653000D02*
X28930600Y17627600D01*
X13700000Y7800000D02*
X14050000Y8150000D01*
X25656001Y35049999D02*
X28956000Y31750000D01*
X16080001Y8200001D02*
X16130002Y8150000D01*
X38568599Y13768599D02*
X40386000Y15586000D01*
X31000000Y43125000D02*
X31000000Y45000000D01*
X28950000Y12500000D02*
X28950000Y13861200D01*
X30218599Y13768599D02*
X38568599Y13768599D01*
X28956000Y17653000D02*
X28956000Y20066000D01*
X15069998Y8150000D02*
X15119999Y8200001D01*
X14050000Y8150000D02*
X15069998Y8150000D01*
X18000000Y45000000D02*
X18000000Y36380002D01*
X40386000Y23444200D02*
X40386000Y24384000D01*
X18000000Y36380002D02*
X19330003Y35049999D01*
X40386000Y15586000D02*
X40386000Y16764000D01*
D30*
X10600000Y6074002D02*
X10600000Y4182800D01*
X10600000Y4182800D02*
X12293600Y2489200D01*
X29800000Y3200000D02*
X30000000Y3200000D01*
X29089200Y2489200D02*
X29800000Y3200000D01*
X12293600Y2489200D02*
X29089200Y2489200D01*
X10600000Y6074002D02*
X10600000Y6074002D01*
X30000000Y3200000D02*
X31800000Y5000000D01*
D29*
X28956000Y45015600D02*
X29000000Y45059600D01*
D28*
X19940000Y30100000D02*
X21590000Y31750000D01*
X24145000Y29210000D02*
X24145000Y30160000D01*
X15700000Y30100000D02*
X11724264Y30100000D01*
X15700000Y30050000D02*
X16525000Y29225000D01*
X20059750Y28454250D02*
X18414000Y30100000D01*
X18414000Y30100000D02*
X19940000Y30100000D01*
X16525000Y29225000D02*
X16525000Y27150000D01*
X22531000Y31750000D02*
X22531000Y31275000D01*
X24145000Y30160000D02*
X23825000Y30480000D01*
X21590000Y31750000D02*
X22860000Y31750000D01*
X20059750Y24021801D02*
X20059750Y28454250D01*
X23825000Y30480000D02*
X23326000Y30480000D01*
X18414000Y30100000D02*
X15700000Y30100000D01*
X11724264Y30100000D02*
X11300000Y30100000D01*
X22531000Y31275000D02*
X23326000Y30480000D01*
X15700000Y30100000D02*
X15700000Y30050000D01*
X13100000Y24500000D02*
X11924262Y25675738D01*
X16875250Y23948801D02*
X16379601Y23948801D01*
X16379601Y23948801D02*
X15951200Y23520400D01*
X14900000Y43800000D02*
X14900000Y38973251D01*
X13600000Y27050000D02*
X14675000Y27050000D01*
X16948250Y24021801D02*
X16875250Y23948801D01*
X13100000Y24492000D02*
X13100000Y24500000D01*
X14900000Y38973251D02*
X14896874Y38970125D01*
X16000000Y44900000D02*
X14900000Y43800000D01*
X14071600Y23520400D02*
X13100000Y24492000D01*
X14675000Y27050000D02*
X14775000Y27150000D01*
X15951200Y23520400D02*
X14071600Y23520400D01*
X16000000Y45000000D02*
X16000000Y44900000D01*
X11924262Y25675738D02*
X11924262Y25800000D01*
X11924262Y25800000D02*
X11499998Y25800000D01*
X14000000Y45000000D02*
X14000000Y38650004D01*
X11111999Y25199999D02*
X10887845Y25424153D01*
X16906850Y23063200D02*
X13812536Y23063200D01*
X14000000Y38650004D02*
X13999996Y38650000D01*
X10887845Y25990322D02*
X10887845Y26414586D01*
X16948250Y23021800D02*
X16906850Y23063200D01*
X10887845Y25424153D02*
X10887845Y25990322D01*
X11675737Y25199999D02*
X11111999Y25199999D01*
X13812536Y23063200D02*
X11675737Y25199999D01*
X26271200Y20878800D02*
X26450001Y20699999D01*
X26450001Y20699999D02*
X26750000Y20400000D01*
X26750000Y15150000D02*
X26750000Y19975736D01*
X24700000Y13100000D02*
X26750000Y15150000D01*
X24175000Y13100000D02*
X24700000Y13100000D01*
X24268400Y20878800D02*
X26271200Y20878800D01*
X26750000Y19975736D02*
X26750000Y20400000D01*
X24268400Y19354800D02*
X25795200Y19354800D01*
X42926000Y24384000D02*
X42584000Y24384000D01*
D31*
X25795200Y19354800D02*
X25950000Y19200000D01*
D28*
X24268400Y16643400D02*
X22425000Y14800000D01*
X24268400Y19354800D02*
X24268400Y16643400D01*
X25795200Y19354800D02*
X25850000Y19300000D01*
X22425000Y14800000D02*
X22425000Y13100000D01*
X22518400Y20878800D02*
X21078800Y20878800D01*
X21078800Y20878800D02*
X19100000Y18900000D01*
X19100000Y18900000D02*
X16625000Y18900000D01*
X22518400Y20878800D02*
X21993400Y20878800D01*
X21993400Y20878800D02*
X16625000Y15510400D01*
X16625000Y15325000D02*
X16625000Y14850000D01*
X16625000Y15510400D02*
X16625000Y15325000D01*
D30*
X33800000Y5814452D02*
X33800000Y5809200D01*
X35633574Y7648026D02*
X33800000Y5814452D01*
D28*
X35636200Y7645400D02*
X35636200Y5878800D01*
D30*
X38585548Y10600000D02*
X35633574Y7648026D01*
D28*
X37200000Y9000000D02*
X36000000Y7800000D01*
D32*
X39997199Y10662801D02*
X40060000Y10600000D01*
D28*
X35633574Y7648026D02*
X35636200Y7645400D01*
D30*
X40060000Y10600000D02*
X38585548Y10600000D01*
D28*
X15799990Y15999990D02*
X15799990Y13550010D01*
X16625000Y16825000D02*
X15799990Y15999990D01*
X16625000Y13250000D02*
X17150000Y13250000D01*
X17150000Y13250000D02*
X17975000Y14075000D01*
X17975000Y14075000D02*
X17975000Y16075000D01*
X16625000Y17300000D02*
X16625000Y16825000D01*
X16100000Y13250000D02*
X16625000Y13250000D01*
X21254800Y19354800D02*
X22518400Y19354800D01*
X17975000Y16075000D02*
X21254800Y19354800D01*
X15799990Y13550010D02*
X16100000Y13250000D01*
X6449999Y17000001D02*
X6150000Y17300000D01*
X14875000Y13250000D02*
X10200000Y13250000D01*
X10200000Y13250000D02*
X6449999Y17000001D01*
X14875000Y14850000D02*
X14178399Y14850000D01*
X14178399Y14850000D02*
X12550000Y16478399D01*
X8700000Y17300000D02*
X6449999Y19550001D01*
X14875000Y17300000D02*
X8700000Y17300000D01*
X6449999Y19550001D02*
X6150000Y19850000D01*
X12600000Y18900000D02*
X11600000Y19900000D01*
X14875000Y18900000D02*
X12600000Y18900000D01*
X37567596Y8026400D02*
X36779200Y7238004D01*
X45110400Y10160000D02*
X42976800Y8026400D01*
X42976800Y8026400D02*
X37567596Y8026400D01*
X43180000Y35712400D02*
X43180000Y32512000D01*
X45110400Y30581600D02*
X45110400Y10160000D01*
X35636200Y4128800D02*
X33878800Y4128800D01*
X36779200Y5271800D02*
X35636200Y4128800D01*
X45782400Y36982400D02*
X44450000Y36982400D01*
X44450000Y36982400D02*
X43180000Y35712400D01*
X36779200Y7238004D02*
X36779200Y5271800D01*
X45800000Y37000000D02*
X45782400Y36982400D01*
X33878800Y4128800D02*
X33800000Y4050000D01*
X43180000Y32512000D02*
X45110400Y30581600D01*
X26035000Y31115000D02*
X26035000Y25775800D01*
X22281001Y22521799D02*
X20059750Y22521799D01*
X22531000Y22271800D02*
X22281001Y22521799D01*
X25400000Y31750000D02*
X26035000Y31115000D01*
X24281000Y31750000D02*
X25400000Y31750000D01*
X26035000Y25775800D02*
X22531000Y22271800D01*
X20059750Y23021800D02*
X20059750Y22521799D01*
X22830000Y26670000D02*
X22830000Y29180000D01*
X20659800Y23521800D02*
X22860000Y25722000D01*
X22830000Y29180000D02*
X22860000Y29210000D01*
X22860000Y25722000D02*
X22860000Y27305000D01*
X20059750Y23521800D02*
X20659800Y23521800D01*
X20059750Y23521800D02*
X19988400Y23521800D01*
X24545600Y22504400D02*
X25550000Y21500000D01*
X24281000Y22504400D02*
X24545600Y22504400D01*
X24794187Y15419187D02*
X24175000Y14800000D01*
X24268400Y14893400D02*
X24175000Y14800000D01*
X25230813Y15419187D02*
X24794187Y15419187D01*
G04 #@! TA.AperFunction,Conductor*
G36*
X24471121Y27433998D02*
G01*
X24517614Y27380342D01*
X24529000Y27328000D01*
X24529000Y26217000D01*
X24612178Y26217000D01*
X24626188Y26218432D01*
X24695989Y26205460D01*
X24747697Y26156810D01*
X24765000Y26093086D01*
X24765000Y26035000D01*
X25352906Y26035000D01*
X25421027Y26014998D01*
X25467520Y25961342D01*
X25477624Y25891068D01*
X25448130Y25826488D01*
X25442001Y25819905D01*
X22984886Y23362791D01*
X22922574Y23328765D01*
X22879349Y23326963D01*
X22876377Y23327355D01*
X22857040Y23329900D01*
X22204960Y23329900D01*
X22204958Y23329900D01*
X22090000Y23314765D01*
X21946966Y23255520D01*
X21824133Y23161267D01*
X21729882Y23038437D01*
X21728071Y23035298D01*
X21725849Y23033181D01*
X21724856Y23031885D01*
X21724654Y23032040D01*
X21676688Y22986305D01*
X21618952Y22972299D01*
X21051593Y22972299D01*
X20983472Y22992301D01*
X20936979Y23045957D01*
X20926875Y23116231D01*
X20956369Y23180811D01*
X20962498Y23187394D01*
X20972400Y23197296D01*
X20996033Y23219226D01*
X21015994Y23237745D01*
X21015997Y23237752D01*
X21021881Y23245128D01*
X21022562Y23244585D01*
X21032019Y23256917D01*
X23158170Y25383069D01*
X23163414Y25387755D01*
X23193970Y25412121D01*
X23227480Y25461272D01*
X23262793Y25509118D01*
X23262793Y25509121D01*
X23262795Y25509122D01*
X23266781Y25516664D01*
X23270471Y25524326D01*
X23270470Y25524326D01*
X23270472Y25524327D01*
X23288007Y25581178D01*
X23307646Y25637301D01*
X23307646Y25637304D01*
X23309229Y25645670D01*
X23310500Y25654099D01*
X23310500Y25713559D01*
X23311564Y25742000D01*
X23312725Y25773010D01*
X23312723Y25773015D01*
X23311668Y25782395D01*
X23312532Y25782493D01*
X23310499Y25797897D01*
X23310499Y26281016D01*
X23330501Y26349135D01*
X23384157Y26395628D01*
X23454431Y26405732D01*
X23515760Y26377723D01*
X23516209Y26378290D01*
X23518521Y26376462D01*
X23519011Y26376238D01*
X23520175Y26375154D01*
X23521966Y26373738D01*
X23670292Y26282249D01*
X23835723Y26227432D01*
X23835726Y26227431D01*
X23937815Y26217001D01*
X23937815Y26217000D01*
X24021000Y26217000D01*
X24021000Y27328000D01*
X24041002Y27396121D01*
X24094658Y27442614D01*
X24147000Y27454000D01*
X24403000Y27454000D01*
X24471121Y27433998D01*
G37*
G04 #@! TD.AperFunction*
G04 #@! TA.AperFunction,Conductor*
G36*
X21745430Y31164162D02*
G01*
X21801360Y31122811D01*
X21824132Y31093134D01*
X21946966Y30998881D01*
X22027618Y30965475D01*
X22090001Y30939635D01*
X22204960Y30924500D01*
X22204968Y30924500D01*
X22207968Y30924105D01*
X22272895Y30895383D01*
X22280617Y30888279D01*
X22987051Y30181846D01*
X22991761Y30176575D01*
X23009386Y30154476D01*
X23016121Y30146030D01*
X23065271Y30112520D01*
X23113118Y30077207D01*
X23113121Y30077206D01*
X23120660Y30073221D01*
X23128324Y30069530D01*
X23128327Y30069528D01*
X23185177Y30051993D01*
X23241301Y30032354D01*
X23241309Y30032354D01*
X23249682Y30030769D01*
X23258096Y30029501D01*
X23258098Y30029500D01*
X23258100Y30029500D01*
X23317559Y30029500D01*
X23377010Y30027275D01*
X23377014Y30027277D01*
X23386395Y30028332D01*
X23386492Y30027471D01*
X23401903Y30029500D01*
X23568500Y30029500D01*
X23636621Y30009498D01*
X23683114Y29955842D01*
X23694500Y29903500D01*
X23694500Y29865968D01*
X23674498Y29797847D01*
X23645204Y29766006D01*
X23568133Y29706867D01*
X23536368Y29665469D01*
X23499963Y29618025D01*
X23442625Y29576158D01*
X23371754Y29571936D01*
X23309851Y29606700D01*
X23300037Y29618025D01*
X23295170Y29624368D01*
X23231867Y29706867D01*
X23109037Y29801117D01*
X23109036Y29801118D01*
X23109033Y29801120D01*
X22965999Y29860365D01*
X22851041Y29875500D01*
X22851040Y29875500D01*
X22198960Y29875500D01*
X22198958Y29875500D01*
X22084000Y29860365D01*
X21940966Y29801120D01*
X21818133Y29706867D01*
X21723880Y29584034D01*
X21664635Y29441000D01*
X21649500Y29326042D01*
X21649500Y28773959D01*
X21664635Y28659001D01*
X21723880Y28515967D01*
X21723882Y28515964D01*
X21723883Y28515963D01*
X21818133Y28393133D01*
X21933575Y28304552D01*
X21940966Y28298881D01*
X22079718Y28241409D01*
X22135000Y28196861D01*
X22157421Y28129498D01*
X22139863Y28060707D01*
X22087901Y28012328D01*
X22079718Y28008591D01*
X21940966Y27951120D01*
X21818133Y27856867D01*
X21723880Y27734034D01*
X21664635Y27591000D01*
X21649500Y27476042D01*
X21649500Y26923959D01*
X21664635Y26809001D01*
X21723880Y26665967D01*
X21723882Y26665964D01*
X21723883Y26665963D01*
X21818133Y26543133D01*
X21906107Y26475629D01*
X21940966Y26448881D01*
X22021618Y26415475D01*
X22084001Y26389635D01*
X22198960Y26374500D01*
X22283500Y26374500D01*
X22351621Y26354498D01*
X22398114Y26300842D01*
X22409500Y26248500D01*
X22409500Y25960794D01*
X22389498Y25892673D01*
X22372595Y25871699D01*
X20891684Y24390789D01*
X20829372Y24356763D01*
X20758556Y24361828D01*
X20713494Y24390789D01*
X20666284Y24437999D01*
X20580911Y24479735D01*
X20528497Y24527623D01*
X20510250Y24592932D01*
X20510250Y28425408D01*
X20510646Y28432467D01*
X20513356Y28456514D01*
X20515020Y28471285D01*
X20507427Y28511415D01*
X20503962Y28529729D01*
X20500197Y28554701D01*
X20495098Y28588537D01*
X20495094Y28588545D01*
X20492574Y28596716D01*
X20489773Y28604719D01*
X20489773Y28604722D01*
X20489771Y28604726D01*
X20461973Y28657323D01*
X20445384Y28691768D01*
X20436175Y28710892D01*
X20436173Y28710894D01*
X20436173Y28710895D01*
X20431369Y28717942D01*
X20426317Y28724785D01*
X20426316Y28724788D01*
X20384254Y28766850D01*
X20343805Y28810444D01*
X20343801Y28810447D01*
X20336422Y28816332D01*
X20336961Y28817009D01*
X20324635Y28826469D01*
X20075802Y29075302D01*
X19716698Y29434405D01*
X19682674Y29496717D01*
X19687738Y29567532D01*
X19730285Y29624368D01*
X19796805Y29649179D01*
X19805794Y29649500D01*
X19911157Y29649500D01*
X19918211Y29649105D01*
X19957035Y29644730D01*
X19957035Y29644731D01*
X19957036Y29644730D01*
X19957036Y29644731D01*
X19982397Y29649530D01*
X20015478Y29655788D01*
X20046636Y29660485D01*
X20074287Y29664652D01*
X20074295Y29664657D01*
X20082472Y29667179D01*
X20090472Y29669977D01*
X20143073Y29697778D01*
X20161946Y29706867D01*
X20196642Y29723575D01*
X20196646Y29723579D01*
X20203685Y29728378D01*
X20210531Y29733431D01*
X20210538Y29733434D01*
X20252600Y29775497D01*
X20296194Y29815945D01*
X20296197Y29815952D01*
X20302081Y29823328D01*
X20302762Y29822785D01*
X20312219Y29835117D01*
X21612305Y31135203D01*
X21674615Y31169227D01*
X21745430Y31164162D01*
G37*
G04 #@! TD.AperFunction*
G04 #@! TA.AperFunction,Conductor*
G36*
X39916621Y49954498D02*
G01*
X39963114Y49900842D01*
X39974500Y49848500D01*
X39974500Y49530133D01*
X39972398Y49519565D01*
X39972399Y49500000D01*
X39974500Y49494927D01*
X39980482Y49480483D01*
X40000000Y49472399D01*
X40019575Y49472399D01*
X40030137Y49474500D01*
X46991715Y49474500D01*
X46998097Y49474500D01*
X47001900Y49474386D01*
X47294470Y49456688D01*
X47302012Y49455772D01*
X47588449Y49403281D01*
X47595822Y49401464D01*
X47873837Y49314831D01*
X47880941Y49312136D01*
X48146479Y49192627D01*
X48153216Y49189090D01*
X48402411Y49038448D01*
X48408671Y49034128D01*
X48637899Y48854539D01*
X48643589Y48849498D01*
X48849496Y48643591D01*
X48854538Y48637900D01*
X49016187Y48431570D01*
X49034121Y48408680D01*
X49038447Y48402412D01*
X49189089Y48153217D01*
X49192628Y48146475D01*
X49312131Y47880952D01*
X49314831Y47873833D01*
X49401461Y47595828D01*
X49403283Y47588438D01*
X49421079Y47491328D01*
X49455770Y47302020D01*
X49456688Y47294461D01*
X49474385Y47001903D01*
X49474500Y46998098D01*
X49474500Y40030133D01*
X49472398Y40019565D01*
X49472399Y40000000D01*
X49474500Y39994927D01*
X49480482Y39980483D01*
X49500000Y39972399D01*
X49519575Y39972399D01*
X49530137Y39974500D01*
X49848500Y39974500D01*
X49916621Y39954498D01*
X49963114Y39900842D01*
X49974500Y39848500D01*
X49974500Y10151500D01*
X49954498Y10083379D01*
X49900842Y10036886D01*
X49848500Y10025500D01*
X49530136Y10025500D01*
X49519574Y10027601D01*
X49499999Y10027601D01*
X49494927Y10025500D01*
X49480482Y10019518D01*
X49472399Y10000001D01*
X49472399Y9980425D01*
X49474500Y9969864D01*
X49474500Y3001903D01*
X49474385Y2998098D01*
X49456688Y2705540D01*
X49455770Y2697981D01*
X49403284Y2411567D01*
X49401461Y2404173D01*
X49314831Y2126168D01*
X49312131Y2119049D01*
X49192628Y1853526D01*
X49189089Y1846784D01*
X49038447Y1597589D01*
X49034121Y1591321D01*
X48854538Y1362101D01*
X48849489Y1356402D01*
X48643598Y1150511D01*
X48637899Y1145462D01*
X48408679Y965879D01*
X48402411Y961553D01*
X48153216Y810911D01*
X48146474Y807372D01*
X47880951Y687869D01*
X47873832Y685169D01*
X47595827Y598539D01*
X47588433Y596716D01*
X47302019Y544230D01*
X47294460Y543312D01*
X47039453Y527887D01*
X47001900Y525615D01*
X46998097Y525500D01*
X40030136Y525500D01*
X40019574Y527601D01*
X39999999Y527601D01*
X39994927Y525500D01*
X39980482Y519518D01*
X39972399Y500001D01*
X39972399Y480425D01*
X39974500Y469864D01*
X39974500Y151500D01*
X39954498Y83379D01*
X39900842Y36886D01*
X39848500Y25500D01*
X10151500Y25500D01*
X10083379Y45502D01*
X10036886Y99158D01*
X10025500Y151500D01*
X10025500Y469870D01*
X10027601Y480424D01*
X10027601Y500001D01*
X10019517Y519518D01*
X10005073Y525500D01*
X10000001Y527601D01*
X9980426Y527601D01*
X9969864Y525500D01*
X3001903Y525500D01*
X2998099Y525615D01*
X2953724Y528300D01*
X2705539Y543312D01*
X2697980Y544230D01*
X2515862Y577604D01*
X2411562Y596717D01*
X2404172Y598539D01*
X2126167Y685169D01*
X2119048Y687869D01*
X1853525Y807372D01*
X1846783Y810911D01*
X1597588Y961553D01*
X1591325Y965876D01*
X1362100Y1145462D01*
X1356409Y1150504D01*
X1150502Y1356411D01*
X1145461Y1362101D01*
X1143611Y1364462D01*
X965872Y1591329D01*
X961552Y1597589D01*
X938739Y1635326D01*
X903632Y1693401D01*
X810910Y1846784D01*
X807371Y1853526D01*
X687864Y2119059D01*
X685168Y2126168D01*
X682654Y2134235D01*
X598536Y2404178D01*
X596719Y2411551D01*
X544228Y2697988D01*
X543312Y2705530D01*
X525614Y2998100D01*
X525500Y3001903D01*
X525500Y3008285D01*
X525500Y3018818D01*
X1399500Y3018818D01*
X1405131Y2981462D01*
X1438604Y2759381D01*
X1515933Y2508686D01*
X1515938Y2508673D01*
X1629773Y2272294D01*
X1629777Y2272287D01*
X1777562Y2055528D01*
X1777567Y2055521D01*
X1956019Y1863195D01*
X2161143Y1699614D01*
X2161146Y1699612D01*
X2388352Y1568434D01*
X2388356Y1568433D01*
X2388357Y1568432D01*
X2632584Y1472580D01*
X2888370Y1414198D01*
X3040409Y1402805D01*
X3084503Y1399500D01*
X3084506Y1399500D01*
X3215497Y1399500D01*
X3256516Y1402575D01*
X3411630Y1414198D01*
X3667416Y1472580D01*
X3911643Y1568432D01*
X3911645Y1568434D01*
X3911647Y1568434D01*
X4124067Y1691075D01*
X4138857Y1699614D01*
X4343981Y1863195D01*
X4522433Y2055521D01*
X4670228Y2272296D01*
X4784063Y2508677D01*
X4784066Y2508686D01*
X4861395Y2759381D01*
X4861792Y2762014D01*
X4900500Y3018818D01*
X4900500Y3093670D01*
X6045710Y3093670D01*
X6058656Y2998098D01*
X6075925Y2870610D01*
X6145484Y2656533D01*
X6252144Y2458325D01*
X6252148Y2458318D01*
X6292425Y2407813D01*
X6392492Y2282334D01*
X6562004Y2134235D01*
X6755236Y2018785D01*
X6965976Y1939693D01*
X6965978Y1939693D01*
X6965980Y1939692D01*
X7099229Y1915511D01*
X7187453Y1899500D01*
X7187454Y1899500D01*
X7356149Y1899500D01*
X7356155Y1899500D01*
X7513759Y1913685D01*
X7524189Y1914623D01*
X7524189Y1914624D01*
X7699507Y1963009D01*
X7741167Y1974506D01*
X7741167Y1974507D01*
X7741170Y1974507D01*
X7943973Y2072171D01*
X8126078Y2204478D01*
X8281632Y2367175D01*
X8405635Y2555032D01*
X8494103Y2762012D01*
X8544191Y2981463D01*
X8554290Y3206330D01*
X8524075Y3429387D01*
X8454517Y3643464D01*
X8452365Y3647464D01*
X8347855Y3841676D01*
X8347851Y3841683D01*
X8245129Y3970491D01*
X8207508Y4017666D01*
X8079575Y4129438D01*
X9445804Y4129438D01*
X9456659Y4051611D01*
X9456994Y4048721D01*
X9464243Y3970494D01*
X9464243Y3970491D01*
X9470366Y3948973D01*
X9472169Y3940426D01*
X9475261Y3918264D01*
X9500237Y3843745D01*
X9501092Y3840986D01*
X9522593Y3765416D01*
X9522594Y3765414D01*
X9522595Y3765411D01*
X9532572Y3745374D01*
X9535910Y3737314D01*
X9543019Y3716102D01*
X9543021Y3716098D01*
X9581249Y3647464D01*
X9582606Y3644890D01*
X9617632Y3574548D01*
X9631117Y3556691D01*
X9635883Y3549377D01*
X9640763Y3540615D01*
X9646773Y3529825D01*
X9696976Y3469368D01*
X9698783Y3467086D01*
X9746129Y3404392D01*
X9746133Y3404388D01*
X9804199Y3351454D01*
X9806281Y3349466D01*
X11460263Y1695484D01*
X11462252Y1693401D01*
X11464372Y1691075D01*
X11515193Y1635328D01*
X11546467Y1611710D01*
X11577887Y1587982D01*
X11580167Y1586176D01*
X11640619Y1535977D01*
X11640627Y1535972D01*
X11660175Y1525084D01*
X11667493Y1520316D01*
X11685345Y1506834D01*
X11755684Y1471810D01*
X11758244Y1470460D01*
X11784903Y1455612D01*
X11826898Y1432221D01*
X11826901Y1432220D01*
X11848110Y1425112D01*
X11856173Y1421773D01*
X11876211Y1411795D01*
X11876215Y1411794D01*
X11876220Y1411792D01*
X11916018Y1400470D01*
X11951786Y1390293D01*
X11954544Y1389439D01*
X12029064Y1364461D01*
X12051231Y1361370D01*
X12059757Y1359572D01*
X12081290Y1353444D01*
X12136818Y1348299D01*
X12159545Y1346193D01*
X12162419Y1345861D01*
X12214230Y1338633D01*
X12240237Y1335005D01*
X12240237Y1335006D01*
X12240238Y1335005D01*
X12258247Y1335838D01*
X12318723Y1338633D01*
X12321633Y1338700D01*
X29061151Y1338700D01*
X29064061Y1338633D01*
X29081991Y1337805D01*
X29142562Y1335004D01*
X29220392Y1345862D01*
X29223266Y1346194D01*
X29234459Y1347232D01*
X29301510Y1353444D01*
X29318829Y1358373D01*
X29323031Y1359568D01*
X29331585Y1361372D01*
X29353736Y1364461D01*
X29428279Y1389447D01*
X29430984Y1390285D01*
X29506589Y1411795D01*
X29526621Y1421771D01*
X29534682Y1425110D01*
X29555902Y1432221D01*
X29624601Y1470487D01*
X29627072Y1471789D01*
X29697455Y1506834D01*
X29715303Y1520313D01*
X29722618Y1525082D01*
X29742175Y1535973D01*
X29802661Y1586201D01*
X29804909Y1587981D01*
X29867607Y1635328D01*
X29920566Y1693423D01*
X29922514Y1695463D01*
X30299570Y2072519D01*
X30354181Y2104612D01*
X30417389Y2122595D01*
X30437421Y2132571D01*
X30445482Y2135910D01*
X30466702Y2143021D01*
X30535401Y2181287D01*
X30537872Y2182589D01*
X30608255Y2217634D01*
X30626103Y2231113D01*
X30633418Y2235882D01*
X30652975Y2246773D01*
X30713461Y2297001D01*
X30715709Y2298781D01*
X30778407Y2346128D01*
X30831366Y2404223D01*
X30833314Y2406263D01*
X31520722Y3093670D01*
X41445710Y3093670D01*
X41458656Y2998098D01*
X41475925Y2870610D01*
X41545484Y2656533D01*
X41652144Y2458325D01*
X41652148Y2458318D01*
X41692425Y2407813D01*
X41792492Y2282334D01*
X41962004Y2134235D01*
X42155236Y2018785D01*
X42365976Y1939693D01*
X42365978Y1939693D01*
X42365980Y1939692D01*
X42499229Y1915511D01*
X42587453Y1899500D01*
X42587454Y1899500D01*
X42756149Y1899500D01*
X42756155Y1899500D01*
X42913759Y1913685D01*
X42924189Y1914623D01*
X42924189Y1914624D01*
X43099507Y1963009D01*
X43141167Y1974506D01*
X43141167Y1974507D01*
X43141170Y1974507D01*
X43343973Y2072171D01*
X43526078Y2204478D01*
X43681632Y2367175D01*
X43805635Y2555032D01*
X43894103Y2762012D01*
X43944191Y2981463D01*
X43945869Y3018818D01*
X45099500Y3018818D01*
X45105131Y2981462D01*
X45138604Y2759381D01*
X45215933Y2508686D01*
X45215938Y2508673D01*
X45329773Y2272294D01*
X45329777Y2272287D01*
X45477562Y2055528D01*
X45477567Y2055521D01*
X45656019Y1863195D01*
X45861143Y1699614D01*
X45861146Y1699612D01*
X46088352Y1568434D01*
X46088356Y1568433D01*
X46088357Y1568432D01*
X46332584Y1472580D01*
X46588370Y1414198D01*
X46740408Y1402805D01*
X46784503Y1399500D01*
X46784506Y1399500D01*
X46915497Y1399500D01*
X46956516Y1402575D01*
X47111630Y1414198D01*
X47367416Y1472580D01*
X47611643Y1568432D01*
X47611645Y1568434D01*
X47611647Y1568434D01*
X47824067Y1691075D01*
X47838857Y1699614D01*
X48043981Y1863195D01*
X48222433Y2055521D01*
X48370228Y2272296D01*
X48484063Y2508677D01*
X48484066Y2508686D01*
X48561395Y2759381D01*
X48561792Y2762014D01*
X48600500Y3018818D01*
X48600500Y3281182D01*
X48561396Y3540615D01*
X48561395Y3540617D01*
X48561395Y3540620D01*
X48484066Y3791315D01*
X48484061Y3791328D01*
X48411501Y3942000D01*
X48370228Y4027704D01*
X48370226Y4027707D01*
X48370222Y4027714D01*
X48222437Y4244473D01*
X48222433Y4244479D01*
X48043981Y4436805D01*
X47838857Y4600386D01*
X47838852Y4600389D01*
X47838853Y4600389D01*
X47611647Y4731567D01*
X47611639Y4731570D01*
X47367419Y4827419D01*
X47367417Y4827420D01*
X47111632Y4885802D01*
X46915497Y4900500D01*
X46915494Y4900500D01*
X46784506Y4900500D01*
X46784503Y4900500D01*
X46588367Y4885802D01*
X46332582Y4827420D01*
X46332580Y4827419D01*
X46088360Y4731570D01*
X46088352Y4731567D01*
X45861146Y4600389D01*
X45656018Y4436805D01*
X45477566Y4244478D01*
X45477562Y4244473D01*
X45329777Y4027714D01*
X45329773Y4027707D01*
X45215938Y3791328D01*
X45215933Y3791315D01*
X45138604Y3540620D01*
X45123968Y3443515D01*
X45099500Y3281182D01*
X45099500Y3018818D01*
X43945869Y3018818D01*
X43954290Y3206330D01*
X43924075Y3429387D01*
X43854517Y3643464D01*
X43852365Y3647464D01*
X43747855Y3841676D01*
X43747851Y3841683D01*
X43645129Y3970491D01*
X43607508Y4017666D01*
X43437996Y4165765D01*
X43244764Y4281215D01*
X43034024Y4360307D01*
X43034019Y4360309D01*
X42844091Y4394776D01*
X42812547Y4400500D01*
X42643845Y4400500D01*
X42612558Y4397685D01*
X42475810Y4385378D01*
X42475810Y4385377D01*
X42258832Y4325495D01*
X42056031Y4227832D01*
X42056023Y4227827D01*
X41873921Y4095522D01*
X41873920Y4095521D01*
X41718369Y3932828D01*
X41594367Y3744973D01*
X41594363Y3744965D01*
X41505897Y3537989D01*
X41505896Y3537987D01*
X41455809Y3318539D01*
X41455809Y3318537D01*
X41450770Y3206327D01*
X41445710Y3093670D01*
X31520722Y3093670D01*
X32651140Y4224087D01*
X32753226Y4347025D01*
X32763423Y4365334D01*
X32814044Y4415112D01*
X32883542Y4429621D01*
X32949852Y4404254D01*
X32991921Y4347064D01*
X32999500Y4304022D01*
X32999499Y3616745D01*
X32999500Y3616739D01*
X33009427Y3548606D01*
X33060801Y3443518D01*
X33060803Y3443515D01*
X33143514Y3360804D01*
X33143517Y3360802D01*
X33248607Y3309427D01*
X33316740Y3299500D01*
X33316745Y3299500D01*
X34283255Y3299500D01*
X34283260Y3299500D01*
X34351393Y3309427D01*
X34456483Y3360802D01*
X34539198Y3443517D01*
X34590573Y3548607D01*
X34591751Y3556691D01*
X34593759Y3570468D01*
X34623374Y3634993D01*
X34683173Y3673263D01*
X34718442Y3678300D01*
X34745580Y3678300D01*
X34813701Y3658298D01*
X34860194Y3604642D01*
X34861977Y3600544D01*
X34885083Y3544763D01*
X34979333Y3421933D01*
X35102163Y3327683D01*
X35102166Y3327681D01*
X35170203Y3299500D01*
X35245201Y3268435D01*
X35360160Y3253300D01*
X35360167Y3253300D01*
X35912233Y3253300D01*
X35912240Y3253300D01*
X36027199Y3268435D01*
X36133690Y3312545D01*
X36170233Y3327681D01*
X36170233Y3327682D01*
X36170237Y3327683D01*
X36293067Y3421933D01*
X36387317Y3544763D01*
X36388910Y3548607D01*
X36410411Y3600518D01*
X36446565Y3687801D01*
X36461700Y3802760D01*
X36461700Y4265007D01*
X36481702Y4333128D01*
X36498600Y4354098D01*
X37077366Y4932865D01*
X37082618Y4937559D01*
X37113170Y4961921D01*
X37146680Y5011072D01*
X37181993Y5058918D01*
X37181993Y5058921D01*
X37181995Y5058922D01*
X37185981Y5066464D01*
X37189671Y5074126D01*
X37189670Y5074126D01*
X37189672Y5074127D01*
X37207207Y5130978D01*
X37226846Y5187101D01*
X37226846Y5187108D01*
X37228430Y5195478D01*
X37229700Y5203901D01*
X37229700Y5263374D01*
X37231924Y5322810D01*
X37231922Y5322816D01*
X37230867Y5332192D01*
X37231728Y5332290D01*
X37229700Y5347698D01*
X37229700Y6999212D01*
X37249702Y7067333D01*
X37266596Y7088298D01*
X37717296Y7538998D01*
X37779606Y7573021D01*
X37806389Y7575900D01*
X42947957Y7575900D01*
X42955011Y7575505D01*
X42993835Y7571130D01*
X42993835Y7571131D01*
X42993836Y7571130D01*
X42993836Y7571131D01*
X43019197Y7575930D01*
X43052278Y7582188D01*
X43083436Y7586885D01*
X43111087Y7591052D01*
X43111095Y7591057D01*
X43119272Y7593579D01*
X43127272Y7596377D01*
X43179873Y7624178D01*
X43197284Y7632564D01*
X43233442Y7649975D01*
X43233446Y7649979D01*
X43240485Y7654778D01*
X43247331Y7659831D01*
X43247338Y7659834D01*
X43289399Y7701896D01*
X43332994Y7742345D01*
X43332997Y7742352D01*
X43338881Y7749728D01*
X43339562Y7749185D01*
X43349019Y7761517D01*
X45408570Y9821069D01*
X45413814Y9825755D01*
X45444370Y9850121D01*
X45477880Y9899272D01*
X45513193Y9947118D01*
X45513193Y9947121D01*
X45513195Y9947122D01*
X45517181Y9954664D01*
X45520871Y9962326D01*
X45520870Y9962326D01*
X45520872Y9962327D01*
X45538407Y10019178D01*
X45558046Y10075301D01*
X45558046Y10075308D01*
X45559630Y10083678D01*
X45560900Y10092101D01*
X45560900Y10151574D01*
X45560900Y10151575D01*
X45563124Y10211010D01*
X45563122Y10211016D01*
X45562067Y10220392D01*
X45562928Y10220490D01*
X45560900Y10235898D01*
X45560900Y30552758D01*
X45561296Y30559818D01*
X45562500Y30570502D01*
X45565670Y30598635D01*
X45560717Y30624811D01*
X45554611Y30657092D01*
X45545748Y30715887D01*
X45543229Y30724053D01*
X45540424Y30732068D01*
X45540424Y30732072D01*
X45512616Y30784685D01*
X45486825Y30838242D01*
X45486823Y30838244D01*
X45482014Y30845298D01*
X45476967Y30852135D01*
X45476966Y30852138D01*
X45434904Y30894200D01*
X45394455Y30937794D01*
X45394451Y30937797D01*
X45387072Y30943682D01*
X45387611Y30944359D01*
X45375283Y30953821D01*
X45094699Y31234405D01*
X45060673Y31296717D01*
X45065738Y31367532D01*
X45108285Y31424368D01*
X45174805Y31449179D01*
X45183794Y31449500D01*
X46509992Y31449500D01*
X46528760Y31451056D01*
X46689563Y31464380D01*
X46922591Y31523390D01*
X47142728Y31619951D01*
X47343969Y31751429D01*
X47520825Y31914236D01*
X47668472Y32103933D01*
X47782882Y32315344D01*
X47860934Y32542703D01*
X47900500Y32779808D01*
X47900500Y33020192D01*
X47860934Y33257297D01*
X47782882Y33484656D01*
X47668472Y33696067D01*
X47520825Y33885764D01*
X47343969Y34048571D01*
X47201569Y34141606D01*
X47155484Y34195607D01*
X47145909Y34265955D01*
X47175265Y34329600D01*
X47200515Y34358739D01*
X47200515Y34358741D01*
X47200519Y34358744D01*
X47305604Y34540756D01*
X47374344Y34739367D01*
X47404254Y34947398D01*
X47399243Y35052604D01*
X47394255Y35157320D01*
X47394254Y35157325D01*
X47394254Y35157330D01*
X47344704Y35361576D01*
X47344701Y35361581D01*
X47344701Y35361584D01*
X47269706Y35525797D01*
X47257396Y35552753D01*
X47135486Y35723952D01*
X47131281Y35727961D01*
X46983377Y35868987D01*
X46983376Y35868988D01*
X46944420Y35894023D01*
X46897927Y35947678D01*
X46887822Y36017952D01*
X46917315Y36082533D01*
X46934644Y36099058D01*
X47062886Y36199908D01*
X47200519Y36358744D01*
X47305604Y36540756D01*
X47374344Y36739367D01*
X47404254Y36947398D01*
X47403420Y36964901D01*
X47394255Y37157320D01*
X47394254Y37157325D01*
X47394254Y37157330D01*
X47344704Y37361576D01*
X47344701Y37361581D01*
X47344701Y37361584D01*
X47300100Y37459245D01*
X47257396Y37552753D01*
X47221873Y37602638D01*
X47198653Y37669728D01*
X47215391Y37738724D01*
X47266773Y37787717D01*
X47280480Y37793781D01*
X47295966Y37799557D01*
X47412904Y37887096D01*
X47500444Y38004035D01*
X47500444Y38004036D01*
X47551494Y38140907D01*
X47557999Y38201403D01*
X47558000Y38201415D01*
X47558000Y38746000D01*
X46172968Y38746000D01*
X46223625Y38833740D01*
X46253810Y38965992D01*
X46243673Y39101265D01*
X46194113Y39227541D01*
X46173013Y39254000D01*
X47558000Y39254000D01*
X47558000Y39798586D01*
X47557999Y39798598D01*
X47551494Y39859094D01*
X47501808Y39992309D01*
X47496744Y40063124D01*
X47520432Y40113732D01*
X47520822Y40114234D01*
X47520825Y40114236D01*
X47668472Y40303933D01*
X47782882Y40515344D01*
X47860934Y40742703D01*
X47900500Y40979808D01*
X47900500Y41220192D01*
X47860934Y41457297D01*
X47782882Y41684656D01*
X47668472Y41896067D01*
X47520825Y42085764D01*
X47343969Y42248571D01*
X47142728Y42380049D01*
X47142725Y42380051D01*
X47142724Y42380051D01*
X46922594Y42476609D01*
X46922587Y42476612D01*
X46689570Y42535619D01*
X46689565Y42535620D01*
X46689563Y42535620D01*
X46560805Y42546290D01*
X46509992Y42550500D01*
X46509990Y42550500D01*
X45090010Y42550500D01*
X45090008Y42550500D01*
X45030819Y42545596D01*
X44910437Y42535620D01*
X44910435Y42535620D01*
X44910429Y42535619D01*
X44677412Y42476612D01*
X44677405Y42476609D01*
X44457275Y42380051D01*
X44256028Y42248569D01*
X44079177Y42085767D01*
X43931528Y41896068D01*
X43931527Y41896067D01*
X43817117Y41684656D01*
X43817116Y41684654D01*
X43739067Y41457302D01*
X43739065Y41457295D01*
X43719300Y41338851D01*
X43699500Y41220192D01*
X43699500Y40979808D01*
X43724250Y40831485D01*
X43739065Y40742706D01*
X43739067Y40742699D01*
X43817116Y40515347D01*
X43817117Y40515345D01*
X43931527Y40303934D01*
X43931528Y40303933D01*
X44079567Y40113733D01*
X44105623Y40047690D01*
X44098191Y39992311D01*
X44048505Y39859096D01*
X44042000Y39798598D01*
X44042000Y39254000D01*
X45427032Y39254000D01*
X45376375Y39166260D01*
X45346190Y39034008D01*
X45356327Y38898735D01*
X45405887Y38772459D01*
X45426987Y38746000D01*
X44042000Y38746000D01*
X44042000Y38201403D01*
X44048505Y38140907D01*
X44099555Y38004036D01*
X44099555Y38004035D01*
X44187095Y37887096D01*
X44304034Y37799556D01*
X44318204Y37794271D01*
X44375040Y37751724D01*
X44399851Y37685204D01*
X44384760Y37615830D01*
X44383291Y37613215D01*
X44294396Y37459245D01*
X44294395Y37459243D01*
X44290047Y37446681D01*
X44248861Y37388852D01*
X44225651Y37374378D01*
X44193359Y37358827D01*
X44186331Y37354035D01*
X44179462Y37348966D01*
X44137413Y37306917D01*
X44093808Y37266458D01*
X44087919Y37259073D01*
X44087244Y37259611D01*
X44077779Y37247284D01*
X42881843Y36051347D01*
X42876572Y36046636D01*
X42846030Y36022280D01*
X42812519Y35973129D01*
X42777204Y35925280D01*
X42773215Y35917731D01*
X42769527Y35910072D01*
X42751992Y35853223D01*
X42732354Y35797099D01*
X42730766Y35788712D01*
X42729500Y35780304D01*
X42729500Y35720826D01*
X42727276Y35661389D01*
X42728333Y35652010D01*
X42727470Y35651913D01*
X42729500Y35636504D01*
X42729500Y32540844D01*
X42729104Y32533788D01*
X42725423Y32501117D01*
X42724730Y32494964D01*
X42735788Y32436522D01*
X42744653Y32377709D01*
X42747160Y32369579D01*
X42749978Y32361526D01*
X42777776Y32308928D01*
X42803575Y32255357D01*
X42808386Y32248301D01*
X42813435Y32241460D01*
X42855495Y32199401D01*
X42891615Y32160472D01*
X42895945Y32155806D01*
X42895946Y32155805D01*
X42903329Y32149918D01*
X42902788Y32149240D01*
X42915117Y32139779D01*
X44622995Y30431902D01*
X44657020Y30369590D01*
X44659900Y30342807D01*
X44659900Y10398794D01*
X44639898Y10330673D01*
X44622995Y10309699D01*
X42827102Y8513805D01*
X42764790Y8479780D01*
X42738007Y8476900D01*
X38393690Y8476900D01*
X38325569Y8496902D01*
X38279076Y8550558D01*
X38268972Y8620832D01*
X38298466Y8685412D01*
X38304595Y8691995D01*
X39025195Y9412595D01*
X39087507Y9446621D01*
X39114290Y9449500D01*
X39384423Y9449500D01*
X39432640Y9439910D01*
X39553238Y9389956D01*
X39670639Y9374500D01*
X40449360Y9374501D01*
X40566762Y9389956D01*
X40712841Y9450464D01*
X40838282Y9546718D01*
X40934536Y9672159D01*
X40934537Y9672163D01*
X40938518Y9679058D01*
X40989896Y9728056D01*
X41059609Y9741497D01*
X41125522Y9715116D01*
X41146685Y9693955D01*
X41254455Y9556915D01*
X41254460Y9556909D01*
X41414374Y9418344D01*
X41414375Y9418343D01*
X41597622Y9312546D01*
X41597631Y9312542D01*
X41797584Y9243338D01*
X41797590Y9243336D01*
X41806000Y9242127D01*
X41806000Y10322497D01*
X41879052Y10265637D01*
X41997424Y10225000D01*
X42091073Y10225000D01*
X42183446Y10240414D01*
X42293514Y10299981D01*
X42314000Y10322235D01*
X42314000Y9246481D01*
X42424038Y9273176D01*
X42424045Y9273178D01*
X42616515Y9361078D01*
X42616519Y9361080D01*
X42788887Y9483822D01*
X42788888Y9483823D01*
X42934909Y9636965D01*
X42934910Y9636966D01*
X43049308Y9814976D01*
X43049311Y9814981D01*
X43127952Y10011415D01*
X43127953Y10011421D01*
X43167999Y10219195D01*
X43168000Y10219204D01*
X43168000Y10346000D01*
X42335878Y10346000D01*
X42378278Y10392059D01*
X42428551Y10506670D01*
X42438886Y10631395D01*
X42408163Y10752719D01*
X42341992Y10854000D01*
X43168000Y10854000D01*
X43168000Y10927780D01*
X43167998Y10927801D01*
X43152927Y11085634D01*
X43152924Y11085649D01*
X43093310Y11288678D01*
X42996349Y11476755D01*
X42865544Y11643086D01*
X42865539Y11643092D01*
X42705625Y11781657D01*
X42705624Y11781658D01*
X42522377Y11887455D01*
X42522368Y11887459D01*
X42322413Y11956664D01*
X42322405Y11956666D01*
X42314000Y11957876D01*
X42314000Y10877504D01*
X42240948Y10934363D01*
X42122576Y10975000D01*
X42028927Y10975000D01*
X41936554Y10959586D01*
X41826486Y10900019D01*
X41806000Y10877766D01*
X41806000Y11953521D01*
X41695961Y11926825D01*
X41695952Y11926822D01*
X41503484Y11838923D01*
X41503480Y11838921D01*
X41331112Y11716179D01*
X41331111Y11716178D01*
X41185091Y11563037D01*
X41154097Y11514808D01*
X41100441Y11468315D01*
X41030167Y11458211D01*
X40965587Y11487705D01*
X40940873Y11521968D01*
X40938663Y11520691D01*
X40934538Y11527836D01*
X40934536Y11527841D01*
X40838282Y11653282D01*
X40712841Y11749536D01*
X40635295Y11781657D01*
X40566760Y11810045D01*
X40490332Y11820107D01*
X40449361Y11825500D01*
X40449358Y11825500D01*
X39670640Y11825500D01*
X39670631Y11825499D01*
X39564978Y11811590D01*
X39553238Y11810044D01*
X39432641Y11760091D01*
X39384423Y11750500D01*
X38613597Y11750500D01*
X38610687Y11750567D01*
X38532186Y11754196D01*
X38532182Y11754196D01*
X38454360Y11743341D01*
X38451470Y11743006D01*
X38373246Y11735758D01*
X38373235Y11735756D01*
X38351717Y11729634D01*
X38343177Y11727832D01*
X38321019Y11724741D01*
X38321013Y11724740D01*
X38321012Y11724739D01*
X38289443Y11714159D01*
X38246516Y11699771D01*
X38243737Y11698911D01*
X38168162Y11677408D01*
X38168159Y11677406D01*
X38148131Y11667434D01*
X38140066Y11664093D01*
X38118852Y11656983D01*
X38050210Y11618751D01*
X38047637Y11617394D01*
X37977297Y11582369D01*
X37977294Y11582367D01*
X37959440Y11568885D01*
X37952127Y11564120D01*
X37932574Y11553228D01*
X37932573Y11553227D01*
X37872108Y11503019D01*
X37869828Y11501213D01*
X37807140Y11453872D01*
X37807138Y11453870D01*
X37754190Y11395790D01*
X37752181Y11393686D01*
X34839938Y8481445D01*
X34839936Y8481442D01*
X33006303Y6647809D01*
X33004199Y6645800D01*
X32946126Y6592858D01*
X32898784Y6530170D01*
X32896979Y6527891D01*
X32846775Y6467431D01*
X32846773Y6467429D01*
X32835880Y6447873D01*
X32831115Y6440560D01*
X32817633Y6422706D01*
X32817631Y6422703D01*
X32782606Y6352363D01*
X32781249Y6349790D01*
X32743017Y6281148D01*
X32735907Y6259934D01*
X32732566Y6251869D01*
X32722594Y6231841D01*
X32722592Y6231838D01*
X32701089Y6156263D01*
X32700229Y6153484D01*
X32675261Y6078987D01*
X32675259Y6078981D01*
X32672168Y6056823D01*
X32670366Y6048283D01*
X32664244Y6026765D01*
X32663173Y6021032D01*
X32661306Y6021382D01*
X32638273Y5963405D01*
X32580549Y5922072D01*
X32509642Y5918507D01*
X32467819Y5937083D01*
X32362236Y6009409D01*
X32167186Y6095532D01*
X32167187Y6095532D01*
X31959629Y6144350D01*
X31746638Y6154196D01*
X31746635Y6154195D01*
X31535462Y6124739D01*
X31333301Y6056981D01*
X31147022Y5953225D01*
X31024080Y5851135D01*
X29500430Y4327485D01*
X29445818Y4295391D01*
X29382614Y4277408D01*
X29382611Y4277406D01*
X29362583Y4267434D01*
X29354518Y4264093D01*
X29333304Y4256983D01*
X29264662Y4218751D01*
X29262089Y4217394D01*
X29191749Y4182369D01*
X29191746Y4182367D01*
X29173892Y4168885D01*
X29166579Y4164120D01*
X29147023Y4153227D01*
X29147021Y4153225D01*
X29086561Y4103021D01*
X29084282Y4101216D01*
X29021594Y4053874D01*
X28968662Y3995812D01*
X28966653Y3993708D01*
X28649552Y3676605D01*
X28587240Y3642580D01*
X28560456Y3639700D01*
X12822343Y3639700D01*
X12754222Y3659702D01*
X12733248Y3676605D01*
X11787405Y4622448D01*
X11753379Y4684760D01*
X11750500Y4711543D01*
X11750500Y5554000D01*
X12213437Y5554000D01*
X13268884Y5554000D01*
X13240507Y5509844D01*
X13200000Y5371889D01*
X13200000Y5228111D01*
X13240507Y5090156D01*
X13268884Y5046000D01*
X12215561Y5046000D01*
X12246831Y4900907D01*
X12333022Y4686413D01*
X12454227Y4489565D01*
X12606951Y4316039D01*
X12606954Y4316036D01*
X12786800Y4170820D01*
X12988617Y4058078D01*
X13206570Y3981069D01*
X13434420Y3942000D01*
X13446000Y3942000D01*
X13446000Y4866326D01*
X13557685Y4815320D01*
X13664237Y4800000D01*
X13735763Y4800000D01*
X13842315Y4815320D01*
X13954000Y4866326D01*
X13954000Y3945943D01*
X14080331Y3956694D01*
X14080338Y3956696D01*
X14304033Y4014941D01*
X14514678Y4110158D01*
X14514684Y4110161D01*
X14706205Y4239607D01*
X14706213Y4239613D01*
X14873096Y4399557D01*
X14873102Y4399565D01*
X15010556Y4585414D01*
X15114630Y4791835D01*
X15182320Y5012865D01*
X15186563Y5046000D01*
X14131116Y5046000D01*
X14159493Y5090156D01*
X14200000Y5228111D01*
X14200000Y5371889D01*
X14159493Y5509844D01*
X14131116Y5554000D01*
X15184439Y5554000D01*
X15153168Y5699094D01*
X15066977Y5913588D01*
X14945772Y6110436D01*
X14793050Y6283960D01*
X14623990Y6420466D01*
X14583556Y6478823D01*
X14581090Y6549777D01*
X14617376Y6610800D01*
X14654923Y6634906D01*
X14752841Y6675464D01*
X14878282Y6771718D01*
X14974536Y6897159D01*
X15035044Y7043238D01*
X15050500Y7160639D01*
X15050499Y7178987D01*
X15070498Y7247106D01*
X15124152Y7293601D01*
X15159493Y7303837D01*
X15164812Y7304562D01*
X15173393Y7305730D01*
X15206962Y7309381D01*
X15253908Y7314486D01*
X15253909Y7314487D01*
X15253913Y7314487D01*
X15256349Y7315024D01*
X15274026Y7319166D01*
X15276471Y7319774D01*
X15336344Y7341771D01*
X15379796Y7349501D01*
X15806982Y7349501D01*
X15849885Y7340056D01*
X15850356Y7341451D01*
X15856829Y7339271D01*
X15856835Y7339268D01*
X15935928Y7321859D01*
X16014507Y7302316D01*
X16014510Y7302316D01*
X16016908Y7301989D01*
X16035019Y7299771D01*
X16037503Y7299501D01*
X16037505Y7299500D01*
X16037507Y7299500D01*
X16118471Y7299500D01*
X16199434Y7297307D01*
X16199434Y7297308D01*
X16199437Y7297307D01*
X16201770Y7297497D01*
X16222843Y7299500D01*
X24562877Y7299500D01*
X24567985Y7299293D01*
X24592367Y7297307D01*
X24623163Y7294799D01*
X24623164Y7294800D01*
X24623167Y7294799D01*
X24703392Y7305730D01*
X24783910Y7314486D01*
X24783911Y7314487D01*
X24783916Y7314487D01*
X24786351Y7315024D01*
X24804028Y7319166D01*
X24806463Y7319773D01*
X24806468Y7319773D01*
X24882486Y7347701D01*
X24959221Y7373556D01*
X24959224Y7373559D01*
X24961482Y7374603D01*
X24977922Y7382481D01*
X24980108Y7383566D01*
X24980116Y7383568D01*
X25001074Y7396965D01*
X25048353Y7427184D01*
X25082898Y7447970D01*
X25117736Y7468930D01*
X25117745Y7468940D01*
X25119713Y7470434D01*
X25134056Y7481647D01*
X25135982Y7483197D01*
X25135989Y7483200D01*
X25193249Y7540461D01*
X25252041Y7596151D01*
X25252047Y7596161D01*
X25253622Y7598014D01*
X25267041Y7614254D01*
X29475614Y11822828D01*
X29475619Y11822831D01*
X29485987Y11833200D01*
X29485989Y11833200D01*
X29525160Y11872373D01*
X29528884Y11875806D01*
X29571100Y11911663D01*
X29589595Y11935994D01*
X29595184Y11942397D01*
X30533984Y12881197D01*
X30596294Y12915220D01*
X30623077Y12918099D01*
X38531476Y12918099D01*
X38536584Y12917892D01*
X38559443Y12916030D01*
X38591762Y12913398D01*
X38591763Y12913399D01*
X38591766Y12913398D01*
X38671991Y12924329D01*
X38752509Y12933085D01*
X38752510Y12933086D01*
X38752515Y12933086D01*
X38754950Y12933623D01*
X38772627Y12937765D01*
X38775062Y12938372D01*
X38775067Y12938372D01*
X38851085Y12966300D01*
X38927820Y12992155D01*
X38927823Y12992158D01*
X38930081Y12993202D01*
X38946521Y13001080D01*
X38948707Y13002165D01*
X38948715Y13002167D01*
X38969673Y13015564D01*
X39016952Y13045783D01*
X39051497Y13066569D01*
X39086335Y13087529D01*
X39086344Y13087539D01*
X39088312Y13089033D01*
X39102655Y13100246D01*
X39104581Y13101796D01*
X39104588Y13101799D01*
X39161848Y13159060D01*
X39220640Y13214750D01*
X39220646Y13214760D01*
X39222221Y13216613D01*
X39235640Y13232853D01*
X40961166Y14958379D01*
X40964891Y14961812D01*
X41007100Y14997663D01*
X41056090Y15062109D01*
X41106842Y15125246D01*
X41106846Y15125257D01*
X41108192Y15127360D01*
X41117746Y15142763D01*
X41119051Y15144933D01*
X41119054Y15144936D01*
X41135488Y15180457D01*
X41153060Y15218440D01*
X41156764Y15225909D01*
X41189036Y15290979D01*
X41189038Y15290989D01*
X41189949Y15293469D01*
X41195958Y15310535D01*
X41196728Y15312823D01*
X41196728Y15312826D01*
X41196732Y15312833D01*
X41214141Y15391927D01*
X41233684Y15470505D01*
X41233684Y15470510D01*
X41234010Y15472898D01*
X41236226Y15490992D01*
X41236498Y15493499D01*
X41236500Y15493503D01*
X41236500Y15574469D01*
X41238693Y15655432D01*
X41238692Y15655433D01*
X41238693Y15655436D01*
X41238500Y15657801D01*
X41236500Y15678842D01*
X41236500Y15859227D01*
X41256502Y15927348D01*
X41273306Y15947241D01*
X41273061Y15947464D01*
X41276983Y15951766D01*
X41329996Y16021967D01*
X41411058Y16129311D01*
X41411059Y16129315D01*
X41411061Y16129316D01*
X41510225Y16328463D01*
X41510226Y16328467D01*
X41510229Y16328472D01*
X41534809Y16414865D01*
X41572690Y16474912D01*
X41637021Y16504946D01*
X41707377Y16495433D01*
X41761422Y16449393D01*
X41777190Y16414865D01*
X41801768Y16328480D01*
X41801774Y16328463D01*
X41900938Y16129316D01*
X41900942Y16129311D01*
X42035017Y15951765D01*
X42199438Y15801876D01*
X42199439Y15801875D01*
X42388587Y15684760D01*
X42388590Y15684759D01*
X42388599Y15684753D01*
X42446286Y15662405D01*
X42596053Y15604384D01*
X42596056Y15604384D01*
X42596060Y15604382D01*
X42814757Y15563500D01*
X42814760Y15563500D01*
X43037240Y15563500D01*
X43037243Y15563500D01*
X43255940Y15604382D01*
X43255944Y15604384D01*
X43255946Y15604384D01*
X43317886Y15628380D01*
X43463401Y15684753D01*
X43652562Y15801876D01*
X43816981Y15951764D01*
X43820839Y15956872D01*
X43843352Y15986686D01*
X43951058Y16129311D01*
X43951059Y16129315D01*
X43951061Y16129316D01*
X44050225Y16328463D01*
X44050226Y16328467D01*
X44050229Y16328472D01*
X44111115Y16542464D01*
X44131643Y16764000D01*
X44111115Y16985536D01*
X44108287Y16995474D01*
X44050231Y17199521D01*
X44050230Y17199522D01*
X44050229Y17199528D01*
X44050227Y17199532D01*
X44050225Y17199538D01*
X43951061Y17398685D01*
X43951057Y17398690D01*
X43816982Y17576236D01*
X43652561Y17726125D01*
X43652560Y17726126D01*
X43463412Y17843241D01*
X43463405Y17843245D01*
X43463401Y17843247D01*
X43420247Y17859965D01*
X43274291Y17916509D01*
X43217996Y17959768D01*
X43194026Y18026596D01*
X43209990Y18095774D01*
X43260821Y18145340D01*
X43274291Y18151491D01*
X43327638Y18172158D01*
X43463401Y18224753D01*
X43652562Y18341876D01*
X43816981Y18491764D01*
X43818082Y18493221D01*
X43847759Y18532521D01*
X43951058Y18669311D01*
X43951059Y18669315D01*
X43951061Y18669316D01*
X44050225Y18868463D01*
X44050226Y18868467D01*
X44050229Y18868472D01*
X44111115Y19082464D01*
X44131643Y19304000D01*
X44111115Y19525536D01*
X44050229Y19739528D01*
X44050227Y19739532D01*
X44050225Y19739538D01*
X43951061Y19938685D01*
X43951057Y19938690D01*
X43948964Y19941461D01*
X43907350Y19996568D01*
X43816982Y20116236D01*
X43652561Y20266125D01*
X43652560Y20266126D01*
X43463412Y20383241D01*
X43463405Y20383245D01*
X43463401Y20383247D01*
X43463396Y20383249D01*
X43255946Y20463617D01*
X43216972Y20470903D01*
X43037243Y20504500D01*
X42814757Y20504500D01*
X42673674Y20478127D01*
X42596053Y20463617D01*
X42388603Y20383249D01*
X42388587Y20383241D01*
X42199439Y20266126D01*
X42199438Y20266125D01*
X42035017Y20116236D01*
X41900942Y19938690D01*
X41900938Y19938685D01*
X41801774Y19739538D01*
X41801768Y19739521D01*
X41777190Y19653136D01*
X41739310Y19593089D01*
X41674979Y19563055D01*
X41604622Y19572568D01*
X41550578Y19618608D01*
X41534810Y19653136D01*
X41510231Y19739521D01*
X41510225Y19739538D01*
X41411061Y19938685D01*
X41411057Y19938690D01*
X41408964Y19941461D01*
X41367350Y19996568D01*
X41276982Y20116236D01*
X41112561Y20266125D01*
X41112560Y20266126D01*
X40923412Y20383241D01*
X40923405Y20383245D01*
X40923401Y20383247D01*
X40923396Y20383249D01*
X40715946Y20463617D01*
X40676972Y20470903D01*
X40497243Y20504500D01*
X40274757Y20504500D01*
X40133674Y20478127D01*
X40056053Y20463617D01*
X39848603Y20383249D01*
X39848587Y20383241D01*
X39659439Y20266126D01*
X39659438Y20266125D01*
X39495017Y20116236D01*
X39360942Y19938690D01*
X39360938Y19938685D01*
X39261774Y19739538D01*
X39261768Y19739521D01*
X39237190Y19653136D01*
X39199310Y19593089D01*
X39134979Y19563055D01*
X39064622Y19572568D01*
X39010578Y19618608D01*
X38994810Y19653136D01*
X38970231Y19739521D01*
X38970225Y19739538D01*
X38871061Y19938685D01*
X38871057Y19938690D01*
X38868964Y19941461D01*
X38827350Y19996568D01*
X38736982Y20116236D01*
X38572561Y20266125D01*
X38572560Y20266126D01*
X38383412Y20383241D01*
X38383405Y20383245D01*
X38383401Y20383247D01*
X38383396Y20383249D01*
X38175946Y20463617D01*
X38136972Y20470903D01*
X37957243Y20504500D01*
X37734757Y20504500D01*
X37593674Y20478127D01*
X37516053Y20463617D01*
X37308603Y20383249D01*
X37308587Y20383241D01*
X37119439Y20266126D01*
X37119438Y20266125D01*
X36955017Y20116236D01*
X36820942Y19938690D01*
X36820938Y19938685D01*
X36721774Y19739538D01*
X36721768Y19739521D01*
X36660885Y19525540D01*
X36640357Y19304001D01*
X36660885Y19082461D01*
X36721768Y18868480D01*
X36721774Y18868463D01*
X36820938Y18669316D01*
X36820942Y18669311D01*
X36955017Y18491765D01*
X37120272Y18341115D01*
X37157138Y18280441D01*
X37155349Y18209467D01*
X37115473Y18150727D01*
X37050169Y18122870D01*
X37035386Y18122000D01*
X36947402Y18122000D01*
X36886906Y18115495D01*
X36750035Y18064445D01*
X36750034Y18064445D01*
X36633095Y17976905D01*
X36545555Y17859966D01*
X36545555Y17859965D01*
X36494505Y17723094D01*
X36488000Y17662598D01*
X36488000Y17018000D01*
X37414884Y17018000D01*
X37386507Y16973844D01*
X37346000Y16835889D01*
X37346000Y16692111D01*
X37386507Y16554156D01*
X37414884Y16510000D01*
X36488000Y16510000D01*
X36488000Y15865403D01*
X36494505Y15804907D01*
X36545555Y15668036D01*
X36545555Y15668035D01*
X36633095Y15551096D01*
X36750034Y15463556D01*
X36886906Y15412506D01*
X36947402Y15406001D01*
X36947415Y15406000D01*
X37592000Y15406000D01*
X37592000Y16330326D01*
X37703685Y16279320D01*
X37810237Y16264000D01*
X37881763Y16264000D01*
X37988315Y16279320D01*
X38100000Y16330326D01*
X38100000Y15406000D01*
X38699021Y15406000D01*
X38767142Y15385998D01*
X38813635Y15332342D01*
X38823739Y15262068D01*
X38794245Y15197488D01*
X38788116Y15190905D01*
X38253215Y14656004D01*
X38190903Y14621978D01*
X38164120Y14619099D01*
X35856113Y14619099D01*
X35787992Y14639101D01*
X35741499Y14692757D01*
X35739704Y14696881D01*
X35693537Y14808339D01*
X35693536Y14808340D01*
X35693536Y14808341D01*
X35597282Y14933782D01*
X35471841Y15030036D01*
X35471840Y15030037D01*
X35471837Y15030039D01*
X35325761Y15090544D01*
X35208362Y15106000D01*
X35208360Y15106000D01*
X33879640Y15106000D01*
X33879637Y15106000D01*
X33762238Y15090544D01*
X33616162Y15030039D01*
X33525102Y14960166D01*
X33490718Y14933782D01*
X33396545Y14811052D01*
X33389437Y14801789D01*
X33386990Y14803666D01*
X33346177Y14764800D01*
X33276454Y14751409D01*
X33210560Y14777839D01*
X33172104Y14828614D01*
X33153538Y14873438D01*
X33153536Y14873441D01*
X33057282Y14998882D01*
X32931841Y15095136D01*
X32931840Y15095137D01*
X32931837Y15095139D01*
X32785761Y15155644D01*
X32668362Y15171100D01*
X32668360Y15171100D01*
X31339640Y15171100D01*
X31339637Y15171100D01*
X31222238Y15155644D01*
X31076162Y15095139D01*
X30950718Y14998882D01*
X30854461Y14873438D01*
X30793955Y14727360D01*
X30791818Y14719383D01*
X30790216Y14719813D01*
X30765402Y14663724D01*
X30706136Y14624633D01*
X30669204Y14619099D01*
X30255722Y14619099D01*
X30250613Y14619307D01*
X30240097Y14620163D01*
X30195435Y14623801D01*
X30195433Y14623801D01*
X30115206Y14612870D01*
X30034691Y14604114D01*
X30032451Y14603621D01*
X30014411Y14599394D01*
X30012135Y14598828D01*
X29950549Y14576203D01*
X29879709Y14571488D01*
X29817565Y14605821D01*
X29783849Y14668301D01*
X29781100Y14694475D01*
X29781100Y16829100D01*
X30621001Y16829100D01*
X30621001Y16570093D01*
X30631605Y16466282D01*
X30687342Y16298075D01*
X30780366Y16147261D01*
X30780371Y16147255D01*
X30905654Y16021972D01*
X30905660Y16021967D01*
X31056474Y15928943D01*
X31224678Y15873207D01*
X31224682Y15873206D01*
X31328484Y15862601D01*
X31750000Y15862601D01*
X31750000Y16829100D01*
X32258000Y16829100D01*
X32258000Y15862601D01*
X32679507Y15862601D01*
X32783318Y15873206D01*
X32951525Y15928943D01*
X33102339Y16021967D01*
X33102345Y16021972D01*
X33152355Y16071981D01*
X33214667Y16106007D01*
X33285482Y16100942D01*
X33330545Y16071981D01*
X33445654Y15956872D01*
X33445660Y15956867D01*
X33596474Y15863843D01*
X33764678Y15808107D01*
X33764682Y15808106D01*
X33868484Y15797501D01*
X34290000Y15797501D01*
X34290000Y16764000D01*
X34798000Y16764000D01*
X34798000Y15797501D01*
X35219507Y15797501D01*
X35323318Y15808106D01*
X35491525Y15863843D01*
X35642339Y15956867D01*
X35642345Y15956872D01*
X35767628Y16082155D01*
X35767633Y16082161D01*
X35860657Y16232975D01*
X35916393Y16401179D01*
X35916394Y16401182D01*
X35926999Y16504985D01*
X35927000Y16504985D01*
X35927000Y16764000D01*
X34798000Y16764000D01*
X34290000Y16764000D01*
X33238291Y16764000D01*
X33170170Y16784002D01*
X33149196Y16800905D01*
X33121001Y16829100D01*
X32258000Y16829100D01*
X31750000Y16829100D01*
X30621001Y16829100D01*
X29781100Y16829100D01*
X29781100Y17337100D01*
X30621000Y17337100D01*
X31750000Y17337100D01*
X31750000Y18303600D01*
X32258000Y18303600D01*
X32258000Y17337100D01*
X33309709Y17337100D01*
X33377830Y17317098D01*
X33398804Y17300195D01*
X33426999Y17272000D01*
X34290000Y17272000D01*
X34290000Y18238500D01*
X34798000Y18238500D01*
X34798000Y17272000D01*
X35926999Y17272000D01*
X35926999Y17531008D01*
X35916394Y17634819D01*
X35860657Y17803026D01*
X35767633Y17953840D01*
X35767628Y17953846D01*
X35642345Y18079129D01*
X35642339Y18079134D01*
X35491525Y18172158D01*
X35323321Y18227894D01*
X35323318Y18227895D01*
X35219515Y18238500D01*
X34798000Y18238500D01*
X34290000Y18238500D01*
X33868492Y18238500D01*
X33764681Y18227895D01*
X33596474Y18172158D01*
X33445660Y18079134D01*
X33445654Y18079129D01*
X33395645Y18029119D01*
X33333333Y17995093D01*
X33262518Y18000158D01*
X33217455Y18029119D01*
X33102345Y18144229D01*
X33102339Y18144234D01*
X32951525Y18237258D01*
X32783321Y18292994D01*
X32783318Y18292995D01*
X32679515Y18303600D01*
X32258000Y18303600D01*
X31750000Y18303600D01*
X31328492Y18303600D01*
X31224681Y18292995D01*
X31056474Y18237258D01*
X30905660Y18144234D01*
X30905654Y18144229D01*
X30780371Y18018946D01*
X30780366Y18018940D01*
X30687342Y17868126D01*
X30631606Y17699922D01*
X30631605Y17699919D01*
X30621000Y17596116D01*
X30621000Y17337100D01*
X29781100Y17337100D01*
X29781100Y17431266D01*
X29784825Y17461676D01*
X29803684Y17537507D01*
X29804010Y17539898D01*
X29806226Y17557992D01*
X29806498Y17560498D01*
X29806500Y17560503D01*
X29806500Y17641469D01*
X29808693Y17722432D01*
X29808692Y17722433D01*
X29808693Y17722436D01*
X29808500Y17724801D01*
X29806500Y17745842D01*
X29806500Y19661521D01*
X29826502Y19729642D01*
X29843405Y19750616D01*
X31608184Y21515395D01*
X31670496Y21549421D01*
X31697279Y21552300D01*
X39307477Y21552300D01*
X39312585Y21552093D01*
X39338708Y21549966D01*
X39367763Y21547599D01*
X39367764Y21547600D01*
X39367767Y21547599D01*
X39447992Y21558530D01*
X39528510Y21567286D01*
X39528511Y21567287D01*
X39528516Y21567287D01*
X39530951Y21567824D01*
X39548628Y21571966D01*
X39551063Y21572573D01*
X39551068Y21572573D01*
X39627086Y21600501D01*
X39703821Y21626356D01*
X39703824Y21626359D01*
X39706082Y21627403D01*
X39722522Y21635281D01*
X39724708Y21636366D01*
X39724716Y21636368D01*
X39756706Y21656816D01*
X39792953Y21679984D01*
X39827498Y21700770D01*
X39862336Y21721730D01*
X39862345Y21721740D01*
X39864313Y21723234D01*
X39878656Y21734447D01*
X39880582Y21735997D01*
X39880589Y21736000D01*
X39937849Y21793261D01*
X39996641Y21848951D01*
X39996647Y21848961D01*
X39998222Y21850814D01*
X40011641Y21867054D01*
X40961166Y22816579D01*
X40964891Y22820012D01*
X41007100Y22855863D01*
X41056090Y22920309D01*
X41106842Y22983446D01*
X41106846Y22983457D01*
X41108192Y22985560D01*
X41117746Y23000963D01*
X41119051Y23003133D01*
X41119054Y23003136D01*
X41123321Y23012358D01*
X41153060Y23076640D01*
X41174355Y23119578D01*
X41189036Y23149179D01*
X41189038Y23149189D01*
X41189949Y23151669D01*
X41195958Y23168735D01*
X41196728Y23171023D01*
X41196728Y23171026D01*
X41196732Y23171033D01*
X41214141Y23250127D01*
X41233684Y23328705D01*
X41233684Y23328710D01*
X41234010Y23331098D01*
X41236226Y23349192D01*
X41236498Y23351698D01*
X41236500Y23351703D01*
X41236500Y23432669D01*
X41237886Y23483862D01*
X41259725Y23551414D01*
X41273396Y23567159D01*
X41273061Y23567464D01*
X41276983Y23571766D01*
X41335156Y23648800D01*
X41411058Y23749311D01*
X41411059Y23749315D01*
X41411061Y23749316D01*
X41510225Y23948463D01*
X41510226Y23948467D01*
X41510229Y23948472D01*
X41534809Y24034865D01*
X41572690Y24094912D01*
X41637021Y24124946D01*
X41707377Y24115433D01*
X41761422Y24069393D01*
X41777190Y24034865D01*
X41801768Y23948480D01*
X41801774Y23948463D01*
X41900938Y23749316D01*
X41900942Y23749311D01*
X42035017Y23571765D01*
X42199438Y23421876D01*
X42199439Y23421875D01*
X42388587Y23304760D01*
X42388590Y23304759D01*
X42388599Y23304753D01*
X42469783Y23273302D01*
X42596053Y23224384D01*
X42596056Y23224384D01*
X42596060Y23224382D01*
X42814757Y23183500D01*
X42814760Y23183500D01*
X43037240Y23183500D01*
X43037243Y23183500D01*
X43255940Y23224382D01*
X43255944Y23224384D01*
X43255946Y23224384D01*
X43322566Y23250193D01*
X43463401Y23304753D01*
X43652562Y23421876D01*
X43816981Y23571764D01*
X43951058Y23749311D01*
X43951059Y23749315D01*
X43951061Y23749316D01*
X44050225Y23948463D01*
X44050226Y23948467D01*
X44050229Y23948472D01*
X44111115Y24162464D01*
X44131643Y24384000D01*
X44111115Y24605536D01*
X44050229Y24819528D01*
X44050227Y24819532D01*
X44050225Y24819538D01*
X43951061Y25018685D01*
X43951057Y25018690D01*
X43816982Y25196236D01*
X43652561Y25346125D01*
X43652560Y25346126D01*
X43463412Y25463241D01*
X43463405Y25463245D01*
X43463401Y25463247D01*
X43420247Y25479965D01*
X43274291Y25536509D01*
X43217996Y25579768D01*
X43194026Y25646596D01*
X43209990Y25715774D01*
X43260821Y25765340D01*
X43274291Y25771491D01*
X43334744Y25794911D01*
X43463401Y25844753D01*
X43652562Y25961876D01*
X43816981Y26111764D01*
X43835005Y26135631D01*
X43850998Y26156810D01*
X43951058Y26289311D01*
X43951059Y26289315D01*
X43951061Y26289316D01*
X44050225Y26488463D01*
X44050226Y26488467D01*
X44050229Y26488472D01*
X44111115Y26702464D01*
X44131643Y26924000D01*
X44111115Y27145536D01*
X44084633Y27238609D01*
X44050231Y27359521D01*
X44050230Y27359522D01*
X44050229Y27359528D01*
X44050227Y27359532D01*
X44050225Y27359538D01*
X43951061Y27558685D01*
X43951057Y27558690D01*
X43927954Y27589283D01*
X43915711Y27605496D01*
X43816982Y27736236D01*
X43652561Y27886125D01*
X43652560Y27886126D01*
X43463412Y28003241D01*
X43463405Y28003245D01*
X43463401Y28003247D01*
X43449607Y28008591D01*
X43255946Y28083617D01*
X43216972Y28090903D01*
X43037243Y28124500D01*
X42814757Y28124500D01*
X42673674Y28098127D01*
X42596053Y28083617D01*
X42388603Y28003249D01*
X42388587Y28003241D01*
X42199439Y27886126D01*
X42199438Y27886125D01*
X42035017Y27736236D01*
X41900942Y27558690D01*
X41900938Y27558685D01*
X41801774Y27359538D01*
X41801770Y27359526D01*
X41777189Y27273134D01*
X41739308Y27213088D01*
X41674977Y27183054D01*
X41604620Y27192568D01*
X41550576Y27238609D01*
X41534809Y27273135D01*
X41523581Y27312601D01*
X41510232Y27359519D01*
X41510230Y27359525D01*
X41510229Y27359528D01*
X41510227Y27359531D01*
X41510225Y27359538D01*
X41411061Y27558685D01*
X41411057Y27558690D01*
X41387954Y27589283D01*
X41375711Y27605496D01*
X41276982Y27736236D01*
X41112561Y27886125D01*
X41112560Y27886126D01*
X40923412Y28003241D01*
X40923405Y28003245D01*
X40923401Y28003247D01*
X40909607Y28008591D01*
X40715946Y28083617D01*
X40676972Y28090903D01*
X40497243Y28124500D01*
X40274757Y28124500D01*
X40133674Y28098127D01*
X40056053Y28083617D01*
X39848603Y28003249D01*
X39848587Y28003241D01*
X39659439Y27886126D01*
X39659438Y27886125D01*
X39495017Y27736236D01*
X39360942Y27558690D01*
X39360938Y27558685D01*
X39261774Y27359538D01*
X39261768Y27359521D01*
X39237190Y27273136D01*
X39199310Y27213089D01*
X39134979Y27183055D01*
X39064622Y27192568D01*
X39010578Y27238608D01*
X38994810Y27273136D01*
X38970231Y27359521D01*
X38970230Y27359522D01*
X38970229Y27359528D01*
X38970227Y27359532D01*
X38970225Y27359538D01*
X38871061Y27558685D01*
X38871057Y27558690D01*
X38847954Y27589283D01*
X38835711Y27605496D01*
X38736982Y27736236D01*
X38572561Y27886125D01*
X38572560Y27886126D01*
X38383412Y28003241D01*
X38383405Y28003245D01*
X38383401Y28003247D01*
X38369607Y28008591D01*
X38175946Y28083617D01*
X38136972Y28090903D01*
X37957243Y28124500D01*
X37734757Y28124500D01*
X37593674Y28098127D01*
X37516053Y28083617D01*
X37308603Y28003249D01*
X37308587Y28003241D01*
X37119439Y27886126D01*
X37119438Y27886125D01*
X36955017Y27736236D01*
X36820942Y27558690D01*
X36820938Y27558685D01*
X36721774Y27359538D01*
X36721768Y27359521D01*
X36660885Y27145540D01*
X36640357Y26924000D01*
X36660885Y26702461D01*
X36721768Y26488480D01*
X36721774Y26488463D01*
X36820938Y26289316D01*
X36820942Y26289311D01*
X36955017Y26111765D01*
X37120272Y25961115D01*
X37157138Y25900441D01*
X37155349Y25829467D01*
X37115473Y25770727D01*
X37050169Y25742870D01*
X37035386Y25742000D01*
X36947402Y25742000D01*
X36886906Y25735495D01*
X36750035Y25684445D01*
X36750034Y25684445D01*
X36633095Y25596905D01*
X36545555Y25479966D01*
X36545555Y25479965D01*
X36494505Y25343094D01*
X36488000Y25282598D01*
X36488000Y24638000D01*
X37414884Y24638000D01*
X37386507Y24593844D01*
X37346000Y24455889D01*
X37346000Y24312111D01*
X37386507Y24174156D01*
X37414884Y24130000D01*
X36488000Y24130000D01*
X36488000Y23485403D01*
X36494505Y23424909D01*
X36495091Y23423338D01*
X36495184Y23422031D01*
X36496318Y23417234D01*
X36495540Y23417051D01*
X36500159Y23352522D01*
X36466137Y23290209D01*
X36403826Y23256181D01*
X36377037Y23253300D01*
X35841739Y23253300D01*
X35773618Y23273302D01*
X35727125Y23326958D01*
X35725330Y23331083D01*
X35693538Y23407838D01*
X35693536Y23407841D01*
X35597282Y23533282D01*
X35471841Y23629536D01*
X35471840Y23629537D01*
X35471837Y23629539D01*
X35325761Y23690044D01*
X35208362Y23705500D01*
X35208360Y23705500D01*
X33879640Y23705500D01*
X33879637Y23705500D01*
X33762238Y23690044D01*
X33616162Y23629539D01*
X33540871Y23571766D01*
X33490718Y23533282D01*
X33490717Y23533282D01*
X33490712Y23533277D01*
X33490088Y23532653D01*
X33489432Y23532296D01*
X33484166Y23528254D01*
X33483535Y23529076D01*
X33427773Y23498632D01*
X33356957Y23503703D01*
X33318140Y23528654D01*
X33317834Y23528254D01*
X33313049Y23531925D01*
X33311897Y23532666D01*
X33311285Y23533278D01*
X33311282Y23533282D01*
X33185841Y23629536D01*
X33185840Y23629537D01*
X33185837Y23629539D01*
X33039761Y23690044D01*
X32922362Y23705500D01*
X32922360Y23705500D01*
X31593640Y23705500D01*
X31593637Y23705500D01*
X31476238Y23690044D01*
X31330162Y23629539D01*
X31204718Y23533282D01*
X31108462Y23407839D01*
X31048698Y23263552D01*
X31004150Y23208271D01*
X30972525Y23192368D01*
X30957766Y23187394D01*
X30933577Y23179244D01*
X30931488Y23178277D01*
X30914658Y23170212D01*
X30912688Y23169234D01*
X30912686Y23169233D01*
X30912684Y23169232D01*
X30844458Y23125623D01*
X30834411Y23119578D01*
X30775066Y23083873D01*
X30773274Y23082510D01*
X30758626Y23071058D01*
X30756809Y23069598D01*
X30699569Y23012358D01*
X30640763Y22956654D01*
X30639236Y22954856D01*
X30625760Y22938551D01*
X30021594Y22334385D01*
X29959282Y22300359D01*
X29888467Y22305424D01*
X29831631Y22347971D01*
X29806820Y22414491D01*
X29806499Y22423480D01*
X29806500Y23959048D01*
X29806500Y25363500D01*
X30875001Y25363500D01*
X30875001Y25104493D01*
X30885605Y25000682D01*
X30941342Y24832475D01*
X31034366Y24681661D01*
X31034371Y24681655D01*
X31159654Y24556372D01*
X31159660Y24556367D01*
X31310474Y24463343D01*
X31478678Y24407607D01*
X31478682Y24407606D01*
X31582484Y24397001D01*
X32004000Y24397001D01*
X32004000Y25363500D01*
X32512000Y25363500D01*
X32512000Y24397001D01*
X32933507Y24397001D01*
X33037318Y24407606D01*
X33205528Y24463345D01*
X33334853Y24543113D01*
X33403332Y24561851D01*
X33467147Y24543113D01*
X33596471Y24463344D01*
X33764678Y24407607D01*
X33764682Y24407606D01*
X33868484Y24397001D01*
X34290000Y24397001D01*
X34290000Y25363500D01*
X34798000Y25363500D01*
X34798000Y24397001D01*
X35219507Y24397001D01*
X35323318Y24407606D01*
X35491525Y24463343D01*
X35642339Y24556367D01*
X35642345Y24556372D01*
X35767628Y24681655D01*
X35767633Y24681661D01*
X35860657Y24832475D01*
X35916393Y25000679D01*
X35916394Y25000682D01*
X35926999Y25104485D01*
X35927000Y25104485D01*
X35927000Y25363500D01*
X34798000Y25363500D01*
X34290000Y25363500D01*
X32512000Y25363500D01*
X32004000Y25363500D01*
X30875001Y25363500D01*
X29806500Y25363500D01*
X29806500Y25794911D01*
X29806500Y25794912D01*
X29806500Y25871500D01*
X30875000Y25871500D01*
X32004000Y25871500D01*
X32004000Y26838000D01*
X32512000Y26838000D01*
X32512000Y25871500D01*
X34290000Y25871500D01*
X34290000Y26838000D01*
X34798000Y26838000D01*
X34798000Y25871500D01*
X35926999Y25871500D01*
X35926999Y26130508D01*
X35916394Y26234319D01*
X35860657Y26402526D01*
X35767633Y26553340D01*
X35767628Y26553346D01*
X35642345Y26678629D01*
X35642339Y26678634D01*
X35491525Y26771658D01*
X35323321Y26827394D01*
X35323318Y26827395D01*
X35219515Y26838000D01*
X34798000Y26838000D01*
X34290000Y26838000D01*
X33868492Y26838000D01*
X33764681Y26827395D01*
X33596474Y26771658D01*
X33467147Y26691887D01*
X33398668Y26673150D01*
X33334853Y26691887D01*
X33205525Y26771658D01*
X33037321Y26827394D01*
X33037318Y26827395D01*
X32933515Y26838000D01*
X32512000Y26838000D01*
X32004000Y26838000D01*
X31582492Y26838000D01*
X31478681Y26827395D01*
X31310474Y26771658D01*
X31159660Y26678634D01*
X31159654Y26678629D01*
X31034371Y26553346D01*
X31034366Y26553340D01*
X30941342Y26402526D01*
X30885606Y26234322D01*
X30885605Y26234319D01*
X30875000Y26130516D01*
X30875000Y25871500D01*
X29806500Y25871500D01*
X29806500Y30780113D01*
X29806500Y31712903D01*
X29806705Y31717960D01*
X29811201Y31773167D01*
X29807077Y31803437D01*
X29806500Y31811951D01*
X29806500Y40676523D01*
X29826502Y40744644D01*
X29843400Y40765613D01*
X31575154Y42497368D01*
X31578878Y42500802D01*
X31621100Y42536663D01*
X31670104Y42601128D01*
X31720842Y42664247D01*
X31720847Y42664259D01*
X31722201Y42666374D01*
X31731755Y42681779D01*
X31733055Y42683938D01*
X31767055Y42757430D01*
X31767055Y42757431D01*
X31803037Y42829979D01*
X31803039Y42829989D01*
X31803918Y42832381D01*
X31809918Y42849420D01*
X31810725Y42851820D01*
X31810732Y42851833D01*
X31828139Y42930917D01*
X31847684Y43009506D01*
X31847684Y43009509D01*
X31848011Y43011913D01*
X31850226Y43029993D01*
X31850498Y43032498D01*
X31850500Y43032503D01*
X31850500Y43113470D01*
X31852693Y43194433D01*
X31852693Y43194435D01*
X31852499Y43196808D01*
X31850500Y43217841D01*
X31850500Y43798335D01*
X31870502Y43866456D01*
X31924158Y43912949D01*
X31994432Y43923053D01*
X32059012Y43893559D01*
X32065595Y43887430D01*
X32176654Y43776371D01*
X32176660Y43776366D01*
X32327474Y43683343D01*
X32495678Y43627607D01*
X32495681Y43627606D01*
X32599483Y43617001D01*
X32599483Y43617000D01*
X32746000Y43617000D01*
X32746000Y44722497D01*
X32819052Y44665637D01*
X32937424Y44625000D01*
X33031073Y44625000D01*
X33123446Y44640414D01*
X33233514Y44699981D01*
X33254000Y44722235D01*
X33254000Y43617000D01*
X33400517Y43617000D01*
X33400516Y43617001D01*
X33504318Y43627606D01*
X33504321Y43627607D01*
X33672525Y43683343D01*
X33823339Y43776366D01*
X33823345Y43776371D01*
X33948629Y43901655D01*
X33948634Y43901661D01*
X34041657Y44052475D01*
X34097393Y44220679D01*
X34097394Y44220682D01*
X34107999Y44324484D01*
X34108000Y44324484D01*
X34108000Y44746000D01*
X33275878Y44746000D01*
X33318278Y44792059D01*
X33368551Y44906670D01*
X33378886Y45031395D01*
X33348163Y45152719D01*
X33281992Y45254000D01*
X34108000Y45254000D01*
X34108000Y45675517D01*
X34097394Y45779319D01*
X34097393Y45779322D01*
X34041657Y45947526D01*
X33948634Y46098340D01*
X33948629Y46098346D01*
X33823345Y46223630D01*
X33823339Y46223635D01*
X33672525Y46316658D01*
X33504321Y46372394D01*
X33504318Y46372395D01*
X33400516Y46383000D01*
X33254000Y46383000D01*
X33254000Y45277504D01*
X33180948Y45334363D01*
X33062576Y45375000D01*
X32968927Y45375000D01*
X32876554Y45359586D01*
X32766486Y45300019D01*
X32746000Y45277766D01*
X32746000Y46383000D01*
X32599483Y46383000D01*
X32495681Y46372395D01*
X32495678Y46372394D01*
X32327474Y46316658D01*
X32176660Y46223635D01*
X32176654Y46223630D01*
X32051370Y46098346D01*
X32051365Y46098340D01*
X31958342Y45947525D01*
X31949613Y45921183D01*
X31909197Y45862813D01*
X31843640Y45835559D01*
X31773755Y45848074D01*
X31734407Y45878744D01*
X31658240Y45967468D01*
X31505373Y46085796D01*
X31505369Y46085798D01*
X31505368Y46085799D01*
X31415480Y46129891D01*
X31331816Y46170930D01*
X31331813Y46170931D01*
X31219917Y46199903D01*
X31144674Y46219385D01*
X31144672Y46219386D01*
X31144669Y46219386D01*
X31144665Y46219387D01*
X30951609Y46229177D01*
X30760525Y46199903D01*
X30579244Y46132763D01*
X30415193Y46030510D01*
X30275080Y45897322D01*
X30275078Y45897320D01*
X30164645Y45738657D01*
X30164644Y45738656D01*
X30117463Y45628710D01*
X30072218Y45573998D01*
X30004576Y45552432D01*
X29936013Y45570861D01*
X29888297Y45623432D01*
X29881453Y45640680D01*
X29877974Y45651768D01*
X29784157Y45820795D01*
X29658245Y45967462D01*
X29658240Y45967468D01*
X29505373Y46085796D01*
X29505369Y46085798D01*
X29505368Y46085799D01*
X29415480Y46129891D01*
X29331816Y46170930D01*
X29331813Y46170931D01*
X29219917Y46199903D01*
X29144674Y46219385D01*
X29144672Y46219386D01*
X29144669Y46219386D01*
X29144665Y46219387D01*
X28951609Y46229177D01*
X28760525Y46199903D01*
X28579244Y46132763D01*
X28415193Y46030510D01*
X28275080Y45897322D01*
X28275078Y45897320D01*
X28164645Y45738657D01*
X28164644Y45738656D01*
X28117463Y45628710D01*
X28072218Y45573998D01*
X28004576Y45552432D01*
X27936013Y45570861D01*
X27888297Y45623432D01*
X27881453Y45640680D01*
X27877974Y45651768D01*
X27784157Y45820795D01*
X27658245Y45967462D01*
X27658240Y45967468D01*
X27505373Y46085796D01*
X27505369Y46085798D01*
X27505368Y46085799D01*
X27415480Y46129891D01*
X27331816Y46170930D01*
X27331813Y46170931D01*
X27219917Y46199903D01*
X27144674Y46219385D01*
X27144672Y46219386D01*
X27144669Y46219386D01*
X27144665Y46219387D01*
X26951609Y46229177D01*
X26760525Y46199903D01*
X26579244Y46132763D01*
X26415193Y46030510D01*
X26275080Y45897322D01*
X26275078Y45897320D01*
X26164647Y45738660D01*
X26088412Y45561011D01*
X26049500Y45371655D01*
X26049500Y44676795D01*
X26049501Y44676776D01*
X26064154Y44532684D01*
X26064155Y44532679D01*
X26097625Y44426004D01*
X26122025Y44348234D01*
X26215842Y44179206D01*
X26324639Y44052475D01*
X26341760Y44032532D01*
X26494627Y43914204D01*
X26668184Y43829070D01*
X26855326Y43780615D01*
X26855331Y43780615D01*
X26855334Y43780614D01*
X27048390Y43770824D01*
X27239474Y43800097D01*
X27420753Y43867236D01*
X27584807Y43969491D01*
X27724919Y44102677D01*
X27835353Y44261342D01*
X27882535Y44371292D01*
X27927780Y44426003D01*
X27995422Y44447569D01*
X28063985Y44429141D01*
X28111701Y44376571D01*
X28118544Y44359325D01*
X28122021Y44348242D01*
X28122025Y44348234D01*
X28215842Y44179206D01*
X28324639Y44052475D01*
X28341760Y44032532D01*
X28494627Y43914204D01*
X28668184Y43829070D01*
X28855326Y43780615D01*
X28855331Y43780615D01*
X28855334Y43780614D01*
X29048390Y43770824D01*
X29239474Y43800097D01*
X29420753Y43867236D01*
X29584807Y43969491D01*
X29724919Y44102677D01*
X29835353Y44261342D01*
X29882536Y44371293D01*
X29927781Y44426004D01*
X29995423Y44447570D01*
X30063986Y44429142D01*
X30111703Y44376571D01*
X30118546Y44359324D01*
X30122026Y44348231D01*
X30133667Y44327258D01*
X30149499Y44266111D01*
X30149500Y43529480D01*
X30129498Y43461359D01*
X30112595Y43440385D01*
X28380860Y41708650D01*
X28377097Y41705181D01*
X28334899Y41669337D01*
X28334898Y41669335D01*
X28285909Y41604893D01*
X28235156Y41541752D01*
X28233935Y41539842D01*
X28224157Y41524077D01*
X28222945Y41522062D01*
X28188939Y41448561D01*
X28152964Y41376022D01*
X28152134Y41373763D01*
X28145965Y41356241D01*
X28145267Y41354168D01*
X28127858Y41275074D01*
X28108315Y41196496D01*
X28108011Y41194262D01*
X28105753Y41175832D01*
X28105500Y41173499D01*
X28105500Y41092532D01*
X28103306Y41011564D01*
X28103502Y41009158D01*
X28105500Y40988160D01*
X28105499Y34107480D01*
X28085497Y34039359D01*
X28031841Y33992866D01*
X27961567Y33982763D01*
X27896987Y34012256D01*
X27890404Y34018385D01*
X27169414Y34739375D01*
X26283645Y35625144D01*
X26280187Y35628895D01*
X26244336Y35671101D01*
X26179892Y35720090D01*
X26116757Y35770840D01*
X26114794Y35772095D01*
X26099158Y35781794D01*
X26097062Y35783055D01*
X26023561Y35817060D01*
X25951022Y35853035D01*
X25948762Y35853866D01*
X25931337Y35860000D01*
X25929169Y35860731D01*
X25889621Y35869436D01*
X25850074Y35878141D01*
X25830326Y35883053D01*
X25771503Y35897682D01*
X25769210Y35897995D01*
X25750852Y35900244D01*
X25748501Y35900499D01*
X25748498Y35900499D01*
X25667532Y35900499D01*
X25586565Y35902693D01*
X25584232Y35902503D01*
X25563160Y35900499D01*
X19734482Y35900499D01*
X19666361Y35920501D01*
X19645386Y35937404D01*
X18887404Y36695387D01*
X18853379Y36757699D01*
X18850500Y36784482D01*
X18850500Y43798335D01*
X18870502Y43866456D01*
X18924158Y43912949D01*
X18994432Y43923053D01*
X19059012Y43893559D01*
X19065595Y43887430D01*
X19176654Y43776371D01*
X19176660Y43776366D01*
X19327474Y43683343D01*
X19495678Y43627607D01*
X19495681Y43627606D01*
X19599483Y43617001D01*
X19599483Y43617000D01*
X19746000Y43617000D01*
X19746000Y44722497D01*
X19819052Y44665637D01*
X19937424Y44625000D01*
X20031073Y44625000D01*
X20123446Y44640414D01*
X20233514Y44699981D01*
X20254000Y44722235D01*
X20254000Y43617000D01*
X20400517Y43617000D01*
X20400516Y43617001D01*
X20504318Y43627606D01*
X20504321Y43627607D01*
X20672525Y43683343D01*
X20823339Y43776366D01*
X20823345Y43776371D01*
X20948629Y43901655D01*
X20948634Y43901661D01*
X21041657Y44052475D01*
X21097393Y44220679D01*
X21097394Y44220682D01*
X21107999Y44324484D01*
X21108000Y44324484D01*
X21108000Y44746000D01*
X20275878Y44746000D01*
X20318278Y44792059D01*
X20368551Y44906670D01*
X20378886Y45031395D01*
X20348163Y45152719D01*
X20281992Y45254000D01*
X21108000Y45254000D01*
X21108000Y45675517D01*
X21097394Y45779319D01*
X21097393Y45779322D01*
X21041657Y45947526D01*
X20948634Y46098340D01*
X20948629Y46098346D01*
X20823345Y46223630D01*
X20823339Y46223635D01*
X20672525Y46316658D01*
X20504321Y46372394D01*
X20504318Y46372395D01*
X20400516Y46383000D01*
X20254000Y46383000D01*
X20254000Y45277504D01*
X20180948Y45334363D01*
X20062576Y45375000D01*
X19968927Y45375000D01*
X19876554Y45359586D01*
X19766486Y45300019D01*
X19746000Y45277766D01*
X19746000Y46383000D01*
X19599483Y46383000D01*
X19495681Y46372395D01*
X19495678Y46372394D01*
X19327474Y46316658D01*
X19176660Y46223635D01*
X19176654Y46223630D01*
X19051370Y46098346D01*
X19051365Y46098340D01*
X18958342Y45947525D01*
X18949613Y45921183D01*
X18909197Y45862813D01*
X18843640Y45835559D01*
X18773755Y45848074D01*
X18734407Y45878744D01*
X18658240Y45967468D01*
X18505373Y46085796D01*
X18505369Y46085798D01*
X18505368Y46085799D01*
X18415480Y46129891D01*
X18331816Y46170930D01*
X18331813Y46170931D01*
X18219917Y46199903D01*
X18144674Y46219385D01*
X18144672Y46219386D01*
X18144669Y46219386D01*
X18144665Y46219387D01*
X17951609Y46229177D01*
X17760525Y46199903D01*
X17579244Y46132763D01*
X17415193Y46030510D01*
X17275080Y45897322D01*
X17275078Y45897320D01*
X17164645Y45738657D01*
X17164644Y45738656D01*
X17117463Y45628710D01*
X17072218Y45573998D01*
X17004576Y45552432D01*
X16936013Y45570861D01*
X16888297Y45623432D01*
X16881453Y45640680D01*
X16877974Y45651768D01*
X16784157Y45820795D01*
X16658245Y45967462D01*
X16658240Y45967468D01*
X16505373Y46085796D01*
X16505369Y46085798D01*
X16505368Y46085799D01*
X16415480Y46129891D01*
X16331816Y46170930D01*
X16331813Y46170931D01*
X16219917Y46199903D01*
X16144674Y46219385D01*
X16144672Y46219386D01*
X16144669Y46219386D01*
X16144665Y46219387D01*
X15951609Y46229177D01*
X15760525Y46199903D01*
X15579244Y46132763D01*
X15415193Y46030510D01*
X15275080Y45897322D01*
X15275078Y45897320D01*
X15164645Y45738657D01*
X15164644Y45738656D01*
X15117463Y45628710D01*
X15072218Y45573998D01*
X15004576Y45552432D01*
X14936013Y45570861D01*
X14888297Y45623432D01*
X14881453Y45640680D01*
X14877974Y45651768D01*
X14784157Y45820795D01*
X14658245Y45967462D01*
X14658240Y45967468D01*
X14505373Y46085796D01*
X14505369Y46085798D01*
X14505368Y46085799D01*
X14415480Y46129891D01*
X14331816Y46170930D01*
X14331813Y46170931D01*
X14219917Y46199903D01*
X14144674Y46219385D01*
X14144672Y46219386D01*
X14144669Y46219386D01*
X14144665Y46219387D01*
X13951609Y46229177D01*
X13760525Y46199903D01*
X13579244Y46132763D01*
X13415193Y46030510D01*
X13275080Y45897322D01*
X13275078Y45897320D01*
X13164647Y45738660D01*
X13088412Y45561011D01*
X13049500Y45371655D01*
X13049500Y44676795D01*
X13049501Y44676776D01*
X13064154Y44532684D01*
X13064155Y44532679D01*
X13097625Y44426004D01*
X13122025Y44348234D01*
X13215842Y44179206D01*
X13324639Y44052475D01*
X13341760Y44032532D01*
X13494627Y43914204D01*
X13494630Y43914203D01*
X13499681Y43910293D01*
X13498032Y43908164D01*
X13537403Y43863935D01*
X13549499Y43810066D01*
X13549499Y39176663D01*
X13529497Y39108542D01*
X13514137Y39090618D01*
X13514568Y39090236D01*
X13509511Y39084529D01*
X13419779Y38954530D01*
X13419778Y38954527D01*
X13363757Y38806816D01*
X13344718Y38650004D01*
X13344718Y38649997D01*
X13363757Y38493185D01*
X13387401Y38430843D01*
X13419776Y38345477D01*
X13419777Y38345475D01*
X13419778Y38345474D01*
X13419779Y38345471D01*
X13509512Y38215471D01*
X13509514Y38215469D01*
X13568634Y38163094D01*
X13627756Y38110717D01*
X13767631Y38037304D01*
X13767632Y38037304D01*
X13767634Y38037303D01*
X13812212Y38026316D01*
X13921011Y37999500D01*
X13921013Y37999500D01*
X14078979Y37999500D01*
X14078981Y37999500D01*
X14232361Y38037304D01*
X14372236Y38110717D01*
X14490479Y38215470D01*
X14550118Y38301873D01*
X14605273Y38346571D01*
X14675842Y38354354D01*
X14683948Y38352638D01*
X14817889Y38319625D01*
X14817891Y38319625D01*
X14975857Y38319625D01*
X14975859Y38319625D01*
X15129239Y38357429D01*
X15269114Y38430842D01*
X15387357Y38535595D01*
X15477094Y38665602D01*
X15533111Y38813307D01*
X15533111Y38813308D01*
X15533112Y38813310D01*
X15552152Y38970122D01*
X15552152Y38970129D01*
X15533112Y39126941D01*
X15518200Y39166260D01*
X15477094Y39274648D01*
X15477090Y39274653D01*
X15477090Y39274655D01*
X15387358Y39404654D01*
X15382302Y39410361D01*
X15384894Y39412658D01*
X15355328Y39459468D01*
X15350499Y39494009D01*
X15350500Y43561207D01*
X15370502Y43629328D01*
X15387400Y43650298D01*
X15536630Y43799529D01*
X15598940Y43833552D01*
X15661600Y43829140D01*
X15661997Y43830672D01*
X15668183Y43829071D01*
X15668184Y43829070D01*
X15855326Y43780615D01*
X15855331Y43780615D01*
X15855334Y43780614D01*
X16048390Y43770824D01*
X16239474Y43800097D01*
X16420753Y43867236D01*
X16584807Y43969491D01*
X16724919Y44102677D01*
X16835353Y44261342D01*
X16882536Y44371293D01*
X16927781Y44426004D01*
X16995423Y44447570D01*
X17063986Y44429142D01*
X17111703Y44376571D01*
X17118546Y44359324D01*
X17122022Y44348242D01*
X17122026Y44348232D01*
X17133667Y44327258D01*
X17149500Y44266111D01*
X17149500Y36417126D01*
X17149292Y36412011D01*
X17144798Y36356839D01*
X17144798Y36356837D01*
X17155729Y36276610D01*
X17164485Y36196094D01*
X17164992Y36193789D01*
X17169191Y36175874D01*
X17169774Y36173529D01*
X17197700Y36097516D01*
X17223556Y36020781D01*
X17224538Y36018657D01*
X17232535Y36001969D01*
X17233570Y35999882D01*
X17277184Y35931648D01*
X17318927Y35862269D01*
X17320321Y35860435D01*
X17331715Y35845861D01*
X17333198Y35844016D01*
X17333200Y35844013D01*
X17390460Y35786753D01*
X17446151Y35727961D01*
X17446157Y35727957D01*
X17448016Y35726377D01*
X17464252Y35712960D01*
X18702363Y34474850D01*
X18705822Y34471098D01*
X18741662Y34428903D01*
X18741669Y34428896D01*
X18806121Y34379902D01*
X18869249Y34329158D01*
X18871343Y34327820D01*
X18886827Y34318216D01*
X18888933Y34316949D01*
X18888939Y34316945D01*
X18962455Y34282933D01*
X19034988Y34246960D01*
X19037344Y34246095D01*
X19054592Y34240023D01*
X19056830Y34239270D01*
X19056836Y34239267D01*
X19135929Y34221858D01*
X19214508Y34202315D01*
X19214511Y34202315D01*
X19216909Y34201988D01*
X19235020Y34199770D01*
X19237504Y34199500D01*
X19237506Y34199499D01*
X19237508Y34199499D01*
X19318472Y34199499D01*
X19399435Y34197306D01*
X19399435Y34197307D01*
X19399438Y34197306D01*
X19401771Y34197496D01*
X19422844Y34199499D01*
X25251522Y34199499D01*
X25319643Y34179497D01*
X25340617Y34162594D01*
X28068594Y31434616D01*
X28102620Y31372304D01*
X28105499Y31345521D01*
X28105500Y30826497D01*
X28105500Y20077532D01*
X28103306Y19996570D01*
X28103503Y19994150D01*
X28105499Y19973165D01*
X28105499Y17849340D01*
X28101775Y17818933D01*
X28082915Y17743095D01*
X28082611Y17740862D01*
X28080353Y17722432D01*
X28080100Y17720098D01*
X28080100Y17639132D01*
X28077906Y17558164D01*
X28078097Y17555827D01*
X28080099Y17534760D01*
X28080099Y13834495D01*
X28080100Y13834478D01*
X28095084Y13696699D01*
X28096553Y13690028D01*
X28099500Y13662936D01*
X28099500Y12904479D01*
X28079498Y12836358D01*
X28062595Y12815384D01*
X24284616Y9037405D01*
X24222304Y9003379D01*
X24195521Y9000500D01*
X16403020Y9000500D01*
X16360109Y9009946D01*
X16359640Y9008552D01*
X16353169Y9010733D01*
X16313620Y9019438D01*
X16274074Y9028143D01*
X16246410Y9035023D01*
X16195503Y9047684D01*
X16193210Y9047997D01*
X16174852Y9050246D01*
X16172501Y9050501D01*
X16172498Y9050501D01*
X16091532Y9050501D01*
X16010565Y9052695D01*
X16008232Y9052505D01*
X15987160Y9050501D01*
X15157122Y9050501D01*
X15152013Y9050709D01*
X15141497Y9051565D01*
X15096835Y9055203D01*
X15096833Y9055203D01*
X15016606Y9044272D01*
X14936091Y9035516D01*
X14933851Y9035023D01*
X14915811Y9030796D01*
X14913535Y9030230D01*
X14865165Y9012461D01*
X14860465Y9010733D01*
X14853646Y9008228D01*
X14810197Y9000500D01*
X14087123Y9000500D01*
X14082014Y9000708D01*
X14072027Y9001521D01*
X14026837Y9005202D01*
X14026832Y9005201D01*
X13996561Y9001077D01*
X13988048Y9000500D01*
X12910640Y9000500D01*
X12910631Y9000499D01*
X12804978Y8986590D01*
X12793238Y8985044D01*
X12647160Y8924537D01*
X12647157Y8924535D01*
X12521718Y8828282D01*
X12425465Y8702843D01*
X12425463Y8702840D01*
X12364955Y8556761D01*
X12349500Y8439364D01*
X12349500Y7160641D01*
X12349501Y7160632D01*
X12356391Y7108300D01*
X12364956Y7043238D01*
X12425464Y6897159D01*
X12521718Y6771718D01*
X12647159Y6675464D01*
X12748703Y6633403D01*
X12803982Y6588857D01*
X12826403Y6521494D01*
X12808845Y6452702D01*
X12771041Y6412605D01*
X12693797Y6360397D01*
X12693786Y6360388D01*
X12526903Y6200444D01*
X12526897Y6200436D01*
X12389443Y6014587D01*
X12285369Y5808166D01*
X12217679Y5587136D01*
X12213437Y5554000D01*
X11750500Y5554000D01*
X11750500Y6180610D01*
X11750500Y6180612D01*
X11741218Y6230262D01*
X11740416Y6236020D01*
X11736234Y6281148D01*
X11735756Y6286312D01*
X11721928Y6334909D01*
X11720603Y6340542D01*
X11711321Y6390200D01*
X11693071Y6437308D01*
X11691231Y6442794D01*
X11677405Y6491391D01*
X11654892Y6536602D01*
X11652543Y6541924D01*
X11635597Y6585667D01*
X11634298Y6589021D01*
X11610889Y6626827D01*
X11607710Y6631962D01*
X11604876Y6637049D01*
X11600519Y6645800D01*
X11582366Y6682257D01*
X11582364Y6682260D01*
X11551927Y6722565D01*
X11548636Y6727369D01*
X11522050Y6770307D01*
X11505912Y6788009D01*
X11488014Y6807642D01*
X11484315Y6812097D01*
X11471845Y6828609D01*
X11453876Y6852406D01*
X11416547Y6886436D01*
X11412432Y6890552D01*
X11397066Y6907406D01*
X11378407Y6927874D01*
X11338103Y6958311D01*
X11338102Y6958312D01*
X11333623Y6962031D01*
X11296307Y6996049D01*
X11296304Y6996052D01*
X11296302Y6996054D01*
X11253346Y7022652D01*
X11248570Y7025923D01*
X11208255Y7056368D01*
X11208253Y7056370D01*
X11163035Y7078886D01*
X11157949Y7081719D01*
X11115022Y7108298D01*
X11115019Y7108300D01*
X11115017Y7108301D01*
X11115013Y7108303D01*
X11067921Y7126546D01*
X11062596Y7128897D01*
X11017389Y7151407D01*
X11010450Y7153382D01*
X10968814Y7165229D01*
X10963295Y7167078D01*
X10916200Y7185323D01*
X10866552Y7194605D01*
X10860887Y7195937D01*
X10812315Y7209757D01*
X10812303Y7209760D01*
X10762019Y7214419D01*
X10756255Y7215223D01*
X10706611Y7224502D01*
X10706610Y7224502D01*
X10493390Y7224502D01*
X10493389Y7224502D01*
X10443745Y7215223D01*
X10437981Y7214419D01*
X10387696Y7209760D01*
X10387684Y7209757D01*
X10339102Y7195934D01*
X10333441Y7194603D01*
X10320038Y7192097D01*
X10283803Y7185324D01*
X10236708Y7167080D01*
X10231191Y7165231D01*
X10182609Y7151408D01*
X10182608Y7151407D01*
X10137400Y7128897D01*
X10132077Y7126547D01*
X10084992Y7108306D01*
X10084976Y7108298D01*
X10042041Y7081714D01*
X10036956Y7078881D01*
X9991746Y7056369D01*
X9951435Y7025929D01*
X9946634Y7022640D01*
X9903695Y6996053D01*
X9903694Y6996052D01*
X9866371Y6962028D01*
X9861895Y6958311D01*
X9821592Y6927874D01*
X9787565Y6890550D01*
X9783452Y6886437D01*
X9746128Y6852410D01*
X9715691Y6812107D01*
X9711974Y6807631D01*
X9677950Y6770308D01*
X9677949Y6770307D01*
X9651362Y6727368D01*
X9648073Y6722567D01*
X9617633Y6682256D01*
X9595121Y6637046D01*
X9592288Y6631961D01*
X9565704Y6589026D01*
X9565696Y6589010D01*
X9547455Y6541925D01*
X9545105Y6536602D01*
X9522595Y6491394D01*
X9522594Y6491393D01*
X9508771Y6442811D01*
X9506922Y6437294D01*
X9488678Y6390199D01*
X9479401Y6340567D01*
X9478068Y6334900D01*
X9464245Y6286318D01*
X9464242Y6286306D01*
X9459583Y6236021D01*
X9458779Y6230257D01*
X9449500Y6180613D01*
X9449500Y4210849D01*
X9449433Y4207939D01*
X9445804Y4129439D01*
X9445804Y4129438D01*
X8079575Y4129438D01*
X8037996Y4165765D01*
X7844764Y4281215D01*
X7634024Y4360307D01*
X7634019Y4360309D01*
X7444091Y4394776D01*
X7412547Y4400500D01*
X7243845Y4400500D01*
X7212558Y4397685D01*
X7075810Y4385378D01*
X7075810Y4385377D01*
X6858832Y4325495D01*
X6656031Y4227832D01*
X6656023Y4227827D01*
X6473921Y4095522D01*
X6473920Y4095521D01*
X6318369Y3932828D01*
X6194367Y3744973D01*
X6194363Y3744965D01*
X6105897Y3537989D01*
X6105896Y3537987D01*
X6055809Y3318539D01*
X6055809Y3318537D01*
X6050770Y3206327D01*
X6045710Y3093670D01*
X4900500Y3093670D01*
X4900500Y3281182D01*
X4861396Y3540615D01*
X4861395Y3540617D01*
X4861395Y3540620D01*
X4784066Y3791315D01*
X4784061Y3791328D01*
X4711501Y3942000D01*
X4670228Y4027704D01*
X4670226Y4027707D01*
X4670222Y4027714D01*
X4522437Y4244473D01*
X4522433Y4244479D01*
X4343981Y4436805D01*
X4138857Y4600386D01*
X4138852Y4600389D01*
X4138853Y4600389D01*
X3911647Y4731567D01*
X3911639Y4731570D01*
X3667419Y4827419D01*
X3667417Y4827420D01*
X3411632Y4885802D01*
X3215497Y4900500D01*
X3215494Y4900500D01*
X3084506Y4900500D01*
X3084503Y4900500D01*
X2888367Y4885802D01*
X2632582Y4827420D01*
X2632580Y4827419D01*
X2388360Y4731570D01*
X2388352Y4731567D01*
X2161146Y4600389D01*
X1956018Y4436805D01*
X1777566Y4244478D01*
X1777562Y4244473D01*
X1629777Y4027714D01*
X1629773Y4027707D01*
X1515938Y3791328D01*
X1515933Y3791315D01*
X1438604Y3540620D01*
X1423968Y3443515D01*
X1399500Y3281182D01*
X1399500Y3018818D01*
X525500Y3018818D01*
X525500Y6478823D01*
X525499Y9969853D01*
X527599Y9980406D01*
X527601Y9999999D01*
X527601Y10000000D01*
X519517Y10019517D01*
X519516Y10019518D01*
X505073Y10025500D01*
X500001Y10027601D01*
X480426Y10027601D01*
X469864Y10025500D01*
X151500Y10025500D01*
X83379Y10045502D01*
X36886Y10099158D01*
X25500Y10151500D01*
X25500Y11023600D01*
X5619534Y11023600D01*
X5639312Y10873366D01*
X5697301Y10733369D01*
X5697306Y10733361D01*
X5789548Y10613149D01*
X5909760Y10520907D01*
X5909767Y10520902D01*
X6049764Y10462913D01*
X6200000Y10443134D01*
X6350236Y10462913D01*
X6490233Y10520902D01*
X6610451Y10613149D01*
X6702698Y10733367D01*
X6760687Y10873364D01*
X6780466Y11023600D01*
X6760687Y11173836D01*
X6702698Y11313833D01*
X6702693Y11313840D01*
X6610451Y11434052D01*
X6490239Y11526294D01*
X6490231Y11526299D01*
X6350234Y11584288D01*
X6200000Y11604066D01*
X6049765Y11584288D01*
X5909768Y11526299D01*
X5909760Y11526294D01*
X5789548Y11434052D01*
X5697306Y11313840D01*
X5697301Y11313832D01*
X5639312Y11173835D01*
X5619534Y11023601D01*
X5619534Y11023600D01*
X25500Y11023600D01*
X25500Y17299997D01*
X5494722Y17299997D01*
X5513761Y17143185D01*
X5538252Y17078609D01*
X5569780Y16995477D01*
X5569781Y16995475D01*
X5569782Y16995474D01*
X5569783Y16995471D01*
X5659516Y16865471D01*
X5659518Y16865469D01*
X5692907Y16835889D01*
X5777760Y16760717D01*
X5917635Y16687304D01*
X5917636Y16687304D01*
X5917638Y16687303D01*
X5994324Y16668402D01*
X6071015Y16649500D01*
X6111206Y16649500D01*
X6179327Y16629498D01*
X6200301Y16612595D01*
X9861056Y12951841D01*
X9865758Y12946579D01*
X9890119Y12916032D01*
X9890121Y12916030D01*
X9939271Y12882520D01*
X9987118Y12847207D01*
X9987121Y12847206D01*
X9994669Y12843217D01*
X10002322Y12839532D01*
X10002327Y12839528D01*
X10040223Y12827839D01*
X10059171Y12821994D01*
X10076459Y12815945D01*
X10115300Y12802354D01*
X10115304Y12802354D01*
X10123677Y12800770D01*
X10132096Y12799501D01*
X10132098Y12799500D01*
X10132100Y12799500D01*
X10191573Y12799500D01*
X10251010Y12797276D01*
X10251015Y12797278D01*
X10260390Y12798333D01*
X10260487Y12797472D01*
X10275897Y12799500D01*
X13955090Y12799500D01*
X14023211Y12779498D01*
X14069704Y12725842D01*
X14071500Y12721716D01*
X14073883Y12715963D01*
X14168133Y12593133D01*
X14290963Y12498883D01*
X14290966Y12498881D01*
X14371618Y12465475D01*
X14434001Y12439635D01*
X14548960Y12424500D01*
X14548967Y12424500D01*
X15201033Y12424500D01*
X15201040Y12424500D01*
X15315999Y12439635D01*
X15422490Y12483745D01*
X15459033Y12498881D01*
X15459033Y12498882D01*
X15459037Y12498883D01*
X15581867Y12593133D01*
X15650037Y12681976D01*
X15707375Y12723843D01*
X15778245Y12728065D01*
X15840149Y12693302D01*
X15849960Y12681979D01*
X15918133Y12593133D01*
X16040963Y12498883D01*
X16040966Y12498881D01*
X16121618Y12465475D01*
X16184001Y12439635D01*
X16298960Y12424500D01*
X16298967Y12424500D01*
X16951033Y12424500D01*
X16951040Y12424500D01*
X17065999Y12439635D01*
X17172490Y12483745D01*
X17209033Y12498881D01*
X17209033Y12498882D01*
X17209037Y12498883D01*
X17331867Y12593133D01*
X17426117Y12715963D01*
X17485365Y12859001D01*
X17493315Y12919391D01*
X17522035Y12984316D01*
X17529129Y12992027D01*
X18273166Y13736065D01*
X18278418Y13740759D01*
X18308970Y13765121D01*
X18342480Y13814272D01*
X18377793Y13862118D01*
X18377793Y13862121D01*
X18377795Y13862122D01*
X18381776Y13869655D01*
X18385472Y13877328D01*
X18403006Y13934172D01*
X18417117Y13974500D01*
X18422646Y13990300D01*
X18422646Y13990309D01*
X18424229Y13998675D01*
X18425500Y14007099D01*
X18425500Y14066574D01*
X18427724Y14126010D01*
X18427722Y14126016D01*
X18426667Y14135392D01*
X18427528Y14135490D01*
X18425500Y14150898D01*
X18425500Y15836208D01*
X18445502Y15904329D01*
X18462400Y15925298D01*
X21404497Y18867395D01*
X21466810Y18901421D01*
X21493593Y18904300D01*
X21598490Y18904300D01*
X21666611Y18884298D01*
X21713104Y18830642D01*
X21714900Y18826516D01*
X21717283Y18820763D01*
X21811533Y18697933D01*
X21912886Y18620163D01*
X21934366Y18603681D01*
X21990112Y18580591D01*
X22077401Y18544435D01*
X22192360Y18529300D01*
X22192367Y18529300D01*
X22844433Y18529300D01*
X22844440Y18529300D01*
X22959399Y18544435D01*
X23085277Y18596575D01*
X23102433Y18603681D01*
X23102433Y18603682D01*
X23102437Y18603683D01*
X23225267Y18697933D01*
X23293437Y18786776D01*
X23350775Y18828643D01*
X23421645Y18832865D01*
X23483549Y18798102D01*
X23493360Y18786779D01*
X23561533Y18697933D01*
X23684363Y18603683D01*
X23740119Y18580589D01*
X23795398Y18536044D01*
X23817820Y18468681D01*
X23817900Y18464181D01*
X23817900Y16882194D01*
X23797898Y16814073D01*
X23780995Y16793099D01*
X22650302Y15662405D01*
X22587990Y15628380D01*
X22561207Y15625500D01*
X22098958Y15625500D01*
X21984000Y15610365D01*
X21840966Y15551120D01*
X21718133Y15456867D01*
X21623880Y15334034D01*
X21564635Y15191000D01*
X21549500Y15076042D01*
X21549500Y14523959D01*
X21564635Y14409001D01*
X21623880Y14265967D01*
X21623882Y14265964D01*
X21623883Y14265963D01*
X21718133Y14143133D01*
X21839556Y14049963D01*
X21881423Y13992625D01*
X21885645Y13921754D01*
X21850881Y13859851D01*
X21839559Y13850041D01*
X21728893Y13765123D01*
X21718133Y13756867D01*
X21623880Y13634034D01*
X21564635Y13491000D01*
X21549500Y13376042D01*
X21549500Y12823959D01*
X21564635Y12709001D01*
X21623880Y12565967D01*
X21623882Y12565964D01*
X21623883Y12565963D01*
X21718133Y12443133D01*
X21840963Y12348883D01*
X21840966Y12348881D01*
X21921618Y12315475D01*
X21984001Y12289635D01*
X22098960Y12274500D01*
X22098967Y12274500D01*
X22751033Y12274500D01*
X22751040Y12274500D01*
X22865999Y12289635D01*
X22972490Y12333745D01*
X23009033Y12348881D01*
X23009033Y12348882D01*
X23009037Y12348883D01*
X23131867Y12443133D01*
X23200037Y12531976D01*
X23257375Y12573843D01*
X23328245Y12578065D01*
X23390149Y12543302D01*
X23399960Y12531979D01*
X23468133Y12443133D01*
X23590963Y12348883D01*
X23590966Y12348881D01*
X23671618Y12315475D01*
X23734001Y12289635D01*
X23848960Y12274500D01*
X23848967Y12274500D01*
X24501033Y12274500D01*
X24501040Y12274500D01*
X24615999Y12289635D01*
X24722490Y12333745D01*
X24759033Y12348881D01*
X24759033Y12348882D01*
X24759037Y12348883D01*
X24881867Y12443133D01*
X24976117Y12565963D01*
X25035365Y12709001D01*
X25043315Y12769391D01*
X25072037Y12834318D01*
X25079130Y12842028D01*
X27048170Y14811069D01*
X27053414Y14815755D01*
X27083970Y14840121D01*
X27117480Y14889272D01*
X27152793Y14937118D01*
X27152793Y14937121D01*
X27152795Y14937122D01*
X27156781Y14944664D01*
X27160471Y14952326D01*
X27160470Y14952326D01*
X27160472Y14952327D01*
X27178007Y15009178D01*
X27197646Y15065301D01*
X27197646Y15065304D01*
X27199228Y15073666D01*
X27200497Y15082090D01*
X27200500Y15082098D01*
X27200499Y15141559D01*
X27202725Y15201010D01*
X27202724Y15201014D01*
X27201667Y15210399D01*
X27202528Y15210497D01*
X27200499Y15225909D01*
X27200499Y17566798D01*
X27200499Y19873344D01*
X27220501Y19941461D01*
X27235859Y19959380D01*
X27235427Y19959763D01*
X27240478Y19965467D01*
X27240483Y19965470D01*
X27330220Y20095477D01*
X27386237Y20243182D01*
X27386237Y20243183D01*
X27386238Y20243185D01*
X27405278Y20399997D01*
X27405278Y20400004D01*
X27386238Y20556816D01*
X27378392Y20577502D01*
X27330220Y20704523D01*
X27330216Y20704528D01*
X27330216Y20704530D01*
X27240483Y20834530D01*
X27240481Y20834532D01*
X27122240Y20939283D01*
X26982365Y21012696D01*
X26982361Y21012698D01*
X26828987Y21050500D01*
X26828985Y21050500D01*
X26788793Y21050500D01*
X26720672Y21070502D01*
X26699698Y21087405D01*
X26699697Y21087406D01*
X26610142Y21176961D01*
X26605439Y21182224D01*
X26581080Y21212769D01*
X26581081Y21212769D01*
X26531928Y21246281D01*
X26484079Y21281596D01*
X26476530Y21285586D01*
X26468874Y21289272D01*
X26412022Y21306808D01*
X26355896Y21326447D01*
X26347520Y21328033D01*
X26339105Y21329300D01*
X26339102Y21329300D01*
X26326776Y21329300D01*
X26258655Y21349302D01*
X26212162Y21402958D01*
X26201695Y21470487D01*
X26205278Y21499997D01*
X26205278Y21500004D01*
X26186238Y21656816D01*
X26164167Y21715012D01*
X26130220Y21804523D01*
X26130216Y21804528D01*
X26130216Y21804530D01*
X26040483Y21934530D01*
X26040481Y21934532D01*
X25922240Y22039283D01*
X25782365Y22112696D01*
X25782361Y22112698D01*
X25628987Y22150500D01*
X25628985Y22150500D01*
X25588793Y22150500D01*
X25520672Y22170502D01*
X25499698Y22187405D01*
X25193404Y22493699D01*
X25159378Y22556011D01*
X25156500Y22582786D01*
X25156500Y22780440D01*
X25141365Y22895399D01*
X25104895Y22983446D01*
X25082119Y23038434D01*
X25082117Y23038437D01*
X24987867Y23161267D01*
X24865037Y23255517D01*
X24865036Y23255518D01*
X24865033Y23255520D01*
X24721999Y23314765D01*
X24607041Y23329900D01*
X24607040Y23329900D01*
X24530394Y23329900D01*
X24462273Y23349902D01*
X24415780Y23403558D01*
X24405676Y23473832D01*
X24435170Y23538412D01*
X24441287Y23544984D01*
X26333170Y25436869D01*
X26338412Y25441554D01*
X26368970Y25465921D01*
X26402477Y25515067D01*
X26437793Y25562917D01*
X26437793Y25562920D01*
X26437795Y25562921D01*
X26441774Y25570449D01*
X26445468Y25578123D01*
X26445472Y25578127D01*
X26463004Y25634969D01*
X26482646Y25691100D01*
X26482646Y25691103D01*
X26484228Y25699465D01*
X26485500Y25707899D01*
X26485500Y25767374D01*
X26485711Y25773013D01*
X26487724Y25826810D01*
X26487722Y25826816D01*
X26486667Y25836192D01*
X26487528Y25836290D01*
X26485500Y25851698D01*
X26485500Y31086158D01*
X26485896Y31093218D01*
X26490270Y31132035D01*
X26483233Y31169227D01*
X26479211Y31190488D01*
X26475859Y31212720D01*
X26470348Y31249287D01*
X26470345Y31249292D01*
X26467824Y31257468D01*
X26465023Y31265473D01*
X26437222Y31318074D01*
X26411426Y31371640D01*
X26406628Y31378678D01*
X26401562Y31385542D01*
X26359516Y31427587D01*
X26319054Y31471196D01*
X26311674Y31477081D01*
X26312213Y31477758D01*
X26299880Y31487223D01*
X26035671Y31751432D01*
X25738942Y32048161D01*
X25734239Y32053424D01*
X25709880Y32083969D01*
X25709881Y32083969D01*
X25660728Y32117481D01*
X25612879Y32152796D01*
X25605330Y32156786D01*
X25597674Y32160472D01*
X25540822Y32178008D01*
X25484696Y32197647D01*
X25476320Y32199233D01*
X25467905Y32200500D01*
X25467902Y32200500D01*
X25408426Y32200500D01*
X25348990Y32202724D01*
X25348989Y32202724D01*
X25339610Y32201667D01*
X25339512Y32202529D01*
X25324103Y32200500D01*
X25200910Y32200500D01*
X25132789Y32220502D01*
X25086296Y32274158D01*
X25084500Y32278284D01*
X25083999Y32279494D01*
X25082117Y32284037D01*
X24987867Y32406867D01*
X24865037Y32501117D01*
X24865036Y32501118D01*
X24865033Y32501120D01*
X24721999Y32560365D01*
X24607041Y32575500D01*
X24607040Y32575500D01*
X23954960Y32575500D01*
X23954958Y32575500D01*
X23840000Y32560365D01*
X23696966Y32501120D01*
X23574130Y32406865D01*
X23505961Y32318025D01*
X23448623Y32276158D01*
X23377752Y32271936D01*
X23315849Y32306700D01*
X23306037Y32318025D01*
X23237867Y32406867D01*
X23115037Y32501117D01*
X23115036Y32501118D01*
X23115033Y32501120D01*
X22971999Y32560365D01*
X22857041Y32575500D01*
X22857040Y32575500D01*
X22204960Y32575500D01*
X22204958Y32575500D01*
X22090000Y32560365D01*
X21946966Y32501120D01*
X21862780Y32436522D01*
X21824133Y32406867D01*
X21755964Y32318026D01*
X21729880Y32284033D01*
X21728000Y32279494D01*
X21683450Y32224215D01*
X21616086Y32201796D01*
X21597489Y32202508D01*
X21572967Y32205271D01*
X21572962Y32205270D01*
X21532675Y32197647D01*
X21514520Y32194212D01*
X21455713Y32185348D01*
X21455710Y32185347D01*
X21455711Y32185347D01*
X21447536Y32182826D01*
X21439528Y32180023D01*
X21386936Y32152227D01*
X21363621Y32140999D01*
X21333357Y32126425D01*
X21326331Y32121635D01*
X21319462Y32116566D01*
X21277413Y32074517D01*
X21233808Y32034058D01*
X21227919Y32026673D01*
X21227244Y32027211D01*
X21217779Y32014884D01*
X19790300Y30587404D01*
X19727990Y30553380D01*
X19701207Y30550500D01*
X18422426Y30550500D01*
X18362990Y30552724D01*
X18362989Y30552724D01*
X18353610Y30551667D01*
X18353512Y30552529D01*
X18338103Y30550500D01*
X15764957Y30550500D01*
X15736921Y30553659D01*
X15734048Y30554315D01*
X15734046Y30554315D01*
X15706149Y30552225D01*
X15685487Y30550676D01*
X15680778Y30550500D01*
X11820241Y30550500D01*
X11752120Y30570502D01*
X11736691Y30582185D01*
X11672240Y30639283D01*
X11532365Y30712696D01*
X11532361Y30712698D01*
X11378987Y30750500D01*
X11378985Y30750500D01*
X11221015Y30750500D01*
X11221012Y30750500D01*
X11067638Y30712698D01*
X11067634Y30712696D01*
X10927759Y30639283D01*
X10809518Y30534532D01*
X10809516Y30534530D01*
X10719783Y30404530D01*
X10719782Y30404527D01*
X10719781Y30404525D01*
X10719780Y30404523D01*
X10716083Y30394774D01*
X10663761Y30256816D01*
X10644722Y30100004D01*
X10644722Y30099997D01*
X10663761Y29943185D01*
X10678812Y29903500D01*
X10719780Y29795477D01*
X10719781Y29795475D01*
X10719782Y29795474D01*
X10719783Y29795471D01*
X10787216Y29697778D01*
X10809517Y29665470D01*
X10927760Y29560717D01*
X11067635Y29487304D01*
X11067636Y29487304D01*
X11067638Y29487303D01*
X11142580Y29468832D01*
X11221015Y29449500D01*
X11221017Y29449500D01*
X11378983Y29449500D01*
X11378985Y29449500D01*
X11532365Y29487304D01*
X11672240Y29560717D01*
X11736689Y29617814D01*
X11800942Y29648013D01*
X11820241Y29649500D01*
X15411205Y29649500D01*
X15479326Y29629498D01*
X15500300Y29612596D01*
X16037595Y29075302D01*
X16071620Y29012989D01*
X16074500Y28986206D01*
X16074500Y28040621D01*
X16054498Y27972500D01*
X16000842Y27926007D01*
X15996720Y27924213D01*
X15940966Y27901119D01*
X15940961Y27901116D01*
X15818133Y27806868D01*
X15818133Y27806867D01*
X15763937Y27736236D01*
X15749963Y27718025D01*
X15692625Y27676158D01*
X15621754Y27671936D01*
X15559851Y27706700D01*
X15550037Y27718025D01*
X15537751Y27734037D01*
X15481867Y27806867D01*
X15359037Y27901117D01*
X15359036Y27901118D01*
X15359033Y27901120D01*
X15215999Y27960365D01*
X15101041Y27975500D01*
X15101040Y27975500D01*
X14448960Y27975500D01*
X14448958Y27975500D01*
X14334000Y27960365D01*
X14190966Y27901120D01*
X14068132Y27806868D01*
X14068133Y27806867D01*
X13986516Y27700500D01*
X13986161Y27700038D01*
X13928823Y27658171D01*
X13857952Y27653949D01*
X13839751Y27660689D01*
X13839488Y27659994D01*
X13832361Y27662698D01*
X13678987Y27700500D01*
X13678985Y27700500D01*
X13521015Y27700500D01*
X13521012Y27700500D01*
X13367638Y27662698D01*
X13367634Y27662696D01*
X13227759Y27589283D01*
X13109518Y27484532D01*
X13109516Y27484530D01*
X13019783Y27354530D01*
X13019782Y27354527D01*
X12963761Y27206816D01*
X12944722Y27050004D01*
X12944722Y27049997D01*
X12963761Y26893185D01*
X12980474Y26849118D01*
X13019780Y26745477D01*
X13019781Y26745475D01*
X13019782Y26745474D01*
X13019783Y26745471D01*
X13109516Y26615471D01*
X13109518Y26615469D01*
X13134540Y26593302D01*
X13227760Y26510717D01*
X13367635Y26437304D01*
X13367636Y26437304D01*
X13367638Y26437303D01*
X13444324Y26418402D01*
X13521015Y26399500D01*
X13521017Y26399500D01*
X13678983Y26399500D01*
X13678985Y26399500D01*
X13832365Y26437304D01*
X13944239Y26496022D01*
X14013848Y26509967D01*
X14079495Y26484415D01*
X14190963Y26398882D01*
X14281162Y26361522D01*
X14334001Y26339635D01*
X14448960Y26324500D01*
X14448967Y26324500D01*
X15101033Y26324500D01*
X15101040Y26324500D01*
X15215999Y26339635D01*
X15322490Y26383745D01*
X15359033Y26398881D01*
X15359033Y26398882D01*
X15359037Y26398883D01*
X15481867Y26493133D01*
X15550037Y26581976D01*
X15607375Y26623843D01*
X15678245Y26628065D01*
X15740149Y26593302D01*
X15749960Y26581979D01*
X15758073Y26571405D01*
X15815917Y26496020D01*
X15818133Y26493133D01*
X15940158Y26399501D01*
X15940966Y26398881D01*
X16021618Y26365475D01*
X16084001Y26339635D01*
X16198960Y26324500D01*
X16198967Y26324500D01*
X16851033Y26324500D01*
X16851040Y26324500D01*
X16965999Y26339635D01*
X17072490Y26383745D01*
X17109033Y26398881D01*
X17109033Y26398882D01*
X17109037Y26398883D01*
X17231867Y26493133D01*
X17326117Y26615963D01*
X17385365Y26759001D01*
X17400500Y26873960D01*
X17400500Y27426040D01*
X17385365Y27540999D01*
X17338580Y27653949D01*
X17326119Y27684034D01*
X17313839Y27700038D01*
X17231867Y27806867D01*
X17109037Y27901117D01*
X17109034Y27901118D01*
X17109033Y27901119D01*
X17053280Y27924213D01*
X16998000Y27968762D01*
X16975580Y28036126D01*
X16975500Y28040621D01*
X16975500Y28604726D01*
X16975500Y29196177D01*
X16975896Y29203219D01*
X16980270Y29242034D01*
X16980269Y29242038D01*
X16969212Y29300479D01*
X16964786Y29329838D01*
X16960348Y29359287D01*
X16960344Y29359295D01*
X16957820Y29367480D01*
X16955023Y29375471D01*
X16955023Y29375472D01*
X16927226Y29428064D01*
X16907592Y29468835D01*
X16896059Y29538885D01*
X16924229Y29604054D01*
X16983160Y29643647D01*
X17021116Y29649500D01*
X18175206Y29649500D01*
X18243327Y29629498D01*
X18264301Y29612595D01*
X19572345Y28304552D01*
X19606370Y28242240D01*
X19609250Y28215457D01*
X19609250Y24592932D01*
X19589248Y24524811D01*
X19538589Y24479735D01*
X19453215Y24437999D01*
X19370503Y24355287D01*
X19370501Y24355284D01*
X19319127Y24250196D01*
X19309200Y24182063D01*
X19309200Y23861538D01*
X19319628Y23789966D01*
X19319628Y23753636D01*
X19309200Y23682064D01*
X19309200Y23361539D01*
X19319628Y23289967D01*
X19319628Y23253636D01*
X19309200Y23182064D01*
X19309200Y22861537D01*
X19319628Y22789965D01*
X19319628Y22753635D01*
X19309200Y22682063D01*
X19309200Y22361538D01*
X19319127Y22293405D01*
X19370501Y22188317D01*
X19370503Y22188314D01*
X19453214Y22105603D01*
X19453217Y22105601D01*
X19558307Y22054226D01*
X19626440Y22044299D01*
X19626445Y22044299D01*
X20493055Y22044299D01*
X20493060Y22044299D01*
X20561193Y22054226D01*
X20569929Y22058497D01*
X20625267Y22071299D01*
X21603883Y22071299D01*
X21672004Y22051297D01*
X21718497Y21997641D01*
X21720292Y21993517D01*
X21729881Y21970366D01*
X21729882Y21970364D01*
X21729883Y21970363D01*
X21823043Y21848954D01*
X21824134Y21847532D01*
X21890774Y21796398D01*
X21932642Y21739060D01*
X21936864Y21668189D01*
X21902101Y21606286D01*
X21890776Y21596473D01*
X21811533Y21535668D01*
X21717282Y21412836D01*
X21714900Y21407084D01*
X21670352Y21351802D01*
X21602989Y21329380D01*
X21598490Y21329300D01*
X21107644Y21329300D01*
X21100587Y21329696D01*
X21061765Y21334070D01*
X21061764Y21334070D01*
X21003311Y21323011D01*
X20944513Y21314149D01*
X20936353Y21311632D01*
X20928330Y21308825D01*
X20875726Y21281023D01*
X20822156Y21255225D01*
X20815125Y21250432D01*
X20808263Y21245367D01*
X20766213Y21203317D01*
X20722608Y21162858D01*
X20716719Y21155473D01*
X20716044Y21156011D01*
X20706579Y21143684D01*
X18950300Y19387404D01*
X18887990Y19353380D01*
X18861207Y19350500D01*
X17544910Y19350500D01*
X17476789Y19370502D01*
X17430296Y19424158D01*
X17428500Y19428284D01*
X17426117Y19434036D01*
X17426117Y19434037D01*
X17331867Y19556867D01*
X17209037Y19651117D01*
X17209036Y19651118D01*
X17209033Y19651120D01*
X17065999Y19710365D01*
X16951041Y19725500D01*
X16951040Y19725500D01*
X16298960Y19725500D01*
X16298958Y19725500D01*
X16184000Y19710365D01*
X16040966Y19651120D01*
X15918133Y19556867D01*
X15849963Y19468025D01*
X15792625Y19426158D01*
X15721754Y19421936D01*
X15659851Y19456700D01*
X15650037Y19468025D01*
X15581867Y19556867D01*
X15459037Y19651117D01*
X15459036Y19651118D01*
X15459033Y19651120D01*
X15315999Y19710365D01*
X15201041Y19725500D01*
X15201040Y19725500D01*
X14548960Y19725500D01*
X14548958Y19725500D01*
X14434000Y19710365D01*
X14290966Y19651120D01*
X14168133Y19556867D01*
X14073882Y19434036D01*
X14071500Y19428284D01*
X14026952Y19373002D01*
X13959589Y19350580D01*
X13955090Y19350500D01*
X12838793Y19350500D01*
X12770672Y19370502D01*
X12749698Y19387405D01*
X12288535Y19848568D01*
X12254509Y19910880D01*
X12252549Y19922476D01*
X12236238Y20056816D01*
X12221576Y20095475D01*
X12180220Y20204523D01*
X12180216Y20204528D01*
X12180216Y20204530D01*
X12090483Y20334530D01*
X12090481Y20334532D01*
X11972240Y20439283D01*
X11832365Y20512696D01*
X11832361Y20512698D01*
X11678987Y20550500D01*
X11678985Y20550500D01*
X11521015Y20550500D01*
X11521012Y20550500D01*
X11367638Y20512698D01*
X11367634Y20512696D01*
X11227759Y20439283D01*
X11109518Y20334532D01*
X11109516Y20334530D01*
X11019783Y20204530D01*
X11019782Y20204527D01*
X10963761Y20056816D01*
X10944722Y19900004D01*
X10944722Y19899997D01*
X10963761Y19743185D01*
X10982724Y19693185D01*
X11019780Y19595477D01*
X11019781Y19595475D01*
X11019782Y19595474D01*
X11019783Y19595471D01*
X11107753Y19468025D01*
X11109517Y19465470D01*
X11227760Y19360717D01*
X11367635Y19287304D01*
X11367636Y19287304D01*
X11367638Y19287303D01*
X11444325Y19268402D01*
X11521015Y19249500D01*
X11561205Y19249500D01*
X11629326Y19229498D01*
X11650300Y19212596D01*
X12261051Y18601846D01*
X12265761Y18596575D01*
X12273155Y18587304D01*
X12290121Y18566030D01*
X12339271Y18532520D01*
X12387118Y18497207D01*
X12387121Y18497206D01*
X12394660Y18493221D01*
X12402324Y18489530D01*
X12402327Y18489528D01*
X12459177Y18471993D01*
X12515301Y18452354D01*
X12515309Y18452354D01*
X12523682Y18450769D01*
X12532096Y18449501D01*
X12532098Y18449500D01*
X12532100Y18449500D01*
X12591559Y18449500D01*
X12651010Y18447275D01*
X12651014Y18447277D01*
X12660395Y18448332D01*
X12660492Y18447471D01*
X12675903Y18449500D01*
X13955090Y18449500D01*
X14023211Y18429498D01*
X14069704Y18375842D01*
X14071500Y18371716D01*
X14073883Y18365963D01*
X14168133Y18243133D01*
X14212008Y18209467D01*
X14224394Y18199963D01*
X14266261Y18142625D01*
X14270483Y18071754D01*
X14235719Y18009851D01*
X14224396Y18000040D01*
X14178081Y17964500D01*
X14168133Y17956867D01*
X14073882Y17834036D01*
X14071500Y17828284D01*
X14026952Y17773002D01*
X13959589Y17750580D01*
X13955090Y17750500D01*
X8938794Y17750500D01*
X8870673Y17770502D01*
X8849699Y17787405D01*
X6838535Y19798568D01*
X6804510Y19860880D01*
X6802549Y19872476D01*
X6786238Y20006816D01*
X6767275Y20056816D01*
X6730220Y20154523D01*
X6730216Y20154528D01*
X6730216Y20154530D01*
X6640483Y20284530D01*
X6640481Y20284532D01*
X6522240Y20389283D01*
X6382365Y20462696D01*
X6382361Y20462698D01*
X6228987Y20500500D01*
X6228985Y20500500D01*
X6071015Y20500500D01*
X6071012Y20500500D01*
X5917638Y20462698D01*
X5917634Y20462696D01*
X5777759Y20389283D01*
X5659518Y20284532D01*
X5659516Y20284530D01*
X5569783Y20154530D01*
X5569782Y20154527D01*
X5513761Y20006816D01*
X5494722Y19850004D01*
X5494722Y19849997D01*
X5513761Y19693185D01*
X5525770Y19661521D01*
X5569780Y19545477D01*
X5569781Y19545475D01*
X5569782Y19545474D01*
X5569783Y19545471D01*
X5653520Y19424158D01*
X5659517Y19415470D01*
X5777760Y19310717D01*
X5917635Y19237304D01*
X5917636Y19237304D01*
X5917638Y19237303D01*
X5994325Y19218402D01*
X6071015Y19199500D01*
X6111206Y19199500D01*
X6179327Y19179498D01*
X6200301Y19162595D01*
X8361056Y17001841D01*
X8365758Y16996579D01*
X8390119Y16966032D01*
X8390121Y16966030D01*
X8439271Y16932520D01*
X8487118Y16897207D01*
X8487121Y16897206D01*
X8494660Y16893221D01*
X8502324Y16889530D01*
X8502327Y16889528D01*
X8559177Y16871993D01*
X8615301Y16852354D01*
X8615307Y16852354D01*
X8623715Y16850763D01*
X8632094Y16849500D01*
X8691574Y16849500D01*
X8751010Y16847276D01*
X8751016Y16847278D01*
X8760390Y16848333D01*
X8760487Y16847472D01*
X8775897Y16849500D01*
X11812487Y16849500D01*
X11880608Y16829498D01*
X11927101Y16775842D01*
X11937205Y16705568D01*
X11930299Y16678820D01*
X11913762Y16635216D01*
X11894722Y16478403D01*
X11894722Y16478396D01*
X11913761Y16321584D01*
X11936844Y16260720D01*
X11969780Y16173876D01*
X11969781Y16173874D01*
X11969782Y16173873D01*
X11969783Y16173870D01*
X12059516Y16043870D01*
X12059518Y16043868D01*
X12099534Y16008417D01*
X12177760Y15939116D01*
X12317635Y15865703D01*
X12317636Y15865703D01*
X12317638Y15865702D01*
X12384543Y15849212D01*
X12471015Y15827899D01*
X12511206Y15827899D01*
X12579327Y15807897D01*
X12600301Y15790994D01*
X13839455Y14551841D01*
X13844157Y14546579D01*
X13865224Y14520163D01*
X13868520Y14516030D01*
X13917670Y14482520D01*
X13965517Y14447207D01*
X13965520Y14447206D01*
X13973058Y14443222D01*
X13980720Y14439532D01*
X13980726Y14439528D01*
X13980731Y14439527D01*
X13989235Y14435431D01*
X13987577Y14431989D01*
X14031419Y14402982D01*
X14051516Y14369961D01*
X14073882Y14315965D01*
X14073883Y14315963D01*
X14168133Y14193133D01*
X14223175Y14150898D01*
X14224394Y14149963D01*
X14266261Y14092625D01*
X14270483Y14021754D01*
X14235719Y13959851D01*
X14224394Y13950037D01*
X14168133Y13906867D01*
X14073882Y13784036D01*
X14071500Y13778284D01*
X14026952Y13723002D01*
X13959589Y13700580D01*
X13955090Y13700500D01*
X10438793Y13700500D01*
X10370672Y13720502D01*
X10349698Y13737405D01*
X6838535Y17248568D01*
X6804509Y17310880D01*
X6802549Y17322476D01*
X6786238Y17456816D01*
X6773324Y17490866D01*
X6730220Y17604523D01*
X6730216Y17604528D01*
X6730216Y17604530D01*
X6640483Y17734530D01*
X6640481Y17734532D01*
X6522240Y17839283D01*
X6382365Y17912696D01*
X6382361Y17912698D01*
X6228987Y17950500D01*
X6228985Y17950500D01*
X6071015Y17950500D01*
X6071012Y17950500D01*
X5917638Y17912698D01*
X5917634Y17912696D01*
X5777759Y17839283D01*
X5659518Y17734532D01*
X5659516Y17734530D01*
X5569783Y17604530D01*
X5569782Y17604527D01*
X5513761Y17456816D01*
X5494722Y17300004D01*
X5494722Y17299997D01*
X25500Y17299997D01*
X25500Y26414583D01*
X10232567Y26414583D01*
X10251606Y26257771D01*
X10267069Y26217000D01*
X10307625Y26110063D01*
X10307626Y26110061D01*
X10307627Y26110060D01*
X10307628Y26110057D01*
X10397361Y25980057D01*
X10402418Y25974349D01*
X10400766Y25972886D01*
X10432626Y25922081D01*
X10437344Y25887926D01*
X10437345Y25452997D01*
X10436949Y25445941D01*
X10432575Y25407118D01*
X10443633Y25348674D01*
X10444017Y25346124D01*
X10452498Y25289862D01*
X10455005Y25281732D01*
X10457823Y25273679D01*
X10485621Y25221081D01*
X10511420Y25167510D01*
X10516231Y25160454D01*
X10521280Y25153613D01*
X10563339Y25111555D01*
X10603790Y25067959D01*
X10603791Y25067958D01*
X10611170Y25062074D01*
X10610628Y25061395D01*
X10622959Y25051935D01*
X10773051Y24901844D01*
X10777761Y24896573D01*
X10797180Y24872223D01*
X10802120Y24866029D01*
X10802123Y24866027D01*
X10802124Y24866026D01*
X10810241Y24860492D01*
X10851270Y24832519D01*
X10899117Y24797206D01*
X10899120Y24797205D01*
X10906659Y24793220D01*
X10914323Y24789529D01*
X10914326Y24789527D01*
X10971176Y24771992D01*
X11027300Y24752353D01*
X11027308Y24752353D01*
X11035681Y24750768D01*
X11044095Y24749500D01*
X11044097Y24749499D01*
X11044099Y24749499D01*
X11103558Y24749499D01*
X11163009Y24747274D01*
X11163013Y24747276D01*
X11172394Y24748331D01*
X11172491Y24747470D01*
X11187902Y24749499D01*
X11436943Y24749499D01*
X11505064Y24729497D01*
X11526038Y24712594D01*
X13473592Y22765041D01*
X13478294Y22759779D01*
X13485940Y22750192D01*
X13502657Y22729230D01*
X13551807Y22695720D01*
X13599654Y22660407D01*
X13599657Y22660406D01*
X13607196Y22656421D01*
X13614860Y22652730D01*
X13614863Y22652728D01*
X13671713Y22635193D01*
X13727837Y22615554D01*
X13727843Y22615554D01*
X13736251Y22613963D01*
X13744630Y22612700D01*
X13804110Y22612700D01*
X13863546Y22610476D01*
X13863552Y22610478D01*
X13872926Y22611533D01*
X13873023Y22610672D01*
X13888433Y22612700D01*
X15953910Y22612700D01*
X16022031Y22592698D01*
X16068524Y22539042D01*
X16078628Y22468768D01*
X16049134Y22404188D01*
X16043005Y22397605D01*
X16040200Y22394800D01*
X16040200Y22346202D01*
X16046705Y22285706D01*
X16097755Y22148835D01*
X16097755Y22148834D01*
X16185295Y22031895D01*
X16302234Y21944355D01*
X16439106Y21893305D01*
X16499602Y21886800D01*
X16499615Y21886799D01*
X16821250Y21886799D01*
X16821250Y22418300D01*
X16841252Y22486421D01*
X16894908Y22532914D01*
X16947250Y22544300D01*
X16949250Y22544300D01*
X17017371Y22524298D01*
X17063864Y22470642D01*
X17075250Y22418300D01*
X17075250Y21886799D01*
X17396885Y21886799D01*
X17396897Y21886800D01*
X17457393Y21893305D01*
X17594264Y21944355D01*
X17594265Y21944355D01*
X17711204Y22031895D01*
X17798744Y22148834D01*
X17798744Y22148835D01*
X17849794Y22285706D01*
X17856299Y22346202D01*
X17856300Y22346214D01*
X17856300Y22394799D01*
X17648171Y22394799D01*
X17580050Y22414801D01*
X17533557Y22468457D01*
X17523453Y22538731D01*
X17552947Y22603311D01*
X17559076Y22609894D01*
X17561076Y22611894D01*
X17623388Y22645920D01*
X17650171Y22648799D01*
X17856300Y22648799D01*
X17856300Y22697385D01*
X17856299Y22697397D01*
X17849794Y22757893D01*
X17798745Y22894762D01*
X17760171Y22946290D01*
X17735360Y23012810D01*
X17750451Y23082184D01*
X17760172Y23097311D01*
X17798744Y23148837D01*
X17849794Y23285707D01*
X17856299Y23346203D01*
X17856300Y23346215D01*
X17856300Y23394800D01*
X17650172Y23394800D01*
X17582051Y23414802D01*
X17561077Y23431705D01*
X17560076Y23432706D01*
X17526050Y23495018D01*
X17531115Y23565833D01*
X17560118Y23610939D01*
X17561119Y23611940D01*
X17623449Y23645934D01*
X17650171Y23648800D01*
X17856300Y23648800D01*
X17856300Y23697386D01*
X17856299Y23697398D01*
X17849794Y23757894D01*
X17798744Y23894765D01*
X17798744Y23894766D01*
X17723932Y23994702D01*
X17699121Y24061222D01*
X17698800Y24070211D01*
X17698800Y24182057D01*
X17698800Y24182061D01*
X17688873Y24250194D01*
X17637498Y24355284D01*
X17637496Y24355287D01*
X17554785Y24437998D01*
X17554782Y24438000D01*
X17449694Y24489374D01*
X17381561Y24499301D01*
X17381560Y24499301D01*
X16514940Y24499301D01*
X16514938Y24499301D01*
X16446805Y24489374D01*
X16341718Y24438001D01*
X16324734Y24421017D01*
X16262421Y24386993D01*
X16254422Y24385522D01*
X16245316Y24384150D01*
X16237134Y24381627D01*
X16229131Y24378826D01*
X16176527Y24351024D01*
X16122957Y24325226D01*
X16115926Y24320433D01*
X16109064Y24315368D01*
X16067014Y24273318D01*
X16023409Y24232859D01*
X16017520Y24225474D01*
X16016844Y24226013D01*
X16007383Y24213688D01*
X15801502Y24007805D01*
X15739190Y23973780D01*
X15712406Y23970900D01*
X14310395Y23970900D01*
X14242274Y23990902D01*
X14221300Y24007804D01*
X13493273Y24735830D01*
X13478260Y24753950D01*
X13471628Y24763677D01*
X13466562Y24770542D01*
X13424516Y24812587D01*
X13384054Y24856196D01*
X13376674Y24862081D01*
X13377213Y24862758D01*
X13364880Y24872223D01*
X12403768Y25833335D01*
X12370022Y25894394D01*
X12368428Y25901378D01*
X12367354Y25904114D01*
X12360048Y25931374D01*
X12359610Y25934287D01*
X12338480Y25978163D01*
X12336603Y25982466D01*
X12318813Y26027797D01*
X12318812Y26027798D01*
X12316977Y26030099D01*
X12301964Y26053990D01*
X12300687Y26056642D01*
X12300684Y26056645D01*
X12267571Y26092333D01*
X12264496Y26095906D01*
X12234143Y26133968D01*
X12234142Y26133969D01*
X12234141Y26133970D01*
X12231700Y26135635D01*
X12210327Y26154029D01*
X12208321Y26156191D01*
X12208318Y26156193D01*
X12208317Y26156194D01*
X12166155Y26180536D01*
X12162169Y26183041D01*
X12121936Y26210472D01*
X12121930Y26210475D01*
X12119117Y26211342D01*
X12093256Y26222624D01*
X12090707Y26224096D01*
X12090706Y26224097D01*
X12090705Y26224097D01*
X12043230Y26234933D01*
X12038695Y26236148D01*
X12008723Y26245393D01*
X11987951Y26251800D01*
X11941539Y26277889D01*
X11872238Y26339283D01*
X11732363Y26412696D01*
X11732359Y26412698D01*
X11621966Y26439906D01*
X11560611Y26475629D01*
X11528310Y26538852D01*
X11527040Y26547041D01*
X11524082Y26571404D01*
X11468065Y26719109D01*
X11468061Y26719114D01*
X11468061Y26719116D01*
X11378328Y26849116D01*
X11378326Y26849118D01*
X11260085Y26953869D01*
X11120210Y27027282D01*
X11120206Y27027284D01*
X10966832Y27065086D01*
X10966830Y27065086D01*
X10808860Y27065086D01*
X10808857Y27065086D01*
X10655483Y27027284D01*
X10655479Y27027282D01*
X10515604Y26953869D01*
X10397363Y26849118D01*
X10397361Y26849116D01*
X10307628Y26719116D01*
X10307627Y26719113D01*
X10307626Y26719111D01*
X10307625Y26719109D01*
X10297301Y26691887D01*
X10251606Y26571402D01*
X10232567Y26414590D01*
X10232567Y26414583D01*
X25500Y26414583D01*
X25500Y38970437D01*
X5619534Y38970437D01*
X5639312Y38820203D01*
X5697301Y38680206D01*
X5697306Y38680198D01*
X5789548Y38559986D01*
X5876605Y38493185D01*
X5909767Y38467739D01*
X6049764Y38409750D01*
X6200000Y38389971D01*
X6350236Y38409750D01*
X6490233Y38467739D01*
X6610451Y38559986D01*
X6702698Y38680204D01*
X6760687Y38820201D01*
X6780466Y38970437D01*
X6760687Y39120673D01*
X6702698Y39260670D01*
X6702693Y39260677D01*
X6610451Y39380889D01*
X6490239Y39473131D01*
X6490231Y39473136D01*
X6350234Y39531125D01*
X6200000Y39550903D01*
X6049765Y39531125D01*
X5909768Y39473136D01*
X5909760Y39473131D01*
X5789548Y39380889D01*
X5697306Y39260677D01*
X5697301Y39260669D01*
X5639312Y39120672D01*
X5619534Y38970438D01*
X5619534Y38970437D01*
X25500Y38970437D01*
X25500Y39848500D01*
X45502Y39916621D01*
X99158Y39963114D01*
X151500Y39974500D01*
X469863Y39974500D01*
X480425Y39972399D01*
X500000Y39972399D01*
X519517Y39980483D01*
X525500Y39994928D01*
X526851Y39998190D01*
X531926Y40010439D01*
X525519Y40030903D01*
X525499Y40033152D01*
X525499Y43477290D01*
X525499Y46718818D01*
X1399500Y46718818D01*
X1405131Y46681462D01*
X1438604Y46459381D01*
X1515933Y46208686D01*
X1515938Y46208673D01*
X1629773Y45972294D01*
X1629777Y45972287D01*
X1777562Y45755528D01*
X1777567Y45755521D01*
X1956019Y45563195D01*
X2161143Y45399614D01*
X2161146Y45399612D01*
X2388352Y45268434D01*
X2388356Y45268433D01*
X2388357Y45268432D01*
X2632584Y45172580D01*
X2888370Y45114198D01*
X3040409Y45102805D01*
X3084503Y45099500D01*
X3084506Y45099500D01*
X3215497Y45099500D01*
X3256516Y45102575D01*
X3411630Y45114198D01*
X3667416Y45172580D01*
X3911643Y45268432D01*
X3911645Y45268434D01*
X3911647Y45268434D01*
X4069526Y45359586D01*
X4138857Y45399614D01*
X4343981Y45563195D01*
X4522433Y45755521D01*
X4670228Y45972296D01*
X4784063Y46208677D01*
X4787366Y46219385D01*
X4861395Y46459381D01*
X4861792Y46462014D01*
X4900500Y46718818D01*
X4900500Y46793670D01*
X6045710Y46793670D01*
X6060909Y46681464D01*
X6075925Y46570610D01*
X6145484Y46356533D01*
X6252144Y46158325D01*
X6252148Y46158318D01*
X6364069Y46017974D01*
X6392492Y45982334D01*
X6562004Y45834235D01*
X6755236Y45718785D01*
X6965976Y45639693D01*
X6965978Y45639693D01*
X6965980Y45639692D01*
X7099229Y45615511D01*
X7187453Y45599500D01*
X7187454Y45599500D01*
X7356149Y45599500D01*
X7356155Y45599500D01*
X7513759Y45613685D01*
X7524189Y45614623D01*
X7524189Y45614624D01*
X7699507Y45663009D01*
X7741167Y45674506D01*
X7741167Y45674507D01*
X7741170Y45674507D01*
X7943973Y45772171D01*
X8126078Y45904478D01*
X8281632Y46067175D01*
X8405635Y46255032D01*
X8494103Y46462012D01*
X8544191Y46681463D01*
X8549230Y46793670D01*
X41445710Y46793670D01*
X41460909Y46681464D01*
X41475925Y46570610D01*
X41545484Y46356533D01*
X41652144Y46158325D01*
X41652148Y46158318D01*
X41764069Y46017974D01*
X41792492Y45982334D01*
X41962004Y45834235D01*
X42155236Y45718785D01*
X42365976Y45639693D01*
X42365978Y45639693D01*
X42365980Y45639692D01*
X42499229Y45615511D01*
X42587453Y45599500D01*
X42587454Y45599500D01*
X42756149Y45599500D01*
X42756155Y45599500D01*
X42913759Y45613685D01*
X42924189Y45614623D01*
X42924189Y45614624D01*
X43099507Y45663009D01*
X43141167Y45674506D01*
X43141167Y45674507D01*
X43141170Y45674507D01*
X43343973Y45772171D01*
X43526078Y45904478D01*
X43681632Y46067175D01*
X43805635Y46255032D01*
X43894103Y46462012D01*
X43944191Y46681463D01*
X43945869Y46718818D01*
X45099500Y46718818D01*
X45105131Y46681462D01*
X45138604Y46459381D01*
X45215933Y46208686D01*
X45215938Y46208673D01*
X45329773Y45972294D01*
X45329777Y45972287D01*
X45477562Y45755528D01*
X45477567Y45755521D01*
X45656019Y45563195D01*
X45861143Y45399614D01*
X45861146Y45399612D01*
X46088352Y45268434D01*
X46088356Y45268433D01*
X46088357Y45268432D01*
X46332584Y45172580D01*
X46588370Y45114198D01*
X46740409Y45102805D01*
X46784503Y45099500D01*
X46784506Y45099500D01*
X46915497Y45099500D01*
X46956516Y45102575D01*
X47111630Y45114198D01*
X47367416Y45172580D01*
X47611643Y45268432D01*
X47611645Y45268434D01*
X47611647Y45268434D01*
X47769526Y45359586D01*
X47838857Y45399614D01*
X48043981Y45563195D01*
X48222433Y45755521D01*
X48370228Y45972296D01*
X48484063Y46208677D01*
X48487366Y46219385D01*
X48561395Y46459381D01*
X48561792Y46462014D01*
X48600500Y46718818D01*
X48600500Y46981182D01*
X48561396Y47240615D01*
X48561395Y47240617D01*
X48561395Y47240620D01*
X48484066Y47491315D01*
X48484061Y47491328D01*
X48375061Y47717668D01*
X48370228Y47727704D01*
X48370226Y47727707D01*
X48370222Y47727714D01*
X48222437Y47944473D01*
X48222433Y47944479D01*
X48043981Y48136805D01*
X47838857Y48300386D01*
X47838852Y48300389D01*
X47838853Y48300389D01*
X47611647Y48431567D01*
X47611639Y48431570D01*
X47367419Y48527419D01*
X47367417Y48527420D01*
X47111632Y48585802D01*
X46915497Y48600500D01*
X46915494Y48600500D01*
X46784506Y48600500D01*
X46784503Y48600500D01*
X46588367Y48585802D01*
X46332582Y48527420D01*
X46332580Y48527419D01*
X46088360Y48431570D01*
X46088352Y48431567D01*
X45861146Y48300389D01*
X45656018Y48136805D01*
X45477566Y47944478D01*
X45477562Y47944473D01*
X45329777Y47727714D01*
X45329773Y47727707D01*
X45215938Y47491328D01*
X45215933Y47491315D01*
X45138604Y47240620D01*
X45125362Y47152765D01*
X45099500Y46981182D01*
X45099500Y46718818D01*
X43945869Y46718818D01*
X43954290Y46906330D01*
X43924075Y47129387D01*
X43854517Y47343464D01*
X43799897Y47444965D01*
X43747855Y47541676D01*
X43747851Y47541683D01*
X43607506Y47717668D01*
X43437998Y47865763D01*
X43437996Y47865765D01*
X43244764Y47981215D01*
X43126780Y48025495D01*
X43034019Y48060309D01*
X42844091Y48094776D01*
X42812547Y48100500D01*
X42643845Y48100500D01*
X42612558Y48097685D01*
X42475810Y48085378D01*
X42475810Y48085377D01*
X42258832Y48025495D01*
X42056031Y47927832D01*
X42056023Y47927827D01*
X41873921Y47795522D01*
X41873920Y47795521D01*
X41718369Y47632828D01*
X41594367Y47444973D01*
X41594363Y47444965D01*
X41505897Y47237989D01*
X41505896Y47237987D01*
X41455809Y47018539D01*
X41455809Y47018537D01*
X41450770Y46906327D01*
X41445710Y46793670D01*
X8549230Y46793670D01*
X8554290Y46906330D01*
X8524075Y47129387D01*
X8454517Y47343464D01*
X8399897Y47444965D01*
X8347855Y47541676D01*
X8347851Y47541683D01*
X8207506Y47717668D01*
X8037998Y47865763D01*
X8037996Y47865765D01*
X7844764Y47981215D01*
X7726780Y48025495D01*
X7634019Y48060309D01*
X7444091Y48094776D01*
X7412547Y48100500D01*
X7243845Y48100500D01*
X7212558Y48097685D01*
X7075810Y48085378D01*
X7075810Y48085377D01*
X6858832Y48025495D01*
X6656031Y47927832D01*
X6656023Y47927827D01*
X6473921Y47795522D01*
X6473920Y47795521D01*
X6318369Y47632828D01*
X6194367Y47444973D01*
X6194363Y47444965D01*
X6105897Y47237989D01*
X6105896Y47237987D01*
X6055809Y47018539D01*
X6055809Y47018537D01*
X6050770Y46906327D01*
X6045710Y46793670D01*
X4900500Y46793670D01*
X4900500Y46981182D01*
X4861396Y47240615D01*
X4861395Y47240617D01*
X4861395Y47240620D01*
X4784066Y47491315D01*
X4784061Y47491328D01*
X4675061Y47717668D01*
X4670228Y47727704D01*
X4670226Y47727707D01*
X4670222Y47727714D01*
X4522437Y47944473D01*
X4522433Y47944479D01*
X4343981Y48136805D01*
X4138857Y48300386D01*
X4138852Y48300389D01*
X4138853Y48300389D01*
X3911647Y48431567D01*
X3911639Y48431570D01*
X3667419Y48527419D01*
X3667417Y48527420D01*
X3411632Y48585802D01*
X3215497Y48600500D01*
X3215494Y48600500D01*
X3084506Y48600500D01*
X3084503Y48600500D01*
X2888367Y48585802D01*
X2632582Y48527420D01*
X2632580Y48527419D01*
X2388360Y48431570D01*
X2388352Y48431567D01*
X2161146Y48300389D01*
X1956018Y48136805D01*
X1777566Y47944478D01*
X1777562Y47944473D01*
X1629777Y47727714D01*
X1629773Y47727707D01*
X1515938Y47491328D01*
X1515933Y47491315D01*
X1438604Y47240620D01*
X1425362Y47152765D01*
X1399500Y46981182D01*
X1399500Y46718818D01*
X525499Y46718818D01*
X525499Y46998132D01*
X525612Y47001867D01*
X543312Y47294473D01*
X544227Y47302011D01*
X596719Y47588454D01*
X598535Y47595820D01*
X685171Y47873843D01*
X687861Y47880937D01*
X807377Y48146487D01*
X810910Y48153217D01*
X905038Y48308925D01*
X961558Y48402422D01*
X965867Y48408665D01*
X1145469Y48637910D01*
X1150494Y48643582D01*
X1356418Y48849506D01*
X1362090Y48854531D01*
X1591335Y49034133D01*
X1597578Y49038442D01*
X1846783Y49189090D01*
X1853513Y49192623D01*
X2119063Y49312139D01*
X2126157Y49314829D01*
X2404180Y49401465D01*
X2411546Y49403281D01*
X2697989Y49455773D01*
X2705527Y49456688D01*
X2998099Y49474386D01*
X3001903Y49474500D01*
X3008285Y49474500D01*
X9969863Y49474500D01*
X9980425Y49472399D01*
X10000000Y49472399D01*
X10019517Y49480483D01*
X10025500Y49494928D01*
X10027601Y49500000D01*
X10027600Y49500003D01*
X10027601Y49519565D01*
X10025500Y49530133D01*
X10025500Y49848500D01*
X10045502Y49916621D01*
X10099158Y49963114D01*
X10151500Y49974500D01*
X39848500Y49974500D01*
X39916621Y49954498D01*
G37*
G04 #@! TD.AperFunction*
M02*
