G04 #@! TF.GenerationSoftware,KiCad,Pcbnew,7.0.6*
G04 #@! TF.CreationDate,2023-07-11T17:22:40+08:00*
G04 #@! TF.ProjectId,m5-pantilt,6d352d70-616e-4746-996c-742e6b696361,1*
G04 #@! TF.SameCoordinates,PX5f5e100PY5f5e100*
G04 #@! TF.FileFunction,Paste,Top*
G04 #@! TF.FilePolarity,Positive*
%FSLAX46Y46*%
G04 Gerber Fmt 4.6, Leading zero omitted, Abs format (unit mm)*
G04 Created by KiCad (PCBNEW 7.0.6) date 2023-07-11 17:22:40*
%MOMM*%
%LPD*%
G01*
G04 APERTURE LIST*
G04 Aperture macros list*
%AMRoundRect*
0 Rectangle with rounded corners*
0 $1 Rounding radius*
0 $2 $3 $4 $5 $6 $7 $8 $9 X,Y pos of 4 corners*
0 Add a 4 corners polygon primitive as box body*
4,1,4,$2,$3,$4,$5,$6,$7,$8,$9,$2,$3,0*
0 Add four circle primitives for the rounded corners*
1,1,$1+$1,$2,$3*
1,1,$1+$1,$4,$5*
1,1,$1+$1,$6,$7*
1,1,$1+$1,$8,$9*
0 Add four rect primitives between the rounded corners*
20,1,$1+$1,$2,$3,$4,$5,0*
20,1,$1+$1,$4,$5,$6,$7,0*
20,1,$1+$1,$6,$7,$8,$9,0*
20,1,$1+$1,$8,$9,$2,$3,0*%
G04 Aperture macros list end*
%ADD10R,0.800100X0.254000*%
%ADD11RoundRect,0.237500X0.287500X0.237500X-0.287500X0.237500X-0.287500X-0.237500X0.287500X-0.237500X0*%
%ADD12RoundRect,0.237500X-0.287500X-0.237500X0.287500X-0.237500X0.287500X0.237500X-0.287500X0.237500X0*%
%ADD13RoundRect,0.250001X0.624999X-0.462499X0.624999X0.462499X-0.624999X0.462499X-0.624999X-0.462499X0*%
%ADD14RoundRect,0.250001X-0.624999X0.462499X-0.624999X-0.462499X0.624999X-0.462499X0.624999X0.462499X0*%
%ADD15R,0.900000X0.800000*%
%ADD16RoundRect,0.237500X0.237500X-0.287500X0.237500X0.287500X-0.237500X0.287500X-0.237500X-0.287500X0*%
G04 APERTURE END LIST*
D10*
X16948250Y24021801D03*
X16948250Y23521800D03*
X16948250Y23021800D03*
X16948250Y22521799D03*
X20059750Y22521799D03*
X20059750Y23021800D03*
X20059750Y23521800D03*
X20059750Y24021801D03*
D11*
X24268400Y20878800D03*
X22518400Y20878800D03*
X24268400Y19354800D03*
X22518400Y19354800D03*
D12*
X22531000Y31750000D03*
X24281000Y31750000D03*
D11*
X24281000Y22504400D03*
X22531000Y22504400D03*
D13*
X34544000Y25617500D03*
X34544000Y22642500D03*
D14*
X32258000Y25617500D03*
X32258000Y22642500D03*
X32004000Y17083100D03*
X32004000Y14108100D03*
D15*
X33800000Y4050000D03*
X33800000Y5950000D03*
X31800000Y5000000D03*
D16*
X35636200Y4128800D03*
X35636200Y5878800D03*
D12*
X14775000Y27150000D03*
X16525000Y27150000D03*
D11*
X16625000Y18900000D03*
X14875000Y18900000D03*
X16625000Y14850000D03*
X14875000Y14850000D03*
X16625000Y17300000D03*
X14875000Y17300000D03*
X16625000Y13250000D03*
X14875000Y13250000D03*
D12*
X22425000Y13100000D03*
X24175000Y13100000D03*
X22525000Y27200000D03*
X24275000Y27200000D03*
D11*
X24275000Y29050000D03*
X22525000Y29050000D03*
X24175000Y14800000D03*
X22425000Y14800000D03*
D14*
X34544000Y17018000D03*
X34544000Y14043000D03*
M02*
