M48
; DRILL file {KiCad 7.0.6} date Tue Jul 11 17:24:11 2023
; FORMAT={-:-/ absolute / inch / decimal}
; #@! TF.CreationDate,2023-07-11T17:24:11+08:00
; #@! TF.GenerationSoftware,Kicad,Pcbnew,7.0.6
; #@! TF.FileFunction,Plated,1,2,PTH
FMAT,2
INCH
; #@! TA.AperFunction,Plated,PTH,ViaDrill
T1C0.0118
; #@! TA.AperFunction,Plated,PTH,ComponentDrill
T2C0.0295
; #@! TA.AperFunction,Plated,PTH,ComponentDrill
T3C0.0354
; #@! TA.AperFunction,Plated,PTH,ComponentDrill
T4C0.0394
; #@! TA.AperFunction,Plated,PTH,ComponentDrill
T5C0.0591
%
G90
G05
T1
X0.0394Y1.5354
X0.0394Y1.3386
X0.0394Y1.1417
X0.0394Y0.9449
X0.0394Y0.7303
X0.0394Y0.5512
X0.0394Y0.4331
X0.0591Y1.7717
X0.0591Y0.1969
X0.182Y0.434
X0.2421Y0.7815
X0.2421Y0.7323
X0.2421Y0.6811
X0.246Y0.962
X0.2461Y0.4902
X0.306Y1.533
X0.308Y0.433
X0.315Y1.9094
X0.315Y0.0591
X0.3543Y0.2126
X0.36Y1.335
X0.3622Y0.8425
X0.3701Y1.1319
X0.378Y0.9331
X0.3996Y0.2283
X0.4287Y1.0399
X0.4291Y1.3248
X0.4291Y0.248
X0.43Y1.405
X0.4331Y0.0394
X0.437Y1.0906
X0.439Y1.498
X0.4449Y1.185
X0.4449Y0.626
X0.446Y0.434
X0.4528Y1.0157
X0.4567Y0.7835
X0.4724Y0.2953
X0.475Y1.545
X0.4764Y1.6339
X0.4941Y0.6488
X0.506Y0.79
X0.5157Y1.3071
X0.5276Y0.5551
X0.5354Y1.065
X0.5512Y1.5217
X0.5512Y1.9291
X0.5865Y1.5343
X0.6142Y0.2835
X0.6299Y0.0394
X0.6437Y1.7047
X0.6791Y1.126
X0.689Y1.3543
X0.722Y1.13
X0.7239Y0.9261
X0.748Y1.9291
X0.7559Y1.626
X0.7559Y1.5256
X0.7736Y1.4449
X0.8268Y0.988
X0.8268Y0.0394
X0.836Y0.852
X0.8504Y1.1969
X0.872Y0.937
X0.9429Y0.3701
X0.9449Y1.9291
X0.9724Y1.0079
X0.9803Y1.5276
X0.985Y1.33
X0.9933Y0.6071
X0.9941Y1.6516
X1.0Y0.9311
X1.0059Y0.8465
X1.0138Y0.4921
X1.0217Y0.7559
X1.0236Y0.0394
X1.0531Y0.8031
X1.0827Y0.725
X1.086Y0.162
X1.0866Y1.0217
X1.0866Y0.6378
X1.088Y1.378
X1.0886Y1.5945
X1.09Y1.23
X1.1417Y1.9291
X1.1732Y1.7165
X1.178Y0.248
X1.1811Y0.4665
X1.192Y1.432
X1.192Y0.916
X1.196Y0.602
X1.1969Y0.7638
X1.198Y1.129
X1.2205Y0.0394
X1.2638Y1.7028
X1.3268Y0.8346
X1.3386Y1.9291
X1.4134Y0.5984
X1.4173Y0.0394
X1.4193Y0.939
X1.444Y0.484
X1.488Y0.273
X1.5354Y1.9291
X1.549Y0.351
X1.564Y0.482
X1.6535Y1.9094
X1.6535Y0.0591
X1.6811Y0.8976
X1.706Y1.49
X1.726Y1.178
X1.806Y0.472
X1.82Y0.9
X1.82Y0.66
X1.9094Y1.752
X1.9094Y0.2165
X1.9291Y1.4567
X1.9291Y1.2598
X1.9291Y1.0236
X1.9291Y0.8268
X1.9291Y0.6299
X1.9291Y0.4331
T2
X0.5512Y1.7717
X0.6299Y1.7717
X0.7087Y1.7717
X0.7874Y1.7717
X1.063Y1.7717
X1.1417Y1.7717
X1.2205Y1.7717
X1.2992Y1.7717
X1.5772Y0.4173
X1.6559Y0.4173
T3
X1.8031Y1.5354
X1.8031Y1.4567
X1.8031Y1.378
T4
X0.5394Y0.3071
X0.5394Y0.2087
X1.49Y1.06
X1.49Y0.96
X1.49Y0.76
X1.49Y0.66
X1.59Y1.06
X1.59Y0.96
X1.59Y0.76
X1.59Y0.66
X1.69Y1.06
X1.69Y0.96
X1.69Y0.76
X1.69Y0.66
T5
X1.8031Y1.6181
X1.8031Y1.2953
T0
M30
