M48
; DRILL file {KiCad 7.0.6} date Tue Jul 11 17:35:21 2023
; FORMAT={-:-/ absolute / metric / decimal}
; #@! TF.CreationDate,2023-07-11T17:35:21+08:00
; #@! TF.GenerationSoftware,Kicad,Pcbnew,7.0.6
; #@! TF.FileFunction,MixedPlating,1,2
FMAT,2
METRIC
; #@! TA.AperFunction,Plated,PTH,ViaDrill
T1C0.300
; #@! TA.AperFunction,Plated,PTH,ComponentDrill
T2C0.750
; #@! TA.AperFunction,Plated,PTH,ComponentDrill
T3C0.900
; #@! TA.AperFunction,Plated,PTH,ComponentDrill
T4C1.000
; #@! TA.AperFunction,Plated,PTH,ComponentDrill
T5C1.500
; #@! TA.AperFunction,NonPlated,NPTH,ComponentDrill
T6C2.000
; #@! TA.AperFunction,NonPlated,NPTH,ComponentDrill
T7C3.000
%
G90
G05
T1
X101.0Y-61.0
X101.0Y-66.0
X101.0Y-71.0
X101.0Y-76.0
X101.0Y-81.45
X101.0Y-86.0
X101.0Y-89.0
X101.5Y-55.0
X101.5Y-95.0
X104.623Y-88.976
X106.15Y-80.15
X106.15Y-81.4
X106.15Y-82.7
X106.248Y-75.565
X106.25Y-87.55
X107.772Y-61.062
X107.823Y-89.002
X108.0Y-51.5
X108.0Y-98.5
X109.0Y-94.6
X109.144Y-66.091
X109.2Y-78.6
X109.4Y-71.25
X109.6Y-76.3
X110.15Y-94.2
X110.888Y-73.585
X110.9Y-66.35
X110.9Y-93.7
X110.922Y-64.313
X111.0Y-99.0
X111.1Y-72.3
X111.15Y-61.95
X111.3Y-69.9
X111.3Y-84.1
X111.328Y-88.976
X111.5Y-74.2
X111.6Y-80.1
X112.0Y-92.5
X112.065Y-60.757
X112.1Y-58.5
X112.55Y-83.522
X112.852Y-79.934
X113.1Y-66.8
X113.4Y-85.9
X113.6Y-72.95
X114.0Y-61.35
X114.0Y-51.0
X114.897Y-61.03
X115.6Y-92.8
X116.0Y-99.0
X116.35Y-56.7
X117.25Y-71.4
X117.5Y-65.6
X118.339Y-71.298
X118.388Y-76.478
X119.0Y-51.0
X119.2Y-58.7
X119.2Y-61.25
X119.65Y-63.3
X121.0Y-74.905
X121.0Y-99.0
X121.234Y-78.359
X121.6Y-69.6
X122.15Y-76.2
X123.95Y-90.6
X124.0Y-51.0
X124.7Y-74.4
X124.9Y-61.2
X125.019Y-66.218
X125.231Y-84.581
X125.25Y-58.05
X125.4Y-76.35
X125.55Y-78.5
X125.75Y-87.5
X125.95Y-80.8
X126.0Y-99.0
X126.75Y-79.6
X127.5Y-81.585
X127.584Y-95.885
X127.6Y-74.05
X127.6Y-83.8
X127.635Y-64.999
X127.65Y-59.5
X127.686Y-68.758
X129.0Y-51.0
X129.8Y-56.4
X129.921Y-93.701
X130.0Y-88.15
X130.277Y-63.627
X130.277Y-76.734
X130.378Y-84.709
X130.4Y-80.6
X130.429Y-71.323
X131.0Y-99.0
X132.1Y-56.75
X133.7Y-78.8
X134.0Y-51.0
X135.9Y-84.8
X136.0Y-99.0
X136.05Y-76.15
X136.678Y-87.706
X137.795Y-93.066
X139.0Y-51.0
X139.345Y-91.085
X139.726Y-87.757
X142.0Y-51.5
X142.0Y-98.5
X142.7Y-77.2
X143.332Y-62.154
X143.84Y-70.079
X145.872Y-88.011
X146.228Y-77.14
X146.228Y-83.236
X148.5Y-55.5
X148.5Y-94.5
X149.0Y-63.0
X149.0Y-68.0
X149.0Y-74.0
X149.0Y-79.0
X149.0Y-84.0
X149.0Y-89.0
T2
X114.0Y-55.0
X116.0Y-55.0
X118.0Y-55.0
X120.0Y-55.0
X127.0Y-55.0
X129.0Y-55.0
X131.0Y-55.0
X133.0Y-55.0
X140.06Y-89.4
X142.06Y-89.4
T3
X145.8Y-61.0
X145.8Y-63.0
X145.8Y-65.0
T4
X113.7Y-92.2
X113.7Y-94.7
X137.846Y-73.076
X137.846Y-75.616
X137.846Y-80.696
X137.846Y-83.236
X140.386Y-73.076
X140.386Y-75.616
X140.386Y-80.696
X140.386Y-83.236
X142.926Y-73.076
X142.926Y-75.616
X142.926Y-80.696
X142.926Y-83.236
T5
X145.8Y-58.9
X145.8Y-67.1
T6
X107.3Y-53.15
X107.3Y-96.85
X142.7Y-53.15
X142.7Y-96.85
T7
X103.15Y-53.15
X103.15Y-96.85
X146.85Y-53.15
X146.85Y-96.85
T0
M30
