G04 #@! TF.GenerationSoftware,KiCad,Pcbnew,7.0.6*
G04 #@! TF.CreationDate,2023-07-11T17:34:17+08:00*
G04 #@! TF.ProjectId,m5-pantilt,6d352d70-616e-4746-996c-742e6b696361,1*
G04 #@! TF.SameCoordinates,PX5f5e100PY5f5e100*
G04 #@! TF.FileFunction,Legend,Bot*
G04 #@! TF.FilePolarity,Positive*
%FSLAX46Y46*%
G04 Gerber Fmt 4.6, Leading zero omitted, Abs format (unit mm)*
G04 Created by KiCad (PCBNEW 7.0.6) date 2023-07-11 17:34:17*
%MOMM*%
%LPD*%
G01*
G04 APERTURE LIST*
G04 Aperture macros list*
%AMRoundRect*
0 Rectangle with rounded corners*
0 $1 Rounding radius*
0 $2 $3 $4 $5 $6 $7 $8 $9 X,Y pos of 4 corners*
0 Add a 4 corners polygon primitive as box body*
4,1,4,$2,$3,$4,$5,$6,$7,$8,$9,$2,$3,0*
0 Add four circle primitives for the rounded corners*
1,1,$1+$1,$2,$3*
1,1,$1+$1,$4,$5*
1,1,$1+$1,$6,$7*
1,1,$1+$1,$8,$9*
0 Add four rect primitives between the rounded corners*
20,1,$1+$1,$2,$3,$4,$5,0*
20,1,$1+$1,$4,$5,$6,$7,0*
20,1,$1+$1,$6,$7,$8,$9,0*
20,1,$1+$1,$8,$9,$2,$3,0*%
G04 Aperture macros list end*
%ADD10C,1.000000*%
%ADD11C,0.150000*%
%ADD12C,0.300000*%
%ADD13C,0.120000*%
%ADD14C,2.000000*%
%ADD15C,3.000000*%
%ADD16R,1.700000X1.700000*%
%ADD17O,1.700000X1.700000*%
%ADD18RoundRect,0.250000X0.350000X0.625000X-0.350000X0.625000X-0.350000X-0.625000X0.350000X-0.625000X0*%
%ADD19O,1.200000X1.750000*%
%ADD20RoundRect,0.250000X-0.350000X-0.625000X0.350000X-0.625000X0.350000X0.625000X-0.350000X0.625000X0*%
%ADD21RoundRect,0.250000X-0.750000X0.600000X-0.750000X-0.600000X0.750000X-0.600000X0.750000X0.600000X0*%
%ADD22O,2.000000X1.700000*%
%ADD23R,3.150000X1.000000*%
%ADD24O,3.500000X2.200000*%
%ADD25R,2.500000X1.500000*%
%ADD26O,2.500000X1.500000*%
G04 APERTURE END LIST*
D10*
X7670800Y10058400D02*
X7620000Y39776400D01*
X42773600Y9956800D02*
X7670800Y10058400D01*
X7620000Y39776400D02*
X42672000Y39827200D01*
X42672000Y39827200D02*
X42773600Y9956800D01*
D11*
X1476189Y23937705D02*
X1742856Y24318658D01*
X1933332Y23937705D02*
X1933332Y24737705D01*
X1933332Y24737705D02*
X1628570Y24737705D01*
X1628570Y24737705D02*
X1552380Y24699610D01*
X1552380Y24699610D02*
X1514285Y24661515D01*
X1514285Y24661515D02*
X1476189Y24585324D01*
X1476189Y24585324D02*
X1476189Y24471039D01*
X1476189Y24471039D02*
X1514285Y24394848D01*
X1514285Y24394848D02*
X1552380Y24356753D01*
X1552380Y24356753D02*
X1628570Y24318658D01*
X1628570Y24318658D02*
X1933332Y24318658D01*
X1209523Y23937705D02*
X790475Y24471039D01*
X1209523Y24471039D02*
X790475Y23937705D01*
X18795237Y48145181D02*
X18795237Y47335658D01*
X18795237Y47335658D02*
X18747618Y47240420D01*
X18747618Y47240420D02*
X18699999Y47192800D01*
X18699999Y47192800D02*
X18604761Y47145181D01*
X18604761Y47145181D02*
X18414285Y47145181D01*
X18414285Y47145181D02*
X18319047Y47192800D01*
X18319047Y47192800D02*
X18271428Y47240420D01*
X18271428Y47240420D02*
X18223809Y47335658D01*
X18223809Y47335658D02*
X18223809Y48145181D01*
X17795237Y47430896D02*
X17319047Y47430896D01*
X17890475Y47145181D02*
X17557142Y48145181D01*
X17557142Y48145181D02*
X17223809Y47145181D01*
X16319047Y47145181D02*
X16652380Y47621372D01*
X16890475Y47145181D02*
X16890475Y48145181D01*
X16890475Y48145181D02*
X16509523Y48145181D01*
X16509523Y48145181D02*
X16414285Y48097562D01*
X16414285Y48097562D02*
X16366666Y48049943D01*
X16366666Y48049943D02*
X16319047Y47954705D01*
X16319047Y47954705D02*
X16319047Y47811848D01*
X16319047Y47811848D02*
X16366666Y47716610D01*
X16366666Y47716610D02*
X16414285Y47668991D01*
X16414285Y47668991D02*
X16509523Y47621372D01*
X16509523Y47621372D02*
X16890475Y47621372D01*
X16033332Y48145181D02*
X15461904Y48145181D01*
X15747618Y47145181D02*
X15747618Y48145181D01*
X30926133Y40836780D02*
X30926133Y41598684D01*
X30545180Y41217732D02*
X31307085Y41217732D01*
X31545180Y42551065D02*
X31545180Y42074875D01*
X31545180Y42074875D02*
X31068990Y42027256D01*
X31068990Y42027256D02*
X31116609Y42074875D01*
X31116609Y42074875D02*
X31164228Y42170113D01*
X31164228Y42170113D02*
X31164228Y42408208D01*
X31164228Y42408208D02*
X31116609Y42503446D01*
X31116609Y42503446D02*
X31068990Y42551065D01*
X31068990Y42551065D02*
X30973752Y42598684D01*
X30973752Y42598684D02*
X30735657Y42598684D01*
X30735657Y42598684D02*
X30640419Y42551065D01*
X30640419Y42551065D02*
X30592800Y42503446D01*
X30592800Y42503446D02*
X30545180Y42408208D01*
X30545180Y42408208D02*
X30545180Y42170113D01*
X30545180Y42170113D02*
X30592800Y42074875D01*
X30592800Y42074875D02*
X30640419Y42027256D01*
X31545180Y42884399D02*
X30545180Y43217732D01*
X30545180Y43217732D02*
X31545180Y43551065D01*
D12*
X44642855Y5226458D02*
X44642855Y6026458D01*
X44642855Y5912172D02*
X44585712Y5969315D01*
X44585712Y5969315D02*
X44471427Y6026458D01*
X44471427Y6026458D02*
X44299998Y6026458D01*
X44299998Y6026458D02*
X44185712Y5969315D01*
X44185712Y5969315D02*
X44128570Y5855029D01*
X44128570Y5855029D02*
X44128570Y5226458D01*
X44128570Y5855029D02*
X44071427Y5969315D01*
X44071427Y5969315D02*
X43957141Y6026458D01*
X43957141Y6026458D02*
X43785712Y6026458D01*
X43785712Y6026458D02*
X43671427Y5969315D01*
X43671427Y5969315D02*
X43614284Y5855029D01*
X43614284Y5855029D02*
X43614284Y5226458D01*
X42471427Y6426458D02*
X43042855Y6426458D01*
X43042855Y6426458D02*
X43099998Y5855029D01*
X43099998Y5855029D02*
X43042855Y5912172D01*
X43042855Y5912172D02*
X42928570Y5969315D01*
X42928570Y5969315D02*
X42642855Y5969315D01*
X42642855Y5969315D02*
X42528570Y5912172D01*
X42528570Y5912172D02*
X42471427Y5855029D01*
X42471427Y5855029D02*
X42414284Y5740743D01*
X42414284Y5740743D02*
X42414284Y5455029D01*
X42414284Y5455029D02*
X42471427Y5340743D01*
X42471427Y5340743D02*
X42528570Y5283600D01*
X42528570Y5283600D02*
X42642855Y5226458D01*
X42642855Y5226458D02*
X42928570Y5226458D01*
X42928570Y5226458D02*
X43042855Y5283600D01*
X43042855Y5283600D02*
X43099998Y5340743D01*
X41899998Y5683600D02*
X40985713Y5683600D01*
X40414284Y6026458D02*
X40414284Y4826458D01*
X40414284Y5969315D02*
X40299999Y6026458D01*
X40299999Y6026458D02*
X40071427Y6026458D01*
X40071427Y6026458D02*
X39957141Y5969315D01*
X39957141Y5969315D02*
X39899999Y5912172D01*
X39899999Y5912172D02*
X39842856Y5797886D01*
X39842856Y5797886D02*
X39842856Y5455029D01*
X39842856Y5455029D02*
X39899999Y5340743D01*
X39899999Y5340743D02*
X39957141Y5283600D01*
X39957141Y5283600D02*
X40071427Y5226458D01*
X40071427Y5226458D02*
X40299999Y5226458D01*
X40299999Y5226458D02*
X40414284Y5283600D01*
X38814285Y5226458D02*
X38814285Y5855029D01*
X38814285Y5855029D02*
X38871427Y5969315D01*
X38871427Y5969315D02*
X38985713Y6026458D01*
X38985713Y6026458D02*
X39214285Y6026458D01*
X39214285Y6026458D02*
X39328570Y5969315D01*
X38814285Y5283600D02*
X38928570Y5226458D01*
X38928570Y5226458D02*
X39214285Y5226458D01*
X39214285Y5226458D02*
X39328570Y5283600D01*
X39328570Y5283600D02*
X39385713Y5397886D01*
X39385713Y5397886D02*
X39385713Y5512172D01*
X39385713Y5512172D02*
X39328570Y5626458D01*
X39328570Y5626458D02*
X39214285Y5683600D01*
X39214285Y5683600D02*
X38928570Y5683600D01*
X38928570Y5683600D02*
X38814285Y5740743D01*
X38242856Y6026458D02*
X38242856Y5226458D01*
X38242856Y5912172D02*
X38185713Y5969315D01*
X38185713Y5969315D02*
X38071428Y6026458D01*
X38071428Y6026458D02*
X37899999Y6026458D01*
X37899999Y6026458D02*
X37785713Y5969315D01*
X37785713Y5969315D02*
X37728571Y5855029D01*
X37728571Y5855029D02*
X37728571Y5226458D01*
X37328571Y6026458D02*
X36871428Y6026458D01*
X37157142Y6426458D02*
X37157142Y5397886D01*
X37157142Y5397886D02*
X37099999Y5283600D01*
X37099999Y5283600D02*
X36985714Y5226458D01*
X36985714Y5226458D02*
X36871428Y5226458D01*
X36471428Y5226458D02*
X36471428Y6026458D01*
X36471428Y6426458D02*
X36528571Y6369315D01*
X36528571Y6369315D02*
X36471428Y6312172D01*
X36471428Y6312172D02*
X36414285Y6369315D01*
X36414285Y6369315D02*
X36471428Y6426458D01*
X36471428Y6426458D02*
X36471428Y6312172D01*
X35728571Y5226458D02*
X35842856Y5283600D01*
X35842856Y5283600D02*
X35899999Y5397886D01*
X35899999Y5397886D02*
X35899999Y6426458D01*
X35442857Y6026458D02*
X34985714Y6026458D01*
X35271428Y6426458D02*
X35271428Y5397886D01*
X35271428Y5397886D02*
X35214285Y5283600D01*
X35214285Y5283600D02*
X35100000Y5226458D01*
X35100000Y5226458D02*
X34985714Y5226458D01*
X33671428Y5226458D02*
X33671428Y6426458D01*
X33671428Y5969315D02*
X33557143Y6026458D01*
X33557143Y6026458D02*
X33328571Y6026458D01*
X33328571Y6026458D02*
X33214285Y5969315D01*
X33214285Y5969315D02*
X33157143Y5912172D01*
X33157143Y5912172D02*
X33100000Y5797886D01*
X33100000Y5797886D02*
X33100000Y5455029D01*
X33100000Y5455029D02*
X33157143Y5340743D01*
X33157143Y5340743D02*
X33214285Y5283600D01*
X33214285Y5283600D02*
X33328571Y5226458D01*
X33328571Y5226458D02*
X33557143Y5226458D01*
X33557143Y5226458D02*
X33671428Y5283600D01*
X32414286Y5226458D02*
X32528571Y5283600D01*
X32528571Y5283600D02*
X32585714Y5340743D01*
X32585714Y5340743D02*
X32642857Y5455029D01*
X32642857Y5455029D02*
X32642857Y5797886D01*
X32642857Y5797886D02*
X32585714Y5912172D01*
X32585714Y5912172D02*
X32528571Y5969315D01*
X32528571Y5969315D02*
X32414286Y6026458D01*
X32414286Y6026458D02*
X32242857Y6026458D01*
X32242857Y6026458D02*
X32128571Y5969315D01*
X32128571Y5969315D02*
X32071429Y5912172D01*
X32071429Y5912172D02*
X32014286Y5797886D01*
X32014286Y5797886D02*
X32014286Y5455029D01*
X32014286Y5455029D02*
X32071429Y5340743D01*
X32071429Y5340743D02*
X32128571Y5283600D01*
X32128571Y5283600D02*
X32242857Y5226458D01*
X32242857Y5226458D02*
X32414286Y5226458D01*
X30985715Y5226458D02*
X30985715Y5855029D01*
X30985715Y5855029D02*
X31042857Y5969315D01*
X31042857Y5969315D02*
X31157143Y6026458D01*
X31157143Y6026458D02*
X31385715Y6026458D01*
X31385715Y6026458D02*
X31500000Y5969315D01*
X30985715Y5283600D02*
X31100000Y5226458D01*
X31100000Y5226458D02*
X31385715Y5226458D01*
X31385715Y5226458D02*
X31500000Y5283600D01*
X31500000Y5283600D02*
X31557143Y5397886D01*
X31557143Y5397886D02*
X31557143Y5512172D01*
X31557143Y5512172D02*
X31500000Y5626458D01*
X31500000Y5626458D02*
X31385715Y5683600D01*
X31385715Y5683600D02*
X31100000Y5683600D01*
X31100000Y5683600D02*
X30985715Y5740743D01*
X30414286Y5226458D02*
X30414286Y6026458D01*
X30414286Y5797886D02*
X30357143Y5912172D01*
X30357143Y5912172D02*
X30300001Y5969315D01*
X30300001Y5969315D02*
X30185715Y6026458D01*
X30185715Y6026458D02*
X30071429Y6026458D01*
X29157144Y5226458D02*
X29157144Y6426458D01*
X29157144Y5283600D02*
X29271429Y5226458D01*
X29271429Y5226458D02*
X29500001Y5226458D01*
X29500001Y5226458D02*
X29614286Y5283600D01*
X29614286Y5283600D02*
X29671429Y5340743D01*
X29671429Y5340743D02*
X29728572Y5455029D01*
X29728572Y5455029D02*
X29728572Y5797886D01*
X29728572Y5797886D02*
X29671429Y5912172D01*
X29671429Y5912172D02*
X29614286Y5969315D01*
X29614286Y5969315D02*
X29500001Y6026458D01*
X29500001Y6026458D02*
X29271429Y6026458D01*
X29271429Y6026458D02*
X29157144Y5969315D01*
X27785715Y6026458D02*
X27500001Y5226458D01*
X27500001Y5226458D02*
X27214286Y6026458D01*
X26528572Y6426458D02*
X26414286Y6426458D01*
X26414286Y6426458D02*
X26300000Y6369315D01*
X26300000Y6369315D02*
X26242858Y6312172D01*
X26242858Y6312172D02*
X26185715Y6197886D01*
X26185715Y6197886D02*
X26128572Y5969315D01*
X26128572Y5969315D02*
X26128572Y5683600D01*
X26128572Y5683600D02*
X26185715Y5455029D01*
X26185715Y5455029D02*
X26242858Y5340743D01*
X26242858Y5340743D02*
X26300000Y5283600D01*
X26300000Y5283600D02*
X26414286Y5226458D01*
X26414286Y5226458D02*
X26528572Y5226458D01*
X26528572Y5226458D02*
X26642858Y5283600D01*
X26642858Y5283600D02*
X26700000Y5340743D01*
X26700000Y5340743D02*
X26757143Y5455029D01*
X26757143Y5455029D02*
X26814286Y5683600D01*
X26814286Y5683600D02*
X26814286Y5969315D01*
X26814286Y5969315D02*
X26757143Y6197886D01*
X26757143Y6197886D02*
X26700000Y6312172D01*
X26700000Y6312172D02*
X26642858Y6369315D01*
X26642858Y6369315D02*
X26528572Y6426458D01*
X25614286Y5340743D02*
X25557143Y5283600D01*
X25557143Y5283600D02*
X25614286Y5226458D01*
X25614286Y5226458D02*
X25671429Y5283600D01*
X25671429Y5283600D02*
X25614286Y5340743D01*
X25614286Y5340743D02*
X25614286Y5226458D01*
X25100000Y6312172D02*
X25042857Y6369315D01*
X25042857Y6369315D02*
X24928572Y6426458D01*
X24928572Y6426458D02*
X24642857Y6426458D01*
X24642857Y6426458D02*
X24528572Y6369315D01*
X24528572Y6369315D02*
X24471429Y6312172D01*
X24471429Y6312172D02*
X24414286Y6197886D01*
X24414286Y6197886D02*
X24414286Y6083600D01*
X24414286Y6083600D02*
X24471429Y5912172D01*
X24471429Y5912172D02*
X25157143Y5226458D01*
X25157143Y5226458D02*
X24414286Y5226458D01*
X23900000Y5340743D02*
X23842857Y5283600D01*
X23842857Y5283600D02*
X23900000Y5226458D01*
X23900000Y5226458D02*
X23957143Y5283600D01*
X23957143Y5283600D02*
X23900000Y5340743D01*
X23900000Y5340743D02*
X23900000Y5226458D01*
X22700000Y5226458D02*
X23385714Y5226458D01*
X23042857Y5226458D02*
X23042857Y6426458D01*
X23042857Y6426458D02*
X23157143Y6255029D01*
X23157143Y6255029D02*
X23271428Y6140743D01*
X23271428Y6140743D02*
X23385714Y6083600D01*
X39414283Y3865886D02*
X39471426Y3923029D01*
X39471426Y3923029D02*
X39585712Y3980172D01*
X39585712Y3980172D02*
X39699997Y3980172D01*
X39699997Y3980172D02*
X39814283Y3923029D01*
X39814283Y3923029D02*
X39871426Y3865886D01*
X39871426Y3865886D02*
X39928569Y3751600D01*
X39928569Y3751600D02*
X39928569Y3637315D01*
X39928569Y3637315D02*
X39871426Y3523029D01*
X39871426Y3523029D02*
X39814283Y3465886D01*
X39814283Y3465886D02*
X39699997Y3408743D01*
X39699997Y3408743D02*
X39585712Y3408743D01*
X39585712Y3408743D02*
X39471426Y3465886D01*
X39471426Y3465886D02*
X39414283Y3523029D01*
X39414283Y3980172D02*
X39414283Y3523029D01*
X39414283Y3523029D02*
X39357140Y3465886D01*
X39357140Y3465886D02*
X39299997Y3465886D01*
X39299997Y3465886D02*
X39185712Y3523029D01*
X39185712Y3523029D02*
X39128569Y3637315D01*
X39128569Y3637315D02*
X39128569Y3923029D01*
X39128569Y3923029D02*
X39242855Y4094458D01*
X39242855Y4094458D02*
X39414283Y4208743D01*
X39414283Y4208743D02*
X39642855Y4265886D01*
X39642855Y4265886D02*
X39871426Y4208743D01*
X39871426Y4208743D02*
X40042855Y4094458D01*
X40042855Y4094458D02*
X40157140Y3923029D01*
X40157140Y3923029D02*
X40214283Y3694458D01*
X40214283Y3694458D02*
X40157140Y3465886D01*
X40157140Y3465886D02*
X40042855Y3294458D01*
X40042855Y3294458D02*
X39871426Y3180172D01*
X39871426Y3180172D02*
X39642855Y3123029D01*
X39642855Y3123029D02*
X39414283Y3180172D01*
X39414283Y3180172D02*
X39242855Y3294458D01*
X38614283Y3294458D02*
X38614283Y4094458D01*
X38614283Y3980172D02*
X38557140Y4037315D01*
X38557140Y4037315D02*
X38442855Y4094458D01*
X38442855Y4094458D02*
X38271426Y4094458D01*
X38271426Y4094458D02*
X38157140Y4037315D01*
X38157140Y4037315D02*
X38099998Y3923029D01*
X38099998Y3923029D02*
X38099998Y3294458D01*
X38099998Y3923029D02*
X38042855Y4037315D01*
X38042855Y4037315D02*
X37928569Y4094458D01*
X37928569Y4094458D02*
X37757140Y4094458D01*
X37757140Y4094458D02*
X37642855Y4037315D01*
X37642855Y4037315D02*
X37585712Y3923029D01*
X37585712Y3923029D02*
X37585712Y3294458D01*
X36557140Y3351600D02*
X36671426Y3294458D01*
X36671426Y3294458D02*
X36899998Y3294458D01*
X36899998Y3294458D02*
X37014283Y3351600D01*
X37014283Y3351600D02*
X37071426Y3465886D01*
X37071426Y3465886D02*
X37071426Y3923029D01*
X37071426Y3923029D02*
X37014283Y4037315D01*
X37014283Y4037315D02*
X36899998Y4094458D01*
X36899998Y4094458D02*
X36671426Y4094458D01*
X36671426Y4094458D02*
X36557140Y4037315D01*
X36557140Y4037315D02*
X36499998Y3923029D01*
X36499998Y3923029D02*
X36499998Y3808743D01*
X36499998Y3808743D02*
X37071426Y3694458D01*
X35471427Y4094458D02*
X35471427Y3123029D01*
X35471427Y3123029D02*
X35528569Y3008743D01*
X35528569Y3008743D02*
X35585712Y2951600D01*
X35585712Y2951600D02*
X35699998Y2894458D01*
X35699998Y2894458D02*
X35871427Y2894458D01*
X35871427Y2894458D02*
X35985712Y2951600D01*
X35471427Y3351600D02*
X35585712Y3294458D01*
X35585712Y3294458D02*
X35814284Y3294458D01*
X35814284Y3294458D02*
X35928569Y3351600D01*
X35928569Y3351600D02*
X35985712Y3408743D01*
X35985712Y3408743D02*
X36042855Y3523029D01*
X36042855Y3523029D02*
X36042855Y3865886D01*
X36042855Y3865886D02*
X35985712Y3980172D01*
X35985712Y3980172D02*
X35928569Y4037315D01*
X35928569Y4037315D02*
X35814284Y4094458D01*
X35814284Y4094458D02*
X35585712Y4094458D01*
X35585712Y4094458D02*
X35471427Y4037315D01*
X34385713Y3294458D02*
X34385713Y3923029D01*
X34385713Y3923029D02*
X34442855Y4037315D01*
X34442855Y4037315D02*
X34557141Y4094458D01*
X34557141Y4094458D02*
X34785713Y4094458D01*
X34785713Y4094458D02*
X34899998Y4037315D01*
X34385713Y3351600D02*
X34499998Y3294458D01*
X34499998Y3294458D02*
X34785713Y3294458D01*
X34785713Y3294458D02*
X34899998Y3351600D01*
X34899998Y3351600D02*
X34957141Y3465886D01*
X34957141Y3465886D02*
X34957141Y3580172D01*
X34957141Y3580172D02*
X34899998Y3694458D01*
X34899998Y3694458D02*
X34785713Y3751600D01*
X34785713Y3751600D02*
X34499998Y3751600D01*
X34499998Y3751600D02*
X34385713Y3808743D01*
X33814284Y4094458D02*
X33814284Y3294458D01*
X33814284Y3980172D02*
X33757141Y4037315D01*
X33757141Y4037315D02*
X33642856Y4094458D01*
X33642856Y4094458D02*
X33471427Y4094458D01*
X33471427Y4094458D02*
X33357141Y4037315D01*
X33357141Y4037315D02*
X33299999Y3923029D01*
X33299999Y3923029D02*
X33299999Y3294458D01*
X32271427Y3351600D02*
X32385713Y3294458D01*
X32385713Y3294458D02*
X32614285Y3294458D01*
X32614285Y3294458D02*
X32728570Y3351600D01*
X32728570Y3351600D02*
X32785713Y3465886D01*
X32785713Y3465886D02*
X32785713Y3923029D01*
X32785713Y3923029D02*
X32728570Y4037315D01*
X32728570Y4037315D02*
X32614285Y4094458D01*
X32614285Y4094458D02*
X32385713Y4094458D01*
X32385713Y4094458D02*
X32271427Y4037315D01*
X32271427Y4037315D02*
X32214285Y3923029D01*
X32214285Y3923029D02*
X32214285Y3808743D01*
X32214285Y3808743D02*
X32785713Y3694458D01*
X31871428Y4094458D02*
X31414285Y4094458D01*
X31699999Y4494458D02*
X31699999Y3465886D01*
X31699999Y3465886D02*
X31642856Y3351600D01*
X31642856Y3351600D02*
X31528571Y3294458D01*
X31528571Y3294458D02*
X31414285Y3294458D01*
X30500000Y3294458D02*
X30500000Y3923029D01*
X30500000Y3923029D02*
X30557142Y4037315D01*
X30557142Y4037315D02*
X30671428Y4094458D01*
X30671428Y4094458D02*
X30900000Y4094458D01*
X30900000Y4094458D02*
X31014285Y4037315D01*
X30500000Y3351600D02*
X30614285Y3294458D01*
X30614285Y3294458D02*
X30900000Y3294458D01*
X30900000Y3294458D02*
X31014285Y3351600D01*
X31014285Y3351600D02*
X31071428Y3465886D01*
X31071428Y3465886D02*
X31071428Y3580172D01*
X31071428Y3580172D02*
X31014285Y3694458D01*
X31014285Y3694458D02*
X30900000Y3751600D01*
X30900000Y3751600D02*
X30614285Y3751600D01*
X30614285Y3751600D02*
X30500000Y3808743D01*
X29414286Y3294458D02*
X29414286Y3923029D01*
X29414286Y3923029D02*
X29471428Y4037315D01*
X29471428Y4037315D02*
X29585714Y4094458D01*
X29585714Y4094458D02*
X29814286Y4094458D01*
X29814286Y4094458D02*
X29928571Y4037315D01*
X29414286Y3351600D02*
X29528571Y3294458D01*
X29528571Y3294458D02*
X29814286Y3294458D01*
X29814286Y3294458D02*
X29928571Y3351600D01*
X29928571Y3351600D02*
X29985714Y3465886D01*
X29985714Y3465886D02*
X29985714Y3580172D01*
X29985714Y3580172D02*
X29928571Y3694458D01*
X29928571Y3694458D02*
X29814286Y3751600D01*
X29814286Y3751600D02*
X29528571Y3751600D01*
X29528571Y3751600D02*
X29414286Y3808743D01*
X28328572Y3294458D02*
X28328572Y3923029D01*
X28328572Y3923029D02*
X28385714Y4037315D01*
X28385714Y4037315D02*
X28500000Y4094458D01*
X28500000Y4094458D02*
X28728572Y4094458D01*
X28728572Y4094458D02*
X28842857Y4037315D01*
X28328572Y3351600D02*
X28442857Y3294458D01*
X28442857Y3294458D02*
X28728572Y3294458D01*
X28728572Y3294458D02*
X28842857Y3351600D01*
X28842857Y3351600D02*
X28900000Y3465886D01*
X28900000Y3465886D02*
X28900000Y3580172D01*
X28900000Y3580172D02*
X28842857Y3694458D01*
X28842857Y3694458D02*
X28728572Y3751600D01*
X28728572Y3751600D02*
X28442857Y3751600D01*
X28442857Y3751600D02*
X28328572Y3808743D01*
X27757143Y4094458D02*
X27757143Y3294458D01*
X27757143Y3980172D02*
X27700000Y4037315D01*
X27700000Y4037315D02*
X27585715Y4094458D01*
X27585715Y4094458D02*
X27414286Y4094458D01*
X27414286Y4094458D02*
X27300000Y4037315D01*
X27300000Y4037315D02*
X27242858Y3923029D01*
X27242858Y3923029D02*
X27242858Y3294458D01*
D11*
X13545180Y41558208D02*
X14021371Y41224875D01*
X13545180Y40986780D02*
X14545180Y40986780D01*
X14545180Y40986780D02*
X14545180Y41367732D01*
X14545180Y41367732D02*
X14497561Y41462970D01*
X14497561Y41462970D02*
X14449942Y41510589D01*
X14449942Y41510589D02*
X14354704Y41558208D01*
X14354704Y41558208D02*
X14211847Y41558208D01*
X14211847Y41558208D02*
X14116609Y41510589D01*
X14116609Y41510589D02*
X14068990Y41462970D01*
X14068990Y41462970D02*
X14021371Y41367732D01*
X14021371Y41367732D02*
X14021371Y40986780D01*
X14545180Y41891542D02*
X13545180Y42558208D01*
X14545180Y42558208D02*
X13545180Y41891542D01*
X11152380Y24637705D02*
X10695237Y24637705D01*
X10923809Y23837705D02*
X10923809Y24637705D01*
X10504761Y23837705D02*
X10085713Y24371039D01*
X10504761Y24371039D02*
X10085713Y23837705D01*
X20547561Y41610589D02*
X20595180Y41515351D01*
X20595180Y41515351D02*
X20595180Y41372494D01*
X20595180Y41372494D02*
X20547561Y41229637D01*
X20547561Y41229637D02*
X20452323Y41134399D01*
X20452323Y41134399D02*
X20357085Y41086780D01*
X20357085Y41086780D02*
X20166609Y41039161D01*
X20166609Y41039161D02*
X20023752Y41039161D01*
X20023752Y41039161D02*
X19833276Y41086780D01*
X19833276Y41086780D02*
X19738038Y41134399D01*
X19738038Y41134399D02*
X19642800Y41229637D01*
X19642800Y41229637D02*
X19595180Y41372494D01*
X19595180Y41372494D02*
X19595180Y41467732D01*
X19595180Y41467732D02*
X19642800Y41610589D01*
X19642800Y41610589D02*
X19690419Y41658208D01*
X19690419Y41658208D02*
X20023752Y41658208D01*
X20023752Y41658208D02*
X20023752Y41467732D01*
X19595180Y42086780D02*
X20595180Y42086780D01*
X20595180Y42086780D02*
X19595180Y42658208D01*
X19595180Y42658208D02*
X20595180Y42658208D01*
X19595180Y43134399D02*
X20595180Y43134399D01*
X20595180Y43134399D02*
X20595180Y43372494D01*
X20595180Y43372494D02*
X20547561Y43515351D01*
X20547561Y43515351D02*
X20452323Y43610589D01*
X20452323Y43610589D02*
X20357085Y43658208D01*
X20357085Y43658208D02*
X20166609Y43705827D01*
X20166609Y43705827D02*
X20023752Y43705827D01*
X20023752Y43705827D02*
X19833276Y43658208D01*
X19833276Y43658208D02*
X19738038Y43610589D01*
X19738038Y43610589D02*
X19642800Y43515351D01*
X19642800Y43515351D02*
X19595180Y43372494D01*
X19595180Y43372494D02*
X19595180Y43134399D01*
X30949999Y48097562D02*
X31045237Y48145181D01*
X31045237Y48145181D02*
X31188094Y48145181D01*
X31188094Y48145181D02*
X31330951Y48097562D01*
X31330951Y48097562D02*
X31426189Y48002324D01*
X31426189Y48002324D02*
X31473808Y47907086D01*
X31473808Y47907086D02*
X31521427Y47716610D01*
X31521427Y47716610D02*
X31521427Y47573753D01*
X31521427Y47573753D02*
X31473808Y47383277D01*
X31473808Y47383277D02*
X31426189Y47288039D01*
X31426189Y47288039D02*
X31330951Y47192800D01*
X31330951Y47192800D02*
X31188094Y47145181D01*
X31188094Y47145181D02*
X31092856Y47145181D01*
X31092856Y47145181D02*
X30949999Y47192800D01*
X30949999Y47192800D02*
X30902380Y47240420D01*
X30902380Y47240420D02*
X30902380Y47573753D01*
X30902380Y47573753D02*
X31092856Y47573753D01*
X30473808Y47145181D02*
X30473808Y48145181D01*
X30473808Y48145181D02*
X30092856Y48145181D01*
X30092856Y48145181D02*
X29997618Y48097562D01*
X29997618Y48097562D02*
X29949999Y48049943D01*
X29949999Y48049943D02*
X29902380Y47954705D01*
X29902380Y47954705D02*
X29902380Y47811848D01*
X29902380Y47811848D02*
X29949999Y47716610D01*
X29949999Y47716610D02*
X29997618Y47668991D01*
X29997618Y47668991D02*
X30092856Y47621372D01*
X30092856Y47621372D02*
X30473808Y47621372D01*
X29473808Y47145181D02*
X29473808Y48145181D01*
X28807142Y48145181D02*
X28616666Y48145181D01*
X28616666Y48145181D02*
X28521428Y48097562D01*
X28521428Y48097562D02*
X28426190Y48002324D01*
X28426190Y48002324D02*
X28378571Y47811848D01*
X28378571Y47811848D02*
X28378571Y47478515D01*
X28378571Y47478515D02*
X28426190Y47288039D01*
X28426190Y47288039D02*
X28521428Y47192800D01*
X28521428Y47192800D02*
X28616666Y47145181D01*
X28616666Y47145181D02*
X28807142Y47145181D01*
X28807142Y47145181D02*
X28902380Y47192800D01*
X28902380Y47192800D02*
X28997618Y47288039D01*
X28997618Y47288039D02*
X29045237Y47478515D01*
X29045237Y47478515D02*
X29045237Y47811848D01*
X29045237Y47811848D02*
X28997618Y48002324D01*
X28997618Y48002324D02*
X28902380Y48097562D01*
X28902380Y48097562D02*
X28807142Y48145181D01*
X17876133Y40936780D02*
X17876133Y41698684D01*
X17495180Y41317732D02*
X18257085Y41317732D01*
X18495180Y42651065D02*
X18495180Y42174875D01*
X18495180Y42174875D02*
X18018990Y42127256D01*
X18018990Y42127256D02*
X18066609Y42174875D01*
X18066609Y42174875D02*
X18114228Y42270113D01*
X18114228Y42270113D02*
X18114228Y42508208D01*
X18114228Y42508208D02*
X18066609Y42603446D01*
X18066609Y42603446D02*
X18018990Y42651065D01*
X18018990Y42651065D02*
X17923752Y42698684D01*
X17923752Y42698684D02*
X17685657Y42698684D01*
X17685657Y42698684D02*
X17590419Y42651065D01*
X17590419Y42651065D02*
X17542800Y42603446D01*
X17542800Y42603446D02*
X17495180Y42508208D01*
X17495180Y42508208D02*
X17495180Y42270113D01*
X17495180Y42270113D02*
X17542800Y42174875D01*
X17542800Y42174875D02*
X17590419Y42127256D01*
X18495180Y42984399D02*
X17495180Y43317732D01*
X17495180Y43317732D02*
X18495180Y43651065D01*
X27547561Y41610589D02*
X27595180Y41515351D01*
X27595180Y41515351D02*
X27595180Y41372494D01*
X27595180Y41372494D02*
X27547561Y41229637D01*
X27547561Y41229637D02*
X27452323Y41134399D01*
X27452323Y41134399D02*
X27357085Y41086780D01*
X27357085Y41086780D02*
X27166609Y41039161D01*
X27166609Y41039161D02*
X27023752Y41039161D01*
X27023752Y41039161D02*
X26833276Y41086780D01*
X26833276Y41086780D02*
X26738038Y41134399D01*
X26738038Y41134399D02*
X26642800Y41229637D01*
X26642800Y41229637D02*
X26595180Y41372494D01*
X26595180Y41372494D02*
X26595180Y41467732D01*
X26595180Y41467732D02*
X26642800Y41610589D01*
X26642800Y41610589D02*
X26690419Y41658208D01*
X26690419Y41658208D02*
X27023752Y41658208D01*
X27023752Y41658208D02*
X27023752Y41467732D01*
X27595180Y41991542D02*
X27595180Y42610589D01*
X27595180Y42610589D02*
X27214228Y42277256D01*
X27214228Y42277256D02*
X27214228Y42420113D01*
X27214228Y42420113D02*
X27166609Y42515351D01*
X27166609Y42515351D02*
X27118990Y42562970D01*
X27118990Y42562970D02*
X27023752Y42610589D01*
X27023752Y42610589D02*
X26785657Y42610589D01*
X26785657Y42610589D02*
X26690419Y42562970D01*
X26690419Y42562970D02*
X26642800Y42515351D01*
X26642800Y42515351D02*
X26595180Y42420113D01*
X26595180Y42420113D02*
X26595180Y42134399D01*
X26595180Y42134399D02*
X26642800Y42039161D01*
X26642800Y42039161D02*
X26690419Y41991542D01*
X27595180Y43467732D02*
X27595180Y43277256D01*
X27595180Y43277256D02*
X27547561Y43182018D01*
X27547561Y43182018D02*
X27499942Y43134399D01*
X27499942Y43134399D02*
X27357085Y43039161D01*
X27357085Y43039161D02*
X27166609Y42991542D01*
X27166609Y42991542D02*
X26785657Y42991542D01*
X26785657Y42991542D02*
X26690419Y43039161D01*
X26690419Y43039161D02*
X26642800Y43086780D01*
X26642800Y43086780D02*
X26595180Y43182018D01*
X26595180Y43182018D02*
X26595180Y43372494D01*
X26595180Y43372494D02*
X26642800Y43467732D01*
X26642800Y43467732D02*
X26690419Y43515351D01*
X26690419Y43515351D02*
X26785657Y43562970D01*
X26785657Y43562970D02*
X27023752Y43562970D01*
X27023752Y43562970D02*
X27118990Y43515351D01*
X27118990Y43515351D02*
X27166609Y43467732D01*
X27166609Y43467732D02*
X27214228Y43372494D01*
X27214228Y43372494D02*
X27214228Y43182018D01*
X27214228Y43182018D02*
X27166609Y43086780D01*
X27166609Y43086780D02*
X27118990Y43039161D01*
X27118990Y43039161D02*
X27023752Y42991542D01*
X29497561Y41610589D02*
X29545180Y41515351D01*
X29545180Y41515351D02*
X29545180Y41372494D01*
X29545180Y41372494D02*
X29497561Y41229637D01*
X29497561Y41229637D02*
X29402323Y41134399D01*
X29402323Y41134399D02*
X29307085Y41086780D01*
X29307085Y41086780D02*
X29116609Y41039161D01*
X29116609Y41039161D02*
X28973752Y41039161D01*
X28973752Y41039161D02*
X28783276Y41086780D01*
X28783276Y41086780D02*
X28688038Y41134399D01*
X28688038Y41134399D02*
X28592800Y41229637D01*
X28592800Y41229637D02*
X28545180Y41372494D01*
X28545180Y41372494D02*
X28545180Y41467732D01*
X28545180Y41467732D02*
X28592800Y41610589D01*
X28592800Y41610589D02*
X28640419Y41658208D01*
X28640419Y41658208D02*
X28973752Y41658208D01*
X28973752Y41658208D02*
X28973752Y41467732D01*
X29449942Y42039161D02*
X29497561Y42086780D01*
X29497561Y42086780D02*
X29545180Y42182018D01*
X29545180Y42182018D02*
X29545180Y42420113D01*
X29545180Y42420113D02*
X29497561Y42515351D01*
X29497561Y42515351D02*
X29449942Y42562970D01*
X29449942Y42562970D02*
X29354704Y42610589D01*
X29354704Y42610589D02*
X29259466Y42610589D01*
X29259466Y42610589D02*
X29116609Y42562970D01*
X29116609Y42562970D02*
X28545180Y41991542D01*
X28545180Y41991542D02*
X28545180Y42610589D01*
X29545180Y43467732D02*
X29545180Y43277256D01*
X29545180Y43277256D02*
X29497561Y43182018D01*
X29497561Y43182018D02*
X29449942Y43134399D01*
X29449942Y43134399D02*
X29307085Y43039161D01*
X29307085Y43039161D02*
X29116609Y42991542D01*
X29116609Y42991542D02*
X28735657Y42991542D01*
X28735657Y42991542D02*
X28640419Y43039161D01*
X28640419Y43039161D02*
X28592800Y43086780D01*
X28592800Y43086780D02*
X28545180Y43182018D01*
X28545180Y43182018D02*
X28545180Y43372494D01*
X28545180Y43372494D02*
X28592800Y43467732D01*
X28592800Y43467732D02*
X28640419Y43515351D01*
X28640419Y43515351D02*
X28735657Y43562970D01*
X28735657Y43562970D02*
X28973752Y43562970D01*
X28973752Y43562970D02*
X29068990Y43515351D01*
X29068990Y43515351D02*
X29116609Y43467732D01*
X29116609Y43467732D02*
X29164228Y43372494D01*
X29164228Y43372494D02*
X29164228Y43182018D01*
X29164228Y43182018D02*
X29116609Y43086780D01*
X29116609Y43086780D02*
X29068990Y43039161D01*
X29068990Y43039161D02*
X28973752Y42991542D01*
X33497561Y41460589D02*
X33545180Y41365351D01*
X33545180Y41365351D02*
X33545180Y41222494D01*
X33545180Y41222494D02*
X33497561Y41079637D01*
X33497561Y41079637D02*
X33402323Y40984399D01*
X33402323Y40984399D02*
X33307085Y40936780D01*
X33307085Y40936780D02*
X33116609Y40889161D01*
X33116609Y40889161D02*
X32973752Y40889161D01*
X32973752Y40889161D02*
X32783276Y40936780D01*
X32783276Y40936780D02*
X32688038Y40984399D01*
X32688038Y40984399D02*
X32592800Y41079637D01*
X32592800Y41079637D02*
X32545180Y41222494D01*
X32545180Y41222494D02*
X32545180Y41317732D01*
X32545180Y41317732D02*
X32592800Y41460589D01*
X32592800Y41460589D02*
X32640419Y41508208D01*
X32640419Y41508208D02*
X32973752Y41508208D01*
X32973752Y41508208D02*
X32973752Y41317732D01*
X32545180Y41936780D02*
X33545180Y41936780D01*
X33545180Y41936780D02*
X32545180Y42508208D01*
X32545180Y42508208D02*
X33545180Y42508208D01*
X32545180Y42984399D02*
X33545180Y42984399D01*
X33545180Y42984399D02*
X33545180Y43222494D01*
X33545180Y43222494D02*
X33497561Y43365351D01*
X33497561Y43365351D02*
X33402323Y43460589D01*
X33402323Y43460589D02*
X33307085Y43508208D01*
X33307085Y43508208D02*
X33116609Y43555827D01*
X33116609Y43555827D02*
X32973752Y43555827D01*
X32973752Y43555827D02*
X32783276Y43508208D01*
X32783276Y43508208D02*
X32688038Y43460589D01*
X32688038Y43460589D02*
X32592800Y43365351D01*
X32592800Y43365351D02*
X32545180Y43222494D01*
X32545180Y43222494D02*
X32545180Y42984399D01*
X16495180Y41043923D02*
X16495180Y41615351D01*
X15495180Y41329637D02*
X16495180Y41329637D01*
X16495180Y41853447D02*
X15495180Y42520113D01*
X16495180Y42520113D02*
X15495180Y41853447D01*
X10493333Y45045981D02*
X10493333Y44331696D01*
X10493333Y44331696D02*
X10540952Y44188839D01*
X10540952Y44188839D02*
X10636190Y44093600D01*
X10636190Y44093600D02*
X10779047Y44045981D01*
X10779047Y44045981D02*
X10874285Y44045981D01*
X9493333Y44045981D02*
X10064761Y44045981D01*
X9779047Y44045981D02*
X9779047Y45045981D01*
X9779047Y45045981D02*
X9874285Y44903124D01*
X9874285Y44903124D02*
X9969523Y44807886D01*
X9969523Y44807886D02*
X10064761Y44760267D01*
D13*
X10240000Y43540000D02*
X8800000Y43540000D01*
X8800000Y5890000D02*
X3600000Y5890000D01*
X8800000Y6460000D02*
X8800000Y5890000D01*
X8800000Y9000000D02*
X8800000Y7980000D01*
X8800000Y11540000D02*
X8800000Y10520000D01*
X8800000Y14080000D02*
X8800000Y13060000D01*
X8800000Y16620000D02*
X8800000Y15600000D01*
X8800000Y19160000D02*
X8800000Y18140000D01*
X8800000Y21700000D02*
X8800000Y20680000D01*
X8800000Y24240000D02*
X8800000Y23220000D01*
X8800000Y26780000D02*
X8800000Y25760000D01*
X8800000Y29320000D02*
X8800000Y28300000D01*
X8800000Y31860000D02*
X8800000Y30840000D01*
X8800000Y34400000D02*
X8800000Y33380000D01*
X8800000Y36940000D02*
X8800000Y35920000D01*
X8800000Y39480000D02*
X8800000Y38460000D01*
X8800000Y42020000D02*
X8800000Y41000000D01*
X8800000Y44110000D02*
X8800000Y43540000D01*
X8800000Y44110000D02*
X3600000Y44110000D01*
X3600000Y6460000D02*
X3600000Y5890000D01*
X3600000Y9000000D02*
X3600000Y7980000D01*
X3600000Y11540000D02*
X3600000Y10520000D01*
X3600000Y14080000D02*
X3600000Y13060000D01*
X3600000Y16620000D02*
X3600000Y15600000D01*
X3600000Y19160000D02*
X3600000Y18140000D01*
X3600000Y21700000D02*
X3600000Y20680000D01*
X3600000Y24240000D02*
X3600000Y23220000D01*
X3600000Y26780000D02*
X3600000Y25760000D01*
X3600000Y29320000D02*
X3600000Y28300000D01*
X3600000Y31860000D02*
X3600000Y30840000D01*
X3600000Y34400000D02*
X3600000Y33380000D01*
X3600000Y36940000D02*
X3600000Y35920000D01*
X3600000Y39480000D02*
X3600000Y38460000D01*
X3600000Y42020000D02*
X3600000Y41000000D01*
X3600000Y44110000D02*
X3600000Y43540000D01*
D11*
X48100000Y41300000D02*
X48100000Y39100000D01*
X43500000Y41300000D02*
X43500000Y32700000D01*
X48100000Y35000000D02*
X48100000Y32700000D01*
%LPC*%
D14*
X7300000Y3150000D03*
D15*
X3150000Y3150000D03*
D14*
X42700000Y3150000D03*
D15*
X46850000Y3150000D03*
D14*
X42700000Y46850000D03*
D15*
X46850000Y46850000D03*
D14*
X7300000Y46850000D03*
D15*
X3150000Y46850000D03*
D16*
X37846000Y16764000D03*
D17*
X37846000Y19304000D03*
X40386000Y16764000D03*
X40386000Y19304000D03*
X42926000Y16764000D03*
X42926000Y19304000D03*
D16*
X37846000Y24384000D03*
D17*
X37846000Y26924000D03*
X40386000Y24384000D03*
X40386000Y26924000D03*
X42926000Y24384000D03*
X42926000Y26924000D03*
D18*
X33000000Y45000000D03*
D19*
X31000000Y45000000D03*
X29000000Y45000000D03*
X27000000Y45000000D03*
D20*
X40060000Y10600000D03*
D19*
X42060000Y10600000D03*
D18*
X20000000Y45000000D03*
D19*
X18000000Y45000000D03*
X16000000Y45000000D03*
X14000000Y45000000D03*
D21*
X13700000Y7800000D03*
D22*
X13700000Y5300000D03*
D23*
X8725000Y42780000D03*
X3675000Y42780000D03*
X8725000Y40240000D03*
X3675000Y40240000D03*
X8725000Y37700000D03*
X3675000Y37700000D03*
X8725000Y35160000D03*
X3675000Y35160000D03*
X8725000Y32620000D03*
X3675000Y32620000D03*
X8725000Y30080000D03*
X3675000Y30080000D03*
X8725000Y27540000D03*
X3675000Y27540000D03*
X8725000Y25000000D03*
X3675000Y25000000D03*
X8725000Y22460000D03*
X3675000Y22460000D03*
X8725000Y19920000D03*
X3675000Y19920000D03*
X8725000Y17380000D03*
X3675000Y17380000D03*
X8725000Y14840000D03*
X3675000Y14840000D03*
X8725000Y12300000D03*
X3675000Y12300000D03*
X8725000Y9760000D03*
X3675000Y9760000D03*
X8725000Y7220000D03*
X3675000Y7220000D03*
D24*
X45800000Y41100000D03*
X45800000Y32900000D03*
D25*
X45800000Y39000000D03*
D26*
X45800000Y37000000D03*
X45800000Y35000000D03*
%LPD*%
M02*
